<svg id="Capa_1" enable-background="new 0 0 512 512" height="512" viewBox="0 0 512 512" width="512" xmlns="http://www.w3.org/2000/svg"><g><g><path d="m405.1 250v-184.517c0-4.575-3.709-8.283-8.283-8.283h-16.567c-4.575 0-8.283 3.709-8.283 8.283h-231.934c0-4.575-3.708-8.283-8.283-8.283h-16.567c-4.575 0-8.283 3.709-8.283 8.283v184.517z" fill="#ffd97d"/><path d="m272.567 15.783c0-4.575 3.709-8.283 8.283-8.283h16.567c4.575 0 8.283 3.708 8.283 8.283v33.133h33.133c0-4.575 3.709-8.283 8.283-8.283h16.567c4.575 0 8.284 3.709 8.284 8.283v201.084h-231.934v-201.083c0-4.575 3.709-8.283 8.283-8.283h16.567c4.575 0 8.283 3.709 8.283 8.283h33.134v-33.134c0-4.575 3.708-8.283 8.283-8.283h16.567c4.575 0 8.283 3.708 8.283 8.283z" fill="#ffc269"/><g fill="#ffd97d"><path d="m239.433 250v-234.217c0-4.575 3.709-8.283 8.283-8.283h16.567c4.575 0 8.283 3.709 8.283 8.283v234.217z"/><path d="m173.167 250v-217.65c0-4.575 3.708-8.283 8.283-8.283h16.567c4.575 0 8.283 3.708 8.283 8.283v217.65z"/><path d="m305.7 250v-217.65c0-4.575 3.709-8.283 8.283-8.283h16.567c4.575 0 8.283 3.708 8.283 8.283v217.65z"/></g></g><path d="m346.524 189.733c-4.092 0-7.611 2.982-8.184 7.034-3.417 24.118-24.145 42.666-49.206 42.666h-66.267c-25.061 0-45.79-18.549-49.206-42.666-.574-4.051-4.093-7.034-8.184-7.034h-56.741c-9.836 0-17.505 8.519-16.476 18.301l28.084 266.801c1.775 16.863 15.995 29.665 32.951 29.665h205.409c16.956 0 31.176-12.802 32.951-29.665l28.084-266.801c1.03-9.782-6.64-18.301-16.476-18.301z" fill="#e55964"/><g fill="#db404f"><path d="m150.661 196.767c3.417 24.118 24.145 42.666 49.206 42.666h23c-25.061 0-45.79-18.549-49.206-42.666-.574-4.051-4.093-7.034-8.184-7.034h-23c4.091 0 7.61 2.983 8.184 7.034z"/><path d="m403.265 189.733h-23c9.836 0 17.505 8.519 16.476 18.301l-28.084 266.801c-1.775 16.863-15.995 29.665-32.951 29.665h23c16.956 0 31.176-12.802 32.951-29.665l28.084-266.801c1.029-9.781-6.641-18.301-16.476-18.301z"/></g><path d="m395.509 438.233h-279.018l-17.438-165.666h313.894z" fill="#faf8fa"/><path d="m256 305.7c-27.449 0-49.7 22.251-49.7 49.7s22.251 49.7 49.7 49.7 49.7-22.251 49.7-49.7c0-27.448-22.252-49.7-49.7-49.7zm0 66.267c-9.15 0-16.567-7.417-16.567-16.567s7.417-16.567 16.567-16.567 16.567 7.417 16.567 16.567-7.417 16.567-16.567 16.567z" fill="#ffd97d"/><path d="m389.947 272.567-17.438 165.666h23l12.53-119.032 4.908-46.634z" fill="#eceaec"/></g><g><path d="m198.8 355.4c0 31.54 25.66 57.199 57.2 57.199s57.2-25.659 57.2-57.199-25.66-57.2-57.2-57.2-57.2 25.66-57.2 57.2zm99.4 0c0 23.269-18.931 42.199-42.2 42.199s-42.2-18.931-42.2-42.199c0-23.27 18.931-42.2 42.2-42.2s42.2 18.931 42.2 42.2z"/><path d="m231.934 355.4c0 13.271 10.796 24.066 24.066 24.066 13.271 0 24.066-10.796 24.066-24.066s-10.796-24.067-24.066-24.067-24.066 10.797-24.066 24.067zm33.132 0c0 4.999-4.067 9.066-9.066 9.066s-9.066-4.067-9.066-9.066c0-5 4.067-9.067 9.066-9.067s9.066 4.067 9.066 9.067z"/><path d="m427.199 208.819c.713-6.773-1.492-13.561-6.049-18.622-2.39-2.655-5.322-4.708-8.551-6.068v-118.646c0-8.703-7.08-15.783-15.783-15.783h-16.566c-.264 0-.522.027-.783.04v-.823c0-8.703-7.08-15.784-15.783-15.784h-16.566c-.265 0-.523.027-.784.04v-.823c0-8.703-7.08-15.783-15.783-15.783h-16.566c-.264 0-.522.027-.783.04v-.823c-.002-8.704-7.082-15.784-15.785-15.784h-16.567c-3.04 0-5.872.878-8.283 2.374-2.412-1.496-5.244-2.374-8.284-2.374h-16.566c-3.04 0-5.872.878-8.283 2.374-2.412-1.496-5.244-2.374-8.284-2.374h-16.567c-8.703 0-15.783 7.08-15.783 15.783v.823c-.261-.013-.519-.04-.783-.04h-16.567c-8.703 0-15.783 7.08-15.783 15.783v.823c-.262-.013-.52-.04-.784-.04h-16.566c-8.703 0-15.783 7.081-15.783 15.784v.823c-.261-.013-.519-.04-.783-.04h-16.566c-8.703 0-15.783 7.08-15.783 15.783v118.646c-3.228 1.36-6.161 3.413-8.551 6.068-4.557 5.062-6.762 11.849-6.049 18.622l24.229 230.178c0 .002 0 .005.001.007l3.854 36.616c2.184 20.74 19.557 36.38 40.41 36.38h11.589c4.143 0 7.5-3.357 7.5-7.5s-3.357-7.5-7.5-7.5h-11.589c-13.155 0-24.115-9.866-25.492-22.95l-2.981-28.316h262.356l-2.981 28.316c-1.378 13.085-12.338 22.951-25.493 22.951h-163.822c-4.143 0-7.5 3.357-7.5 7.5s3.357 7.5 7.5 7.5h163.822c20.853 0 38.227-15.64 40.41-36.38l3.854-36.616c0-.002 0-.005.001-.008l7.218-68.574c.434-4.119-2.555-7.811-6.674-8.244-4.119-.437-7.81 2.554-8.244 6.674l-6.514 61.881h-265.513l-15.86-150.667h297.232l-6.268 59.548c-.434 4.119 2.555 7.811 6.674 8.244 4.106.43 7.81-2.554 8.244-6.674zm-46.949-144.119h16.566c.432 0 .783.352.783.783v116.75h-18.133v-116.75c.001-.431.352-.783.784-.783zm-33.133-16.567h16.566c.432 0 .783.352.783.784v16.566 116.75h-17.943c-.064 0-.126.008-.19.009v-133.325c0-.433.352-.784.784-.784zm-33.134-16.567h16.566c.432 0 .783.352.783.783v16.567 140.816 4.042c-.175.633-.325 1.276-.419 1.939-1.685 11.893-8.365 22.094-17.714 28.613v-191.976c.001-.432.353-.784.784-.784zm-33.133-16.566h16.567c.432 0 .783.352.783.783v16.567 198.582c-2.932.652-5.966 1.002-9.067 1.002h-9.066v-216.151c-.001-.431.351-.783.783-.783zm-33.133 0h16.566c.432 0 .783.352.783.783v216.15h-18.133v-216.15c.001-.431.352-.783.784-.783zm-33.917.783c0-.432.352-.783.783-.783h16.567c.432 0 .783.352.783.783v216.15h-9.066c-3.101 0-6.135-.351-9.067-1.002v-198.581zm-33.133 16.567c0-.432.352-.783.783-.783h16.566c.432 0 .783.352.783.783v191.978c-9.349-6.519-16.029-16.719-17.714-28.612-.094-.664-.244-1.307-.419-1.94v-4.043-140.816-16.567zm-33.134 16.567c0-.433.352-.784.783-.784h16.566c.433 0 .784.352.784.784v133.325c-.064-.001-.126-.009-.19-.009h-17.943v-116.75zm-32.349 15.783h16.566c.432 0 .783.352.783.783v116.75h-18.133v-116.75c0-.431.352-.783.784-.783zm-9.379 200.366-6.086-57.817c-.273-2.589.537-5.081 2.278-7.016 1.742-1.935 4.135-3 6.738-3h56.741c.379 0 .711.257.758.585 3.967 28 28.313 49.115 56.633 49.115h66.266c28.319 0 52.666-21.115 56.633-49.116.047-.327.379-.584.758-.584h56.741c2.604 0 4.996 1.065 6.738 3 1.741 1.935 2.551 4.427 2.278 7.016l-6.086 57.817z"/></g></svg>