<svg id="Capa_1" enable-background="new 0 0 512 512" height="512" viewBox="0 0 512 512" width="512" xmlns="http://www.w3.org/2000/svg"><g><g><path d="m286.412 219.824-52.853-52.978c-3.12-3.128-3.115-8.193.013-11.314l29.521-29.451c23.617-23.561 25.748-60.507 6.364-86.483-3.034-4.066-8.945-4.547-12.537-.963l-110.998 110.736c-12.955 12.924-12.98 33.903-.056 46.857l64.553 64.706c3.12 3.128 3.114 8.193-.014 11.314l-31.497 31.422c-3.493 3.484-9.23 2.974-12.146-1.005-6.02-8.212-15.728-13.549-26.691-13.562l-66.267-.078c-27.449-.033-49.726 22.193-49.759 49.641l-.044 38.134 203.652.241.006-5 58.641-58.503c25.91-25.847 25.96-67.805.112-93.714z" fill="#966a5b"/><g><path d="" style="fill:none;stroke:#000;stroke-width:15;stroke-linecap:round;stroke-linejoin:round;stroke-miterlimit:10"/></g><path d="m286.412 219.824-52.852-52.978c-3.12-3.128-3.115-8.193.014-11.314l29.521-29.451c23.617-23.561 25.748-60.507 6.364-86.483-3.034-4.066-8.945-4.547-12.537-.963l-6.628 6.612c15.201 25.47 11.825 58.932-10.128 80.834l-28.887 28.753c-.022.022-.044.044-.065.065-3.489 3.505-3.377 9.217.118 12.715l52.152 52.209c25.848 25.91 25.798 67.867-.111 93.715l-58.641 58.502-.006 4.973 22.929.027.006-5 58.641-58.502c25.908-25.847 25.958-67.805.11-93.714z" fill="#8a5a51"/></g><g><path d="m468.509 219.824-52.852-52.978c-3.12-3.128-3.115-8.193.013-11.314l29.521-29.451c23.617-23.561 25.748-60.507 6.364-86.483-3.034-4.066-8.945-4.547-12.537-.963l-110.999 110.736c-12.955 12.924-12.979 33.903-.056 46.857l64.553 64.706c3.12 3.128 3.115 8.193-.013 11.314l-31.497 31.422c-3.493 3.484-9.23 2.974-12.146-1.005-6.02-8.212-15.728-13.549-26.691-13.562l-66.267-.078c-27.449-.033-49.726 22.193-49.759 49.641l-.045 38.133 203.652.241.006-5 58.641-58.503c25.91-25.846 25.96-67.804.112-93.713z" fill="#966a5b"/><g><path d="" style="fill:none;stroke:#000;stroke-width:15;stroke-linecap:round;stroke-linejoin:round;stroke-miterlimit:10"/></g><path d="m468.509 219.824-52.852-52.978c-3.121-3.128-3.115-8.193.013-11.314l29.521-29.452c23.617-23.561 25.748-60.507 6.364-86.483-3.034-4.066-8.945-4.547-12.537-.963l-6.628 6.612c15.201 25.47 11.825 58.932-10.128 80.834l-28.887 28.753c-.022.021-.043.043-.065.065-3.469 3.486-3.36 9.164.113 12.645l52.156 52.28c25.848 25.91 25.798 67.867-.111 93.715l-58.641 58.502-.006 4.973 22.929.027.006-5 58.641-58.502c25.91-25.847 25.96-67.805.112-93.714z" fill="#8a5a51"/></g><path d="m206.098 376.8.045-38.133c.033-27.43 22.276-49.644 49.699-49.641h.06l45.949.054c2.665-7.415 3.964-15.208 3.9-22.995l-49.822-.059h-.087c-40.038-.004-72.651 32.57-72.699 72.614l-.045 38.134v.216z" fill="#8a5a51"/><path d="m487.933 405.1-25.581 76.744c-4.51 13.53-17.172 22.656-31.433 22.656h-349.838c-14.262 0-26.923-9.126-31.433-22.656l-25.581-76.744v-11.6h463.867v11.6z" fill="#f4dbb3"/><path d="m464.933 393.5v11.6l-25.581 76.744c-4.51 13.53-17.171 22.656-31.433 22.656h23c14.262 0 26.923-9.126 31.433-22.656l25.581-76.744v-11.6z" fill="#eac89f"/><g fill="#eac89f"><path d="m173.167 504.5v-16.567c0-9.15 7.417-16.567 16.567-16.567s16.567 7.417 16.567 16.567v16.567z"/><path d="m106.9 504.5v-16.567c0-9.15 7.417-16.567 16.567-16.567 9.149 0 16.567 7.417 16.567 16.567v16.567z"/><path d="m239.433 504.5v-16.567c0-9.15 7.417-16.567 16.567-16.567s16.567 7.417 16.567 16.567v16.567z"/><path d="m305.7 504.5v-16.567c0-9.15 7.417-16.567 16.567-16.567s16.567 7.417 16.567 16.567v16.567z"/><path d="m371.967 504.5v-16.567c0-9.15 7.417-16.567 16.567-16.567s16.567 7.417 16.567 16.567v16.567z"/></g><path d="m496.5 405.1h-481c-4.418 0-8-3.582-8-8v-17.133c0-4.418 3.582-8 8-8h481c4.418 0 8 3.582 8 8v17.133c0 4.419-3.582 8-8 8z" fill="#edf4ff"/><path d="m496.5 371.967h-23c4.418 0 8 3.582 8 8v17.133c0 4.418-3.582 8-8 8h23c4.418 0 8-3.582 8-8v-17.133c0-4.418-3.582-8-8-8z" fill="#d6e0ff"/></g><g><path d="m496.5 364.467h-68.441l45.769-45.769c13.933-13.933 21.605-32.457 21.605-52.161s-7.673-38.229-21.605-52.161l-53.269-53.269 29.84-29.84c12.62-12.621 20.233-29.367 21.437-47.156 1.19-17.614-3.949-35.062-14.473-49.13-2.766-3.697-6.985-6.005-11.578-6.334-4.56-.328-9.034 1.341-12.27 4.575l-24.929 24.928c-2.929 2.929-2.929 7.678 0 10.606 2.929 2.929 7.677 2.929 10.607 0l24.929-24.929c.061-.06.237-.246.59-.22.26.019.476.139.639.358 17.354 23.199 14.965 56.17-5.56 76.694l-35.144 35.143c-7.674 7.675-11.9 17.878-11.9 28.732s4.227 21.058 11.901 28.732c1.464 1.465 3.384 2.197 5.303 2.197s3.839-.732 5.304-2.197c2.929-2.929 2.929-7.678-.001-10.607-4.841-4.841-7.507-11.278-7.507-18.126 0-4.267 1.036-8.375 2.989-12.037l52.484 52.483c11.1 11.1 17.213 25.857 17.213 41.555s-6.113 30.455-17.213 41.554l-56.376 56.375h-193.044v-18.133h42.2c4.143 0 7.5-3.358 7.5-7.5s-3.357-7.5-7.5-7.5h-41.519c3.551-19.702 20.81-34.7 41.519-34.7h45.664c.026 0 .053.003.08.003.015 0 .03-.003.044-.003h20.478c14.135 0 25.634 11.499 25.634 25.633 0 4.142 3.357 7.5 7.5 7.5s7.5-3.358 7.5-7.5c0-3.026-.343-5.972-.973-8.812l35.518-35.517c5.141 9.688 3.639 22.004-4.51 30.154-2.929 2.929-2.929 7.678.001 10.607 1.464 1.464 3.383 2.196 5.303 2.196 1.919 0 3.839-.732 5.304-2.197 15.842-15.843 15.842-41.621 0-57.464l-70.288-70.287c-4.841-4.841-7.507-11.278-7.507-18.126 0-6.847 2.666-13.284 7.508-18.126l64.727-64.726c2.929-2.929 2.929-7.678 0-10.606-2.93-2.929-7.678-2.929-10.607 0l-64.727 64.726c-7.674 7.675-11.9 17.878-11.9 28.732s4.227 21.058 11.9 28.732l64.984 64.983-32.24 32.24c-7.371-10.364-19.467-17.144-33.124-17.144h-10.628c4.99-24.086-2.376-49.589-20.044-67.257l-53.269-53.269 29.84-29.84c12.62-12.621 20.233-29.367 21.437-47.156 1.19-17.614-3.949-35.062-14.473-49.13-2.766-3.697-6.985-6.005-11.578-6.334-4.564-.328-9.034 1.341-12.27 4.575l-110.87 110.873c-7.674 7.675-11.9 17.878-11.9 28.732s4.227 21.058 11.9 28.732l64.984 64.983-32.24 32.24c-7.371-10.364-19.467-17.144-33.124-17.144h-66.267c-31.54 0-57.2 25.66-57.2 57.2v25.633h-1.067c-8.547 0-15.5 6.953-15.5 15.5v17.134c0 8.547 6.953 15.5 15.5 15.5h3.161l9.287 27.86c.001.004.003.008.004.012l14.581 43.744c5.539 16.619 21.031 27.784 38.548 27.784h349.838c17.518 0 33.009-11.165 38.548-27.784l14.582-43.744c.001-.004.003-.008.004-.012l9.287-27.86h3.161c8.547 0 15.5-6.953 15.5-15.5v-17.133c-.001-8.547-6.954-15.5-15.501-15.5zm-352.986-191.645c0-6.847 2.666-13.284 7.508-18.126l110.868-110.868c.061-.06.23-.246.59-.22.26.019.476.139.639.358 17.354 23.199 14.965 56.17-5.56 76.694l-35.144 35.143c-7.674 7.675-11.901 17.878-11.901 28.732s4.227 21.058 11.902 28.732c2.928 2.929 7.677 2.93 10.606 0 2.929-2.929 2.929-7.678-.001-10.607-4.841-4.841-7.508-11.278-7.508-18.126 0-4.267 1.037-8.375 2.99-12.037l52.484 52.483c14.829 14.829 20.542 36.583 15.24 56.651h-40.227c-8.17 0-15.939 1.734-22.977 4.834-.829-9.372-4.871-18.39-11.715-25.234l-70.288-70.287c-4.84-4.838-7.506-11.275-7.506-18.122zm-111.947 173.512h42.2c4.143 0 7.5-3.358 7.5-7.5s-3.357-7.5-7.5-7.5h-41.52c3.551-19.702 20.81-34.7 41.519-34.7h66.267c14.135 0 25.634 11.499 25.634 25.633 0 4.142 3.357 7.5 7.5 7.5s7.5-3.358 7.5-7.5c0-3.026-.343-5.972-.973-8.812l35.5-35.5c3.015 5.715 3.831 12.468 2.101 18.808-11.361 10.461-18.495 25.446-18.495 42.07v25.633h-167.233zm100.966 150.666h-18.133v-9.067c0-4.999 4.067-9.066 9.066-9.066s9.066 4.067 9.066 9.066v9.067zm66.267 0h-18.133v-9.067c0-4.999 4.067-9.066 9.066-9.066s9.066 4.067 9.066 9.066v9.067zm66.267 0h-18.133v-9.067c0-4.999 4.067-9.066 9.066-9.066s9.066 4.067 9.066 9.066v9.067zm66.266 0h-18.133v-9.067c0-4.999 4.067-9.066 9.066-9.066s9.066 4.067 9.066 9.066v9.067zm66.267 0h-18.133v-9.067c0-4.999 4.067-9.066 9.066-9.066s9.066 4.067 9.066 9.066v9.067zm99.4-99.9c0 .276-.225.5-.5.5h-8.413c-.005 0-.01 0-.015 0h-357.636c-4.143 0-7.5 3.358-7.5 7.5s3.358 7.5 7.5 7.5h86.576l6.863 27.452c.835 3.339 3.835 5.681 7.276 5.681h49.699c3.441 0 6.441-2.342 7.276-5.681l6.863-27.452h182.539l-6.045 18.133h-66.383c-4.143 0-7.5 3.358-7.5 7.5s3.357 7.5 7.5 7.5h61.383l-11.247 33.739c-3.494 10.484-13.266 17.528-24.317 17.528h-18.319v-9.067c0-13.27-10.796-24.066-24.066-24.066s-24.066 10.796-24.066 24.066v9.067h-18.134v-9.067c0-13.27-10.796-24.066-24.066-24.066s-24.068 10.796-24.068 24.066v9.067h-18.134v-9.067c0-13.27-10.796-24.066-24.066-24.066s-24.066 10.796-24.066 24.066v9.067h-18.134v-9.067c0-13.27-10.796-24.066-24.066-24.066-13.271 0-24.066 10.796-24.066 24.066v9.067h-18.134v-9.067c0-13.27-10.796-24.066-24.066-24.066s-24.066 10.796-24.066 24.066v9.067h-18.321c-11.051 0-20.823-7.044-24.317-17.527l-11.247-33.739h62.418c4.143 0 7.5-3.358 7.5-7.5s-3.357-7.5-7.5-7.5h-67.418l-6.045-18.134h65.963c4.143 0 7.5-3.358 7.5-7.5s-3.357-7.5-7.5-7.5h-76.494c-.011 0-.022 0-.033 0h-8.408c-.275 0-.5-.224-.5-.5v-17.133c0-.276.225-.5.5-.5h481c.275 0 .5.224.5.5zm-217.473 15.5-4.533 18.133h-37.988l-4.533-18.133z"/><path d="m392.935 120.661-23.429 23.429c-2.929 2.929-2.929 7.678 0 10.606 1.465 1.464 3.385 2.197 5.304 2.197s3.839-.732 5.304-2.197l23.429-23.429c2.929-2.929 2.929-7.678 0-10.606-2.931-2.928-7.679-2.928-10.608 0z"/><path d="m221.309 120.661c-2.93-2.929-7.678-2.929-10.607 0l-23.429 23.429c-2.929 2.929-2.929 7.678 0 10.606 1.465 1.464 3.385 2.197 5.304 2.197s3.839-.732 5.304-2.197l23.429-23.429c2.927-2.928 2.927-7.677-.001-10.606z"/><path d="m45.995 46.874c3.441 2.295 5.6 5.097 6.079 7.893.364 2.129-.251 4.276-1.83 6.381l-6.089 8.119c-2.485 3.314-1.813 8.015 1.5 10.5 1.35 1.012 2.928 1.501 4.494 1.501 2.28 0 4.532-1.036 6.006-3.001l6.089-8.119c4.033-5.378 5.672-11.74 4.614-17.914-1.182-6.901-5.637-13.237-12.543-17.841-3.441-2.294-5.601-5.098-6.08-7.894-.364-2.129.251-4.276 1.83-6.38l6.09-8.119c2.485-3.313 1.813-8.015-1.5-10.5-3.312-2.485-8.014-1.813-10.5 1.5l-6.09 8.119c-4.033 5.378-5.672 11.74-4.614 17.913 1.182 6.901 5.637 13.237 12.544 17.842z"/><path d="m178.528 46.874c3.441 2.295 5.6 5.097 6.079 7.893.364 2.129-.251 4.276-1.83 6.381l-6.089 8.119c-2.485 3.314-1.813 8.015 1.5 10.5 1.35 1.012 2.928 1.501 4.494 1.501 2.28 0 4.532-1.036 6.006-3.001l6.089-8.119c4.033-5.378 5.672-11.74 4.614-17.914-1.182-6.901-5.637-13.237-12.543-17.841-3.441-2.294-5.601-5.098-6.079-7.894-.365-2.129.251-4.275 1.83-6.381l6.09-8.118c2.485-3.314 1.814-8.015-1.5-10.5-3.315-2.485-8.015-1.813-10.5 1.5l-6.089 8.118c-4.033 5.378-5.673 11.74-4.615 17.913 1.181 6.902 5.636 13.238 12.543 17.843z"/><path d="m311.062 46.874c3.441 2.295 5.6 5.097 6.079 7.893.364 2.129-.251 4.276-1.83 6.381l-6.089 8.119c-2.485 3.314-1.814 8.015 1.5 10.5 1.35 1.012 2.928 1.501 4.494 1.501 2.28 0 4.532-1.036 6.006-3.001l6.089-8.119c4.033-5.378 5.672-11.74 4.614-17.914-1.182-6.901-5.637-13.237-12.543-17.841-3.441-2.294-5.6-5.097-6.079-7.893-.364-2.129.251-4.276 1.83-6.381l6.089-8.119c2.485-3.314 1.813-8.015-1.5-10.5-3.314-2.485-8.014-1.813-10.5 1.5l-6.089 8.119c-4.033 5.378-5.672 11.74-4.614 17.914 1.181 6.901 5.636 13.237 12.543 17.841z"/></g></svg>