<svg id="Capa_1" enable-background="new 0 0 512 512" height="512" viewBox="0 0 512 512" width="512" xmlns="http://www.w3.org/2000/svg"><g><g><path d="m8 417.317c0 22.373 18.137 40.51 40.51 40.51h414.98c22.373 0 40.51-18.137 40.51-40.51v-168.924c0-5.402-.354-10.792-1.054-16.138h-494.946z" fill="#434d59"/><path d="m8 417.317c0 22.373 18.137 40.51 40.51 40.51h414.98c22.373 0 40.51-18.137 40.51-40.51v-168.924c0-5.402-.354-10.792-1.054-16.138h-494.946z" fill="#434d59"/><path d="m463.49 439.827h-414.98c-22.373 0-40.51-18.137-40.51-40.51v18c0 22.373 18.137 40.51 40.51 40.51h414.98c22.373 0 40.51-18.137 40.51-40.51v-18c0 22.373-18.137 40.51-40.51 40.51z" fill="#3b434d"/><path d="m499.879 216.653c-8.533-32.309-31.301-58.372-61.043-71.492-11.54-5.091-24.077-7.523-36.69-7.523l-18.793-42.03c-11.271-25.207-36.305-41.435-63.917-41.435h-32.017c-26.481 0-50.689 14.961-62.532 38.645l-1.319 2.638c-11.604 23.206-35.323 37.864-61.268 37.864h-37.511c-57.879.001-107.274 41.845-116.789 98.936h494.946c-.688-5.256-1.71-10.468-3.067-15.603z" fill="#a6aec4"/><path d="m499.21 214.256h-486.746c-1.93 5.798-3.432 11.809-4.464 18h494.946c-.688-5.255-1.71-10.467-3.067-15.602-.212-.805-.44-1.602-.669-2.398z" fill="#959db0"/><ellipse cx="305.391" cy="310.011" fill="#dad8db" rx="147.815" ry="147.815" transform="matrix(.707 -.707 .707 .707 -129.764 306.744)"/><path d="m453.206 310.012c0-3.023-.102-6.022-.281-9-4.653 77.444-68.922 138.815-147.535 138.815s-142.882-61.372-147.535-138.815c-.179 2.978-.281 5.977-.281 9 0 81.636 66.179 147.815 147.815 147.815 81.638 0 147.817-66.179 147.817-147.815z" fill="#c8c5c9"/><circle cx="305.391" cy="310.011" fill="#434d59" r="114.304"/><path d="m419.695 310.012c0-3.029-.12-6.03-.352-9-4.59 58.921-53.853 105.304-113.953 105.304-60.099 0-109.363-46.383-113.953-105.304-.231 2.97-.352 5.971-.352 9 0 63.129 51.176 114.304 114.304 114.304 63.13 0 114.306-51.176 114.306-114.304z" fill="#3b434d"/><ellipse cx="305.391" cy="310.011" fill="#a6aec4" rx="38.409" ry="38.409" transform="matrix(.707 -.707 .707 .707 -129.764 306.744)"/><path d="m343.799 310.012c0-3.101-.377-6.112-1.071-9-4.052 16.869-19.226 29.409-37.338 29.409s-33.286-12.54-37.338-29.409c-.694 2.888-1.071 5.899-1.071 9 0 21.213 17.196 38.409 38.409 38.409 21.213-.001 38.409-17.197 38.409-38.409z" fill="#959db0"/><circle cx="98.46" cy="186.01" fill="#edc963" r="18.833"/><path d="m117.293 186.01c0-3.26-.829-6.326-2.287-9-3.193 5.858-9.405 9.833-16.546 9.833s-13.353-3.975-16.546-9.833c-1.458 2.674-2.287 5.74-2.287 9 0 10.401 8.432 18.833 18.833 18.833s18.833-8.432 18.833-18.833z" fill="#e7b93e"/><path d="m438.836 145.161c16.645 7.343 31.103 18.741 42.107 33.018l11.874-24.734c3.631-7.564.443-16.639-7.121-20.269l-34.461-16.543c-7.564-3.631-16.638-.443-20.269 7.121l-7.791 16.23c5.36 1.228 10.606 2.947 15.661 5.177z" fill="#b3e59f"/><path d="m480.943 178.179 5.146-10.72c-11.449-17.694-27.868-31.746-47.253-40.298-2.63-1.16-5.314-2.175-8.036-3.062l-7.625 15.884c5.36 1.229 10.607 2.948 15.661 5.178 16.645 7.343 31.104 18.741 42.107 33.018z" fill="#95d6a4"/><path d="m456.06 285.898c-1.624 0-3.21.163-4.745.469 1.238 7.7 1.891 15.595 1.891 23.644s-.653 15.944-1.891 23.644c1.535.306 3.12.469 4.745.469 13.317 0 24.113-10.796 24.113-24.113s-10.796-24.113-24.113-24.113z" fill="#eceaec"/><g><path d="m456.06 316.125c-1.008 0-1.998-.07-2.973-.19-.24 6.006-.839 11.919-1.772 17.721 1.534.306 3.12.469 4.745.469 13.317 0 24.113-10.796 24.113-24.113 0-3.183-.622-6.218-1.743-9-3.567 8.857-12.235 15.113-22.37 15.113z" fill="#dad8db"/></g></g><g><path d="m259.489 310.117c0 25.363 20.635 45.999 45.998 45.999 25.364 0 45.999-20.635 45.999-45.999s-20.635-45.999-45.999-45.999c-25.363 0-45.998 20.635-45.998 45.999zm76.968 0c0 17.076-13.893 30.969-30.97 30.969s-30.969-13.893-30.969-30.969c0-17.077 13.892-30.97 30.969-30.97s30.97 13.894 30.97 30.97z"/><path d="m305.487 432.16c23.366 0 46.074-6.625 65.672-19.159 3.496-2.236 4.518-6.883 2.282-10.38-2.237-3.496-6.883-4.518-10.38-2.282-17.175 10.984-37.084 16.791-57.574 16.791-59.007 0-107.013-48.006-107.013-107.013s48.006-107.014 107.013-107.014c59.008 0 107.014 48.006 107.014 107.014 0 26.739-9.914 52.337-27.915 72.079-2.796 3.066-2.577 7.819.489 10.616 3.068 2.797 7.82 2.579 10.617-.49 20.531-22.517 31.839-51.711 31.839-82.205 0-67.295-54.749-122.043-122.043-122.043s-122.043 54.748-122.043 122.043 54.748 122.043 122.042 122.043z"/><path d="m98.152 159.488c-14.549 0-26.385 11.836-26.385 26.385s11.836 26.384 26.385 26.384c14.548 0 26.384-11.836 26.384-26.384s-11.836-26.385-26.384-26.385zm0 37.74c-6.261 0-11.355-5.094-11.355-11.355s5.094-11.355 11.355-11.355 11.355 5.094 11.355 11.355-5.094 11.355-11.355 11.355z"/><path d="m338.996 120.677c4.151 0 7.515-3.364 7.515-7.515s-3.364-7.515-7.515-7.515h-75.761c-4.151 0-7.515 3.364-7.515 7.515s3.364 7.515 7.515 7.515z"/><path d="m510.881 231.238c-.73-5.578-1.827-11.156-3.259-16.58-3.612-13.675-9.571-26.326-17.48-37.511l9.914-20.651c5.425-11.301.644-24.91-10.658-30.336l-34.528-16.575c-5.477-2.628-11.644-2.967-17.376-.954-5.729 2.013-10.333 6.136-12.961 11.612l-5.295 11.03c-3.894-.643-7.853-1.082-11.884-1.268l-16.892-37.778c-12.485-27.922-40.316-45.963-70.902-45.963h-32.08c-29.569 0-56.151 16.429-69.375 42.875l-1.322 2.643c-10.421 20.839-31.368 33.785-54.667 33.785h-7.448c-4.15 0-7.515 3.365-7.515 7.515s3.365 7.515 7.515 7.515h7.448c29.028 0 55.126-16.129 68.109-42.092l1.322-2.643c10.662-21.322 32.094-34.567 55.933-34.567h32.079c24.667 0 47.113 14.55 57.182 37.069l18.831 42.112c1.209 2.705 3.896 4.447 6.86 4.447 12.005 0 23.353 2.321 33.728 6.898 28.285 12.477 49.035 36.779 56.931 66.675.539 2.044 1.013 4.117 1.443 6.2h-59.037c-27.855-42.252-75.727-70.196-130.01-70.196s-102.155 27.944-130.01 70.196h-58.453c-.001 0-.002 0-.004 0-.001 0-.002 0-.004 0h-100.25c5.635-22.451 18.178-42.719 35.941-57.767 20.045-16.98 45.552-26.332 71.823-26.332 4.15 0 7.515-3.365 7.515-7.515s-3.364-7.515-7.515-7.515c-29.824 0-58.781 10.617-81.538 29.894-22.756 19.277-37.989 46.095-42.892 75.513-.057.409-.091.823-.102 1.236v185.423c0 26.525 21.579 48.104 48.104 48.104h415.791c26.525 0 48.105-21.579 48.105-48.104v-169.254c.002-5.697-.375-11.464-1.117-17.141zm-68.654-93.169c-2.644-1.166-5.339-2.204-8.08-3.123l3.936-8.2c.89-1.856 2.45-3.253 4.392-3.935 1.943-.682 4.033-.567 5.889.323l34.528 16.575c3.832 1.839 5.452 6.452 3.613 10.282l-6.884 14.34c-10.434-10.984-23.072-19.944-37.394-26.262zm-136.74 31.458c77.521 0 140.59 63.068 140.59 140.59s-63.069 140.59-140.59 140.59-140.59-63.068-140.59-140.59 63.069-140.59 140.59-140.59zm-180.951 281.18v-132.167c0-4.15-3.365-7.515-7.515-7.515s-7.515 3.364-7.515 7.515v132.167h-61.402c-18.238 0-33.075-14.837-33.075-33.075v-177.908h94.477v48.757c0 4.15 3.364 7.515 7.515 7.515 4.15 0 7.515-3.365 7.515-7.515v-48.757h42.188c-10.773 21.151-16.855 45.075-16.855 70.394 0 61.96 36.401 115.571 88.938 140.59h-114.271zm372.435-33.075c0 18.238-14.838 33.075-33.075 33.075h-91.727c43.347-20.642 75.707-60.748 85.702-108.95 16.81-.745 30.257-14.649 30.257-31.639s-13.447-30.894-30.257-31.639c-2.831-13.654-7.458-26.658-13.619-38.755h52.396c.215 2.888.323 5.782.323 8.655zm-36.704-123.701c7.343 1.732 12.83 8.323 12.83 16.187s-5.488 14.455-12.83 16.187c.553-5.322.839-10.722.839-16.187.001-5.466-.286-10.866-.839-16.187z"/></g></g></svg>