<svg id="Capa_1" enable-background="new 0 0 512 512" height="512" viewBox="0 0 512 512" width="512" xmlns="http://www.w3.org/2000/svg"><g><g><path d="m297.663 150.064c-.652-40.43-5.552-105.184-5.552-105.184h-72.221s-4.901 64.755-5.552 105.184c-.161 9.994-3.136 19.733-8.566 28.124l-16.964 26.218c-5.597 8.65-8.575 18.734-8.575 29.037v244.807c0 14.501 11.755 26.256 26.256 26.256h99.024c14.501 0 26.256-11.755 26.256-26.256v-244.807c0-10.303-2.978-20.386-8.575-29.037l-16.964-26.218c-5.431-8.391-8.406-18.13-8.567-28.124z" fill="#f3f0f3"/></g><g><path d="m331.767 233.439v244.816c0 14.498-11.75 26.248-26.258 26.248h-21.942c14.498 0 26.258-11.75 26.258-26.248v-244.816c0-10.301-2.978-20.383-8.583-29.036l-16.956-26.218c-5.435-8.393-8.413-18.125-8.573-28.117-.649-40.436-5.545-105.192-5.545-105.192h21.942s4.906 64.756 5.555 105.192c.16 9.992 3.137 19.724 8.563 28.117l16.966 26.218c5.595 8.653 8.573 18.734 8.573 29.036z" fill="#e2dee2"/></g><g><path d="m331.767 233.439v244.816c0 14.498-11.75 26.248-26.258 26.248h-99.017c-14.508 0-26.258-11.75-26.258-26.248v-244.816c0-10.301 2.978-20.383 8.573-29.036l16.966-26.218c5.425-8.393 8.403-18.125 8.563-28.117.14-8.833.49-18.814.939-29.036h81.452c.45 10.222.799 20.203.939 29.036.16 9.992 3.137 19.724 8.563 28.117l16.966 26.218c5.594 8.653 8.572 18.734 8.572 29.036z" fill="#fee45a"/></g><g><path d="m331.767 233.439v244.816c0 14.498-11.75 26.248-26.258 26.248h-21.942c14.498 0 26.258-11.75 26.258-26.248v-244.816c0-10.301-2.978-20.383-8.583-29.036l-16.956-26.218c-5.435-8.393-8.413-18.125-8.573-28.117-.14-8.833-.49-18.814-.939-29.036h21.952c.03.709.06 1.419.09 2.128.12 2.917.24 5.815.35 8.653 0 .19.46 15.497.5 18.255.16 9.992 3.137 19.724 8.563 28.117l16.966 26.218c5.594 8.653 8.572 18.734 8.572 29.036z" fill="#fedf30"/></g><g><path d="m288.187 7.494h-64.374c-2.926 0-5.592 1.677-6.845 4.32-2.544 5.366-6.693 14.913-8.695 23.902-1.049 4.709 2.593 9.164 7.418 9.164h80.62c4.824 0 8.466-4.455 7.418-9.164-2.002-8.989-6.151-18.536-8.695-23.902-1.255-2.644-3.921-4.32-6.847-4.32z" fill="#00c27a"/></g><g><path d="m296.306 44.876h-19.983c4.826 0 8.463-4.456 7.414-9.162-1.998-8.982-6.145-18.535-8.693-23.9-1.249-2.648-3.917-4.316-6.844-4.316h19.983c2.928 0 5.595 1.669 6.854 4.316 2.538 5.366 6.684 14.918 8.693 23.9 1.049 4.706-2.598 9.162-7.424 9.162z" fill="#08b865"/></g><g><path d="m180.232 228.144h151.535v208.766h-151.535z" fill="#f3f0f3"/></g><g><path d="m331.767 228.143v208.766h-21.942v-203.47c0-1.778-.09-3.547-.27-5.296z" fill="#e2dee2"/></g><g><path d="m180.232 302.565h151.535v59.923h-151.535z" fill="#bbec6c"/></g><g><path d="m309.816 302.565h21.952v59.923h-21.952z" fill="#a2e62e"/></g><g><path d="m256 79.73c-7.4 0-13.398-5.999-13.398-13.398v-58.838h26.796v58.838c0 7.4-5.998 13.398-13.398 13.398z" fill="#fee97d"/></g><g><path d="m269.399 7.498v58.831c0 7.404-5.995 13.399-13.399 13.399-2.358 0-4.586-.61-6.505-1.689 4.107-2.278 6.894-6.674 6.894-11.71v-58.831z" fill="#fee45a"/></g><g><path d="m256 398.3c-20.963 0-38.114-17.151-38.114-38.114v-55.319c0-20.963 17.151-38.114 38.114-38.114 20.963 0 38.114 17.151 38.114 38.114v55.319c0 20.963-17.151 38.114-38.114 38.114z" fill="#00c27a"/></g><g><path d="m294.118 304.869v55.314c0 20.962-17.156 38.118-38.118 38.118-3.567 0-7.024-.5-10.301-1.419 16.007-4.526 27.817-19.304 27.817-36.699v-55.314c0-10.481-4.286-20.013-11.201-26.918-4.556-4.566-10.251-7.983-16.616-9.782 3.277-.919 6.734-1.419 10.301-1.419 10.481 0 20.013 4.286 26.918 11.201 6.914 6.905 11.2 16.437 11.2 26.918z" fill="#08b865"/></g><path d="m338.715 225.34c-2.637-19.731-15.766-35.107-26.194-51.223-4.68-7.232-7.226-15.591-7.365-24.174-.527-32.705-2.703-65.403-5.024-98.075 3.108-.809 5.902-2.579 7.966-5.154 2.863-3.571 3.936-8.173 2.944-12.627-2.081-9.346-6.173-19.016-9.239-25.485-2.478-5.226-7.823-8.602-13.616-8.602h-64.374c-5.793 0-11.138 3.376-13.617 8.604-3.065 6.466-7.156 16.137-9.238 25.483-.992 4.454.081 9.056 2.944 12.627 2.064 2.574 4.858 4.345 7.966 5.154-.313 4.389-.734 10.445-1.199 17.529-.27 4.13 2.858 7.698 6.987 7.969 4.128.263 7.698-2.857 7.969-6.987.482-7.358.917-13.604 1.231-18.004h8.252v13.959c0 11.52 9.372 20.892 20.892 20.892s20.892-9.372 20.892-20.892v-13.961h8.251c.833 11.688 2.522 36.462 3.728 61.166h-65.743c.137-2.808.283-5.687.44-8.652.219-4.133-2.954-7.661-7.087-7.879-4.112-.239-7.661 2.954-7.879 7.087-.162 3.051-.317 6.103-.465 9.156-.314 6.474-.602 12.949-.833 19.427-.517 14.487.391 28.698-7.824 41.44 0 0-16.961 26.215-16.963 26.218-6.333 9.789-9.777 21.489-9.777 33.108v244.807c0 18.609 15.14 33.749 33.749 33.749h99.025c18.609 0 33.749-15.14 33.749-33.749v-244.807c-.002-2.794-.179-5.341-.548-8.104zm-103.607-187.954h-19.418c-.066 0-.097-.044-.103-.044 1.874-8.41 5.911-17.593 8.226-22.354h11.295zm26.796 28.946c0 3.256-2.648 5.904-5.904 5.904s-5.904-2.648-5.904-5.904v-51.345h11.809v51.345zm62.37 288.662h-22.666v-44.935h22.666zm-47.382-317.608v-22.399h11.295l.074.035c2.24 4.727 6.279 13.912 8.159 22.292-.005.012-.032.071-.11.071h-19.418zm-81.793 171.091 16.963-26.218c6.206-9.591 9.584-20.682 9.767-32.074.094-5.811.619-21.29.634-21.659h67.072c.301 7.632.528 14.993.635 21.659.183 11.392 3.562 22.483 9.767 32.074l16.963 26.218c2.454 3.793 4.316 7.892 5.557 12.172h-132.915c1.241-4.28 3.103-8.379 5.557-12.172zm-7.373 27.16h136.548v59.435h-23.736c-4.496-20.454-22.752-35.812-44.538-35.812s-40.042 15.357-44.538 35.812h-23.736zm98.895 69.23v55.319c0 16.884-13.737 30.62-30.621 30.62s-30.621-13.736-30.621-30.62v-55.319c0-16.884 13.737-30.62 30.621-30.62s30.621 13.736 30.621 30.62zm-98.895 5.192h22.666v44.935h-22.666zm0 59.923h23.736c4.496 20.454 22.752 35.812 44.538 35.812s40.042-15.357 44.538-35.812h23.736v59.434h-25.039c-4.139 0-7.494 3.355-7.494 7.494s3.354 7.494 7.494 7.494h25.038v33.852c0 10.341-8.418 18.754-18.765 18.754h-99.017c-10.347 0-18.765-8.413-18.765-18.754v-33.852h77.838c4.139 0 7.494-3.354 7.494-7.494s-3.355-7.494-7.494-7.494h-77.839v-59.434z"/></g></svg>