<svg id="Capa_1" enable-background="new 0 0 512.2 512.2" height="512" viewBox="0 0 512.2 512.2" width="512" xmlns="http://www.w3.org/2000/svg"><g><g><path d="m165.863 195.911c-85.27 0-154.39 69.12-154.39 154.39s69.12 154.4 154.39 154.4 154.39-69.13 154.39-154.4-69.12-154.39-154.39-154.39zm0 225.62c-39.34 0-71.23-31.89-71.23-71.23 0-39.33 31.89-71.22 71.23-71.22s71.23 31.89 71.23 71.22c0 39.34-31.89 71.23-71.23 71.23z" fill="#e94444"/></g><g><path d="m193.923 198.451c61.45 20.37 105.77 78.3 105.77 146.58 0 85.27-69.12 154.4-154.39 154.4-9.58 0-18.96-.87-28.06-2.54 15.28 5.07 31.63 7.81 48.62 7.81 85.27 0 154.39-69.13 154.39-154.4 0-75.69-54.46-138.65-126.33-151.85z" fill="#d83131"/></g><g><path d="m165.863 429.031c-43.409 0-78.726-35.316-78.726-78.726s35.316-78.726 78.726-78.726 78.726 35.316 78.726 78.726-35.317 78.726-78.726 78.726zm0-142.451c-35.139 0-63.726 28.587-63.726 63.726s28.587 63.726 63.726 63.726 63.726-28.587 63.726-63.726-28.588-63.726-63.726-63.726z"/></g><g><path d="m346.337 7.5c-85.27 0-154.39 69.12-154.39 154.39s69.12 154.4 154.39 154.4 154.39-69.13 154.39-154.4-69.12-154.39-154.39-154.39zm0 225.62c-39.34 0-71.23-31.89-71.23-71.23 0-39.33 31.89-71.22 71.23-71.22s71.23 31.89 71.23 71.22c0 39.34-31.89 71.23-71.23 71.23z" fill="#fe9738"/></g><g><path d="m374.397 10.04c61.45 20.37 105.77 78.3 105.77 146.58 0 85.27-69.12 154.4-154.39 154.4-9.58 0-18.96-.87-28.06-2.54 15.28 5.07 31.63 7.81 48.62 7.81 85.27 0 154.39-69.13 154.39-154.4 0-75.69-54.46-138.65-126.33-151.85z" fill="#fe860a"/></g><g><path d="m346.337 240.62c-43.409 0-78.726-35.316-78.726-78.726s35.316-78.726 78.726-78.726 78.726 35.316 78.726 78.726c0 10.968-2.215 21.585-6.582 31.557-1.662 3.794-6.083 5.522-9.879 3.861-3.795-1.662-5.523-6.085-3.861-9.879 3.531-8.062 5.322-16.655 5.322-25.539 0-35.138-28.587-63.726-63.726-63.726s-63.726 28.587-63.726 63.726 28.587 63.726 63.726 63.726c14.407 0 27.998-4.689 39.304-13.561 3.258-2.556 7.973-1.989 10.53 1.271 2.557 3.258 1.988 7.973-1.271 10.53-13.972 10.965-30.765 16.76-48.563 16.76z"/></g><g><path d="m107.564 270.442c-4.143 0-7.5-3.358-7.5-7.5v-13.684c0-4.142 3.357-7.5 7.5-7.5s7.5 3.358 7.5 7.5v13.684c0 4.143-3.358 7.5-7.5 7.5z"/></g><g><path d="m60.186 306.811c-3.023 0-5.872-1.841-7.011-4.835-1.473-3.872.472-8.204 4.343-9.676l12.79-4.865c3.869-1.474 8.204.471 9.677 4.343s-.472 8.204-4.343 9.676l-12.79 4.865c-.878.333-1.779.492-2.666.492z"/></g><g><path d="m176.192 243.1c-.487 0-.981-.048-1.478-.147l-13.419-2.682c-4.062-.812-6.696-4.762-5.885-8.824.813-4.062 4.765-6.698 8.824-5.885l13.419 2.682c4.062.812 6.696 4.762 5.885 8.824-.713 3.566-3.843 6.032-7.346 6.032z"/></g><g><path d="m53.509 372.293c-.544 0-1.097-.06-1.649-.184-4.042-.907-6.582-4.919-5.676-8.96l2.997-13.352c.908-4.042 4.924-6.581 8.961-5.675 4.042.907 6.582 4.919 5.676 8.96l-2.997 13.352c-.784 3.489-3.88 5.859-7.312 5.859z"/></g><g><path d="m82.076 417.578c-.468 0-.941-.044-1.418-.135l-13.44-2.571c-4.068-.778-6.735-4.708-5.957-8.776.776-4.068 4.693-6.737 8.775-5.958l13.44 2.571c4.068.778 6.735 4.708 5.957 8.776-.686 3.593-3.83 6.093-7.357 6.093z"/></g><g><path d="m123.221 461.951c-3.454 0-6.562-2.399-7.323-5.912l-2.899-13.373c-.877-4.048 1.692-8.042 5.741-8.919 4.045-.878 8.041 1.692 8.919 5.74l2.899 13.373c.877 4.048-1.692 8.042-5.741 8.919-.535.116-1.07.172-1.596.172z"/></g><g><path d="m182.65 473.46c-.813 0-1.641-.133-2.453-.415l-12.932-4.476c-3.914-1.354-5.989-5.626-4.635-9.541 1.355-3.914 5.625-5.99 9.541-4.634l12.932 4.476c3.914 1.354 5.989 5.626 4.635 9.541-1.075 3.103-3.98 5.049-7.088 5.049z"/></g><g><path d="m230.087 454.88c-3.336 0-6.379-2.241-7.255-5.62l-3.434-13.246c-1.04-4.01 1.368-8.103 5.378-9.142 4.016-1.041 8.103 1.37 9.142 5.378l3.434 13.246c1.04 4.01-1.368 8.103-5.378 9.142-.631.164-1.265.242-1.887.242z"/></g><g><path d="m261.254 409.862c-1.757 0-3.52-.613-4.943-1.862-3.114-2.732-3.423-7.471-.691-10.584l9.025-10.286c2.731-3.114 7.472-3.421 10.584-.691 3.114 2.732 3.423 7.471.691 10.584l-9.025 10.286c-1.483 1.69-3.557 2.553-5.641 2.553z"/></g><g><path d="m287.007 356.325c-.813 0-1.641-.133-2.452-.414l-12.932-4.475c-3.915-1.354-5.99-5.626-4.636-9.541 1.354-3.914 5.628-5.989 9.54-4.635l12.932 4.475c3.915 1.354 5.99 5.626 4.636 9.541-1.073 3.101-3.98 5.049-7.088 5.049z"/></g><g><path d="m339.59 7.651c-1.47 19.43-13.47 39.19-31.67 44.45-11.49 3.31-22 8.19-27.33 19.46-5.1 10.79-5.3 23.54-14.28 32.37-2.97 2.93-6.81 4.82-10.39 6.86-7.13 4.07-15.19 7.32-19.3 14.95-6.82 12.67-2.79 26.58-13.33 37.39-8.34 8.54-19.42 11.38-30.81 11.65-.35-4.25-.53-8.55-.53-12.89 0-83.01 65.5-150.71 147.64-154.24z" fill="#0078c8"/></g><path d="m346.337 0c-13.198-.002-26.935 1.705-39.727 4.943-22.963 5.813-44.583 16.793-62.885 31.827-28.755 23.62-46.835 52.735-55.138 88.64-3.746 16.203-4.913 33.051-3.606 49.623.009.12.013.241.023.362.002.026.008.05.01.076.406 4.836 1.02 9.614 1.841 14.322-6.874-.901-13.877-1.382-20.993-1.382-42.51 0-82.67 16.351-113.083 46.041-2.964 2.894-3.021 7.642-.127 10.606 2.893 2.963 7.639 3.021 10.605.127 27.594-26.938 64.033-41.774 102.604-41.774 8.364 0 16.562.718 24.547 2.071 15.821 56.523 61.617 100.651 119.09 114.076 2.124 9.92 3.257 20.203 3.257 30.748 0 80.998-65.896 146.895-146.895 146.895-80.997 0-146.894-65.896-146.894-146.895 0-28.304 8.064-55.779 23.321-79.456 2.243-3.482 1.239-8.124-2.242-10.367-3.482-2.243-8.122-1.24-10.367 2.242-16.821 26.104-25.712 56.39-25.712 87.581 0 89.269 72.625 161.895 161.894 161.895s161.895-72.625 161.895-161.895c0-9.505-.832-18.818-2.416-27.876 6.875.894 13.882 1.36 20.996 1.36 89.269 0 161.894-72.625 161.894-161.895 0-23.132-7.388-51.022-18.127-71.682-9.262-17.818-21.563-34.219-36.508-47.668-21.564-19.408-48.112-34.183-76.769-39.666-10.037-1.92-20.284-2.878-30.488-2.879zm-22.946 16.797c1.288-.204 2.57-.303 3.851-.552.415-.081 3.33-.248 3.371-.402-3.391 12.814-11.993 25.358-24.769 29.051-11.286 3.251-25.127 8.856-32.035 23.462-2.064 4.368-3.359 8.798-4.612 13.082-2.012 6.88-3.749 12.822-8.154 17.153-5.491 5.399-13.884 7.922-20.23 12.206-4.405 2.973-8.257 6.673-10.797 11.389-3.468 6.444-4.57 12.962-5.543 18.713-1.175 6.946-2.104 12.433-6.549 16.992-4.576 4.686-10.634 7.585-18.395 8.78-.001-.029-.002-.057-.003-.086-.05-1.569-.076-3.136-.082-4.709-.101-24.196 6.321-49.066 17.963-70.319 5.711-10.426 12.692-20.152 20.731-28.909 8.024-8.74 17.1-16.512 26.975-23.089 9.968-6.639 20.746-12.057 32.027-16.078 8.412-3 17.364-5.276 26.251-6.684zm22.946 291.992c-74.298 0-135.881-55.449-145.562-127.137 11.534-1.558 20.707-5.936 27.884-13.285 7.718-7.916 9.25-16.974 10.603-24.966.855-5.058 1.663-9.834 3.96-14.103 2.353-4.366 7.1-6.927 12.597-9.893 5.606-3.023 11.044-5.498 15.749-10.126 9.745-9.584 10.26-22.795 15.802-34.511 3.478-7.352 10.032-11.831 22.632-15.461 18.098-5.23 32.306-22.954 36.193-44.304.047 0 .094-.002.142-.002 80.997 0 146.894 65.896 146.894 146.894 0 80.997-65.897 146.894-146.894 146.894z"/></g></svg>