<svg id="Capa_1" enable-background="new 0 0 512 512" height="512" viewBox="0 0 512 512" width="512" xmlns="http://www.w3.org/2000/svg"><g><g><path d="m343.724 37.519c-2.615-17.266-17.446-30.032-34.909-30.032h-105.63c-17.463 0-32.294 12.766-34.909 30.032-8.78 57.978-20.601 183.141-22.889 283.137-.435 19.018 16.264 34.079 35.287 34.079h150.652c19.023 0 35.722-15.061 35.287-34.079-2.289-99.996-14.109-225.159-22.889-283.137z" fill="#fee45a"/></g><g><path d="m366.608 320.652c.439 19.019-16.263 34.084-35.282 34.084h-19.568c19.029 0 35.721-15.065 35.292-34.084-2.286-99.996-14.107-225.16-22.892-283.134-2.616-17.262-17.441-30.031-34.913-30.031h19.568c17.461 0 32.297 12.769 34.913 30.031 8.775 57.974 20.596 183.138 22.882 283.134z" fill="#fedf30"/></g><g><g><path d="m218.933 312.205c-9.666 0-17.503-7.836-17.503-17.503v-227.182c0-9.666 7.836-17.503 17.503-17.503 9.666 0 17.503 7.836 17.503 17.503v227.182c-.001 9.667-7.837 17.503-17.503 17.503z" fill="#fac600"/></g><g><path d="m293.067 312.205c-9.666 0-17.503-7.836-17.503-17.503v-227.182c0-9.666 7.836-17.503 17.503-17.503 9.666 0 17.503 7.836 17.503 17.503v227.182c0 9.667-7.836 17.503-17.503 17.503z" fill="#fac600"/></g></g><g><g><path d="m236.432 67.518v227.186c0 9.664-7.837 17.501-17.501 17.501-3.384 0-6.539-.958-9.215-2.626 4.972-3.085 8.286-8.596 8.286-14.876v-227.185c0-4.832-1.957-9.205-5.131-12.37-.949-.948-2.007-1.797-3.155-2.506 2.676-1.667 5.83-2.626 9.215-2.626 4.832 0 9.205 1.957 12.37 5.131 3.174 3.167 5.131 7.539 5.131 12.371z" fill="#e8b800"/></g><g><path d="m310.57 67.518v227.186c0 9.664-7.837 17.501-17.501 17.501-3.384 0-6.539-.958-9.215-2.626 4.972-3.085 8.286-8.596 8.286-14.876v-227.185c0-4.832-1.957-9.205-5.131-12.37-.949-.948-2.007-1.797-3.155-2.506 2.676-1.667 5.83-2.626 9.215-2.626 4.832 0 9.205 1.957 12.37 5.131 3.174 3.167 5.131 7.539 5.131 12.371z" fill="#e8b800"/></g></g><g><g><path d="m256 504.512c-12.822 0-23.217-10.395-23.217-23.217v-126.562h46.434v126.563c0 12.822-10.395 23.216-23.217 23.216z" fill="#f4d7c8"/></g><g><path d="m279.222 354.738v126.56c0 12.819-10.403 23.212-23.222 23.212-3.574 0-6.959-.809-9.984-2.246 7.827-3.734 13.238-11.721 13.238-20.966v-126.56z" fill="#ecbba3"/></g><g><path d="m218.933 42.53c-13.78 0-24.99 11.211-24.99 24.99v227.182c0 13.78 11.211 24.991 24.99 24.991 13.78 0 24.99-11.211 24.99-24.991v-227.182c0-13.779-11.211-24.99-24.99-24.99zm10.014 252.172c0 5.523-4.493 10.015-10.015 10.015s-10.015-4.493-10.015-10.015v-227.182c0-5.522 4.493-10.015 10.015-10.015s10.015 4.493 10.015 10.015z"/><path d="m293.067 42.53c-13.78 0-24.99 11.211-24.99 24.99v227.182c0 13.78 11.211 24.991 24.99 24.991 13.78 0 24.99-11.211 24.99-24.991v-136.987c0-4.135-3.352-7.488-7.488-7.488-4.135 0-7.488 3.352-7.488 7.488v136.987c0 5.523-4.493 10.015-10.015 10.015s-10.015-4.493-10.015-10.015v-227.182c0-5.522 4.493-10.015 10.015-10.015s10.015 4.493 10.015 10.015v54.949c0 4.135 3.352 7.488 7.488 7.488 4.135 0 7.488-3.352 7.488-7.488v-54.949c.001-13.779-11.21-24.99-24.99-24.99z"/><path d="m351.127 36.398c-3.194-21.09-20.989-36.398-42.312-36.398h-105.629c-21.323 0-39.118 15.308-42.312 36.398-9.331 61.617-20.767 187.751-22.972 284.087-.243 10.617 3.836 20.774 11.486 28.601 8.16 8.349 19.563 13.136 31.287 13.136h44.621v51.288c0 4.135 3.352 7.488 7.488 7.488s7.488-3.352 7.488-7.488v-51.288h31.458v119.073c0 8.673-7.056 15.729-15.729 15.729s-15.729-7.056-15.729-15.729v-33.09c0-4.135-3.352-7.488-7.488-7.488s-7.488 3.353-7.488 7.488v33.09c0 16.931 13.773 30.705 30.704 30.705s30.704-13.774 30.704-30.704v-119.073h44.621c11.723 0 23.127-4.788 31.287-13.136 7.65-7.828 11.729-17.985 11.486-28.601-2.204-96.337-13.64-222.471-22.971-284.088zm.776 302.221c-5.359 5.484-12.86 8.629-20.577 8.629h-150.652c-7.717 0-15.218-3.145-20.577-8.629-4.809-4.92-7.375-11.238-7.224-17.792 2.191-95.745 13.545-221.024 22.807-282.187 2.077-13.713 13.645-23.665 27.506-23.665h105.629c13.861 0 25.429 9.952 27.505 23.665 9.263 61.162 20.616 186.441 22.807 282.187.15 6.553-2.415 12.872-7.224 17.792z"/></g></g></g></svg>