<?xml version="1.0" encoding="iso-8859-1"?>
<!-- Generator: Adobe Illustrator 19.0.0, SVG Export Plug-In . SVG Version: 6.00 Build 0)  -->
<svg xmlns="http://www.w3.org/2000/svg" xmlns:xlink="http://www.w3.org/1999/xlink" version="1.1" id="Layer_1" x="0px" y="0px" viewBox="0 0 512 512" style="enable-background:new 0 0 512 512;" xml:space="preserve" width="512" height="512">
<g id="XMLID_610_">
	<g id="XMLID_611_">
		<path id="XMLID_612_" style="fill:#EFA66F;" d="M398.14,455.14v38.58c0,5.95-4.83,10.78-10.78,10.78H124.64    c-5.95,0-10.78-4.83-10.78-10.78v-38.58H398.14z"/>
		<rect id="XMLID_613_" x="113.86" y="455.14" style="fill:#E88F52;" width="284.28" height="22.66"/>
		<g id="XMLID_614_">
			<path id="XMLID_615_" style="fill:#B7F1FF;" d="M396.664,139.725c6.06,0,10.727,5.347,9.908,11.351l-37.708,276.409H143.136     l-37.708-276.409c-0.819-6.004,3.848-11.351,9.908-11.351H396.664z"/>
			<polygon id="XMLID_616_" style="fill:#A86552;" points="402.01,184.53 372.46,401.08 368.86,427.49 143.14,427.49 139.54,401.08      109.99,184.53    "/>
			<polygon id="XMLID_617_" style="fill:#915040;" points="143.14,427.49 139.54,401.08 372.46,401.08 368.86,427.49    "/>
			<path id="XMLID_1416_" style="fill:#F4BC8E;" d="M97.65,465.796H414.35c13.82,0,25.023-11.203,25.023-25.023v-20.183     c0-4.146-3.361-7.507-7.507-7.507H80.134c-4.146,0-7.507,3.361-7.507,7.507v20.183C72.627,454.592,83.83,465.796,97.65,465.796z"/>
		</g>
	</g>
	<g id="XMLID_618_">
		<path id="XMLID_619_" d="M431.866,405.582h-52.448l16.958-124.307c0.56-4.104-2.313-7.885-6.418-8.445    c-4.096-0.559-7.885,2.313-8.445,6.418l-17.235,126.334H208.261c-4.142,0-7.5,3.357-7.5,7.5s3.358,7.5,7.5,7.5l223.612,0.008    v20.183c0,9.662-7.861,17.523-17.523,17.523H97.65c-9.663,0-17.523-7.861-17.523-17.523l0.007-20.19h93.605    c4.142,0,7.5-3.357,7.5-7.5s-3.358-7.5-7.5-7.5h-26.018l-29.134-213.555h274.826l-7.189,52.697    c-0.56,4.104,2.313,7.885,6.418,8.444c0.344,0.048,0.686,0.07,1.023,0.07c3.691,0,6.908-2.728,7.421-6.487l12.916-94.666    c0.683-5.009-0.833-10.065-4.157-13.873c-3.323-3.808-8.129-5.991-13.183-5.991H203.261c-4.142,0-7.5,3.357-7.5,7.5    s3.358,7.5,7.5,7.5h193.401c0.988,0,1.604,0.536,1.883,0.855c0.279,0.32,0.728,1.003,0.594,1.982l-3.679,26.968H116.54    l-3.679-26.968c-0.134-0.979,0.314-1.662,0.593-1.981c0.279-0.32,0.895-0.856,1.884-0.856h53.4c4.142,0,7.5-3.357,7.5-7.5    s-3.358-7.5-7.5-7.5h-53.4c-5.055,0-9.861,2.185-13.185,5.992c-3.324,3.809-4.838,8.865-4.155,13.873l34.583,253.495H80.134    c-8.275,0-15.007,6.732-15.007,15.008v20.183c0,17.934,14.59,32.523,32.523,32.523h8.71v20.426c0,10.079,8.2,18.278,18.279,18.278    H387.36c10.079,0,18.279-8.199,18.279-18.278v-20.426h8.71c17.934,0,32.523-14.59,32.523-32.523V420.59    C446.873,412.314,440.141,405.582,431.866,405.582z M390.64,493.721c0,1.808-1.471,3.278-3.279,3.278H124.639    c-1.808,0-3.279-1.471-3.279-3.278v-20.426H390.64V493.721z"/>
		<path id="XMLID_622_" d="M179.745,103.79c1.919,0,3.839-0.732,5.303-2.196c2.929-2.929,2.929-7.678,0-10.606    c-3.331-3.331-3.331-8.752,0-12.082l43.414-43.414c9.178-9.179,9.178-24.115,0-33.294c-2.929-2.93-7.678-2.929-10.607-0.001    c-2.929,2.929-2.929,7.678,0,10.606c3.331,3.331,3.331,8.752,0,12.082l-43.414,43.414c-9.178,9.179-9.178,24.115,0,33.294    C175.907,103.057,177.826,103.79,179.745,103.79z"/>
		<path id="XMLID_623_" d="M274.905,18.844c0,2.282-0.889,4.428-2.503,6.041L228.99,68.299c-9.178,9.179-9.178,24.115,0,33.294    c1.465,1.465,3.384,2.197,5.304,2.197s3.839-0.732,5.303-2.196c2.929-2.929,2.929-7.678,0-10.606    c-3.331-3.331-3.331-8.752,0-12.082l43.413-43.413c9.179-9.18,9.179-24.116,0-33.296c-2.93-2.928-7.678-2.928-10.607,0    c-2.929,2.93-2.929,7.678,0,10.607C274.016,14.417,274.905,16.562,274.905,18.844z"/>
		<path id="XMLID_624_" d="M329.453,18.844c0,2.282-0.889,4.428-2.503,6.041l-43.413,43.414c-9.178,9.179-9.178,24.115,0,33.294    c1.465,1.465,3.384,2.197,5.304,2.197c1.919,0,3.839-0.732,5.303-2.196c2.93-2.929,2.93-7.678,0.001-10.606    c-3.331-3.331-3.331-8.752,0-12.082l43.413-43.413c9.179-9.18,9.179-24.116,0-33.296c-2.93-2.928-7.678-2.928-10.607,0    c-2.929,2.93-2.929,7.678,0,10.607C328.564,14.417,329.453,16.562,329.453,18.844z"/>
		<path id="XMLID_625_" d="M205.728,227.759c-4.136,0.216-7.315,3.744-7.099,7.881l7.141,137c0.208,4.004,3.52,7.109,7.483,7.109    c0.131,0,0.264-0.003,0.397-0.01c4.136-0.216,7.315-3.744,7.099-7.881l-7.141-137    C213.392,230.721,209.868,227.546,205.728,227.759z"/>
		<path id="XMLID_626_" d="M298.391,234.858l-7.142,137c-0.215,4.137,2.963,7.665,7.1,7.881c0.133,0.007,0.266,0.01,0.397,0.01    c3.963,0,7.274-3.106,7.483-7.109l7.142-137c0.215-4.137-2.963-7.665-7.1-7.881C302.144,227.535,298.607,230.721,298.391,234.858z    "/>
	</g>
</g>















</svg>
