<svg id="Capa_1" enable-background="new 0 0 512.804 512.804" height="512" viewBox="0 0 512.804 512.804" width="512" xmlns="http://www.w3.org/2000/svg"><g><g><path d="m328.354 30.672v301.435c0 12.798-10.375 23.172-23.172 23.172h-97.56c-12.798 0-23.172-10.375-23.172-23.172v-301.435c0-12.798 10.375-23.172 23.172-23.172h97.56c12.797 0 23.172 10.375 23.172 23.172z" fill="#c8effe"/></g><g><path d="m328.352 30.671v301.44c0 12.79-10.37 23.17-23.17 23.17h-20c12.8 0 23.17-10.38 23.17-23.17v-301.44c0-12.8-10.37-23.17-23.17-23.17h20c12.8 0 23.17 10.37 23.17 23.17z" fill="#99e6fc"/></g><g><g><path d="m256.402 505.304c-12.843 0-23.255-10.412-23.255-23.255v-126.772h46.51v126.771c0 12.844-10.412 23.256-23.255 23.256z" fill="#f4d7c8"/></g><g><path d="m279.662 355.282v126.768c0 12.84-10.42 23.25-23.26 23.25-3.58 0-6.97-.81-10-2.25 7.84-3.74 13.26-11.74 13.26-21v-126.768z" fill="#ecbba3"/></g></g><g><g><path d="m342.109 92.989c0 14.883-13.796 25.929-28.318 22.675l-124.941-23.398c-10.612-2.378-18.155-11.799-18.155-22.675v-.007c0-14.883 13.797-25.93 28.32-22.674l124.941 23.404c10.611 2.38 18.153 11.8 18.153 22.675z" fill="#e94444"/></g><g><path d="m342.109 193.084v.016c0 14.883-13.797 25.93-28.32 22.674l-124.941-23.404c-10.612-2.379-18.154-11.799-18.154-22.674v-.01c0-14.883 13.796-25.929 28.318-22.675l124.941 23.398c10.613 2.379 18.156 11.799 18.156 22.675z" fill="#e94444"/></g><g><path d="m342.109 293.195c0 14.883-13.796 25.929-28.318 22.675l-124.941-23.398c-10.612-2.378-18.155-11.799-18.155-22.674v-.007c0-14.883 13.797-25.93 28.32-22.674l124.941 23.404c10.611 2.379 18.153 11.799 18.153 22.674z" fill="#e94444"/></g></g><g><g><path d="m342.112 92.991c0 14.88-13.8 25.93-28.32 22.67l-22.6-4.53c14.52 3.25 28.32-7.79 28.32-22.68 0-9.87-6.22-18.54-15.3-21.84l19.74 3.7c10.61 2.38 18.16 11.8 18.16 22.68z" fill="#d83131"/></g><g><path d="m342.112 193.081v.02c0 14.88-13.8 25.93-28.32 22.67l-22.6-4.53c14.52 3.25 28.32-7.79 28.32-22.68v-.01c0-9.86-6.19-18.52-15.26-21.83l19.7 3.69c10.61 2.38 18.16 11.8 18.16 22.67z" fill="#d83131"/></g><g><path d="m342.112 293.191c0 14.89-13.8 25.93-28.32 22.68l-22.6-4.54c14.52 3.26 28.32-7.79 28.32-22.67 0-9.86-6.19-18.51-15.24-21.83l19.68 3.69c10.61 2.38 18.16 11.8 18.16 22.67z" fill="#d83131"/></g></g><path d="m335.854 167.433v-48.827c.761-.506 1.506-1.044 2.229-1.623 7.325-5.865 11.526-14.61 11.526-23.994 0-10.64-5.328-20.111-13.755-25.651v-36.666c0-16.912-13.76-30.672-30.673-30.672h-97.56c-16.913 0-30.672 13.76-30.672 30.672v13.304c-.76.506-1.507 1.037-2.229 1.614-7.325 5.865-11.526 14.61-11.526 24.001 0 10.64 5.328 20.111 13.755 25.651v48.835c-.76.506-1.508 1.037-2.229 1.615-7.324 5.865-11.525 14.61-11.525 24.003 0 10.639 5.328 20.111 13.755 25.651v48.836c-.76.506-1.508 1.037-2.229 1.615-7.325 5.865-11.526 14.61-11.526 24 0 10.64 5.328 20.111 13.755 25.651v36.66c0 16.913 13.76 30.672 30.672 30.672h18.025v21.125c0 4.142 3.358 7.5 7.5 7.5s7.5-3.358 7.5-7.5v-21.125h31.51v119.269c0 8.688-7.067 15.755-15.755 15.755s-15.755-7.067-15.755-15.755v-63.443c0-4.142-3.358-7.5-7.5-7.5s-7.5 3.358-7.5 7.5v63.443c0 16.958 13.796 30.755 30.755 30.755s30.755-13.796 30.755-30.755v-119.269h18.024c16.913 0 30.673-13.759 30.673-30.672v-13.296c.762-.506 1.507-1.045 2.229-1.623 7.324-5.865 11.525-14.61 11.525-23.994 0-10.639-5.328-20.111-13.755-25.651v-48.828c.761-.506 1.506-1.044 2.229-1.622 7.325-5.865 11.526-14.611 11.526-23.995v-.016c.001-10.639-5.327-20.11-13.754-25.65zm-15 164.675c0 8.642-7.031 15.672-15.673 15.672h-97.56c-8.642 0-15.672-7.03-15.672-15.672v-31.425l120.339 22.536c2.208.484 4.432.723 6.639.723.645 0 1.286-.041 1.927-.081zm7.854-26.629c-3.75 3.002-8.588 4.122-13.276 3.072-.087-.02-.173-.037-.26-.054l-124.799-23.371c-7.176-1.664-12.178-7.951-12.178-15.336 0-4.804 2.151-9.282 5.901-12.285 3.751-3.003 8.594-4.122 13.278-3.071.086.02.173.037.26.053l124.797 23.377c7.177 1.664 12.179 7.951 12.179 15.33-.001 4.806-2.151 9.283-5.902 12.285zm-136.759-66.373v-38.526l120.337 22.542c2.208.485 4.433.724 6.641.724.645 0 1.286-.041 1.927-.081v38.545l-120.338-22.542c-2.853-.626-5.732-.84-8.567-.662zm142.66-46.006c0 4.805-2.151 9.282-5.901 12.285-3.75 3.002-8.591 4.122-13.277 3.071-.086-.02-.173-.037-.26-.053l-124.798-23.377c-7.176-1.664-12.178-7.951-12.178-15.339 0-4.804 2.151-9.282 5.901-12.284 3.75-3.003 8.589-4.121 13.277-3.072.086.02.173.037.26.054l124.798 23.371c7.177 1.664 12.179 7.95 12.179 15.33v.014zm-142.66-54.098v-38.525l120.339 22.536c2.208.484 4.432.723 6.639.723.645 0 1.286-.041 1.927-.081v38.544l-120.34-22.535c-2.851-.627-5.731-.841-8.565-.662zm136.759-33.729c-3.75 3.002-8.588 4.122-13.276 3.072-.087-.02-.173-.037-.26-.054l-124.799-23.371c-7.176-1.664-12.178-7.95-12.178-15.336 0-4.804 2.151-9.282 5.901-12.285 3.75-3.002 8.591-4.123 13.277-3.071.086.02.173.037.26.053l61.642 11.547c4.072.765 7.989-1.919 8.753-5.991.763-4.071-1.92-7.99-5.991-8.752l-61.52-11.524c-2.853-.626-5.733-.841-8.567-.662v-8.227c0-8.642 7.031-15.672 15.672-15.672h97.56c8.642 0 15.673 7.031 15.673 15.672v31.432l-24.816-4.649c-4.064-.76-7.989 1.918-8.753 5.991-.763 4.071 1.92 7.99 5.991 8.752l29.154 5.462c7.177 1.664 12.179 7.95 12.179 15.329-.001 4.804-2.151 9.282-5.902 12.284z"/></g></svg>