<svg id="Capa_1" enable-background="new 0 0 512 512" height="512" viewBox="0 0 512 512" width="512" xmlns="http://www.w3.org/2000/svg"><g><path d="m173.168 57.2c-36.598 0-66.267 29.669-66.267 66.267v265.067c0 36.598 29.669 66.267 66.267 66.267h165.664c36.598 0 66.267-29.669 66.267-66.267v-265.067c0-36.598-29.669-66.267-66.267-66.267z" fill="#f4dbb3"/><path d="m338.832 57.2h-23c36.598 0 66.267 29.669 66.267 66.267v265.067c0 36.598-29.669 66.267-66.267 66.267h23c36.598 0 66.267-29.669 66.267-66.267v-265.067c0-36.598-29.669-66.267-66.267-66.267z" fill="#eac89f"/><g><g><path d="m321.657 413.383c18.396 0 33.911-15.052 33.74-33.447-.069-7.383-2.555-14.185-6.702-19.66-2.202-2.908-2.168-6.88.03-9.791 4.188-5.546 6.674-12.449 6.674-19.935 0-7.485-2.485-14.386-6.672-19.932-2.21-2.927-2.21-6.909 0-9.836 4.187-5.546 6.672-12.447 6.672-19.932s-2.485-14.386-6.672-19.932c-2.21-2.927-2.21-6.909 0-9.836 4.187-5.546 6.672-12.447 6.672-19.932s-2.485-14.386-6.672-19.932c-2.21-2.927-2.21-6.909 0-9.836 4.187-5.546 6.672-12.447 6.672-19.932 0-7.486-2.486-14.388-6.674-19.935-2.198-2.911-2.232-6.884-.03-9.791 4.148-5.475 6.634-12.277 6.702-19.66.171-18.395-15.344-33.447-33.74-33.447h-131.316c-18.396 0-33.911 15.052-33.74 33.447.069 7.383 2.555 14.185 6.702 19.66 2.202 2.908 2.169 6.88-.03 9.791-4.188 5.546-6.674 12.449-6.674 19.935 0 7.485 2.485 14.386 6.672 19.932 2.21 2.927 2.21 6.909 0 9.836-4.187 5.546-6.672 12.447-6.672 19.932s2.485 14.386 6.672 19.932c2.21 2.927 2.21 6.909 0 9.836-4.187 5.546-6.672 12.447-6.672 19.932s2.485 14.386 6.672 19.932c2.21 2.927 2.21 6.909 0 9.836-4.187 5.546-6.672 12.447-6.672 19.932 0 7.486 2.486 14.389 6.674 19.935 2.198 2.911 2.232 6.884.03 9.791-4.148 5.475-6.634 12.277-6.702 19.66-.171 18.396 15.344 33.447 33.74 33.447z" fill="#b3e59f"/><path d="m355.399 231.15c0-7.485-2.485-14.386-6.672-19.932-2.21-2.927-2.21-6.909 0-9.836 4.187-5.546 6.672-12.447 6.672-19.932 0-7.486-2.486-14.388-6.674-19.935-2.198-2.911-2.232-6.884-.03-9.791 4.148-5.475 6.634-12.277 6.702-19.66.171-18.395-15.344-33.447-33.74-33.447h-22.729c18.396 0 33.911 15.052 33.74 33.447-.069 7.383-2.555 14.185-6.702 19.66-2.203 2.908-2.169 6.88.03 9.791 4.188 5.546 6.674 12.449 6.674 19.935 0 7.485-2.485 14.386-6.672 19.932-2.21 2.927-2.21 6.909 0 9.836 4.187 5.546 6.672 12.447 6.672 19.932s-2.485 14.386-6.672 19.932c-2.21 2.927-2.21 6.909 0 9.836 4.187 5.546 6.672 12.447 6.672 19.932s-2.485 14.387-6.672 19.932c-2.21 2.927-2.21 6.909 0 9.836 4.187 5.546 6.672 12.447 6.672 19.932 0 7.486-2.486 14.389-6.674 19.935-2.198 2.911-2.232 6.884-.03 9.791 4.147 5.475 6.634 12.277 6.702 19.66.171 18.396-15.344 33.447-33.74 33.447h22.729c18.396 0 33.911-15.052 33.74-33.447-.069-7.383-2.555-14.185-6.702-19.66-2.202-2.908-2.168-6.88.03-9.791 4.188-5.546 6.674-12.449 6.674-19.935 0-7.485-2.485-14.386-6.672-19.932-2.21-2.927-2.21-6.909 0-9.836 4.187-5.546 6.672-12.447 6.672-19.932s-2.485-14.386-6.672-19.932c-2.21-2.927-2.21-6.909 0-9.836 4.187-5.546 6.672-12.447 6.672-19.932z" fill="#8ad689"/></g></g><path d="m206.299 454.8c0 27.449 22.251 49.7 49.7 49.7s49.7-22.251 49.7-49.7v-397.6c0-27.449-22.251-49.7-49.7-49.7s-49.7 22.251-49.7 49.7z" fill="#e55964"/><g><g><path d="m272.565 435.662h-33.133c-4.143 0-7.5-3.358-7.5-7.5s3.357-7.5 7.5-7.5h33.133c4.143 0 7.5 3.358 7.5 7.5s-3.357 7.5-7.5 7.5z" fill="#e55964"/></g></g><g><path d="m264.274 405.104c-7.209 0-13.842-4.742-15.921-12.02l-11.622-40.678c-4.085-14.299-4.085-29.413 0-43.712l6.269-21.942c2.581-9.034 2.375-18.52-.596-27.434l-3.108-9.323c-5.943-17.83-5.372-37.257 1.608-54.705 3.8-9.502 4.345-20.154 1.534-29.995l-10.651-37.278c-2.514-8.797 2.581-17.967 11.378-20.481 8.798-2.509 17.967 2.581 20.48 11.379l10.651 37.278c4.818 16.864 3.884 35.118-2.629 51.403-4.072 10.181-4.406 21.518-.938 31.921l3.108 9.323c5.092 15.275 5.445 31.532 1.022 47.014l-6.269 21.942c-2.384 8.343-2.384 17.164 0 25.507l11.622 40.679c2.514 8.798-2.581 17.967-11.378 20.481-1.521.434-3.053.641-4.56.641z" fill="#ffd97d"/><path d="m280.211 383.982-11.622-40.679c-2.384-8.343-2.384-17.164 0-25.507l6.269-21.942c4.423-15.483 4.07-31.739-1.022-47.014l-3.108-9.323c-3.468-10.403-3.135-21.74.938-31.921 6.513-16.285 7.447-34.539 2.629-51.403l-10.651-37.278c-2.513-8.798-11.682-13.887-20.48-11.379-2.632.752-4.923 2.109-6.788 3.864 2.114 1.98 3.748 4.526 4.601 7.514l10.651 37.278c4.818 16.864 3.884 35.118-2.629 51.403-4.072 10.181-4.406 21.518-.938 31.921l3.108 9.323c5.092 15.276 5.445 31.532 1.022 47.014l-6.269 21.942c-2.384 8.343-2.384 17.164 0 25.507l11.622 40.679c1.762 6.168-.224 12.509-4.595 16.621 3.035 2.843 7.075 4.501 11.325 4.501 1.507 0 3.038-.207 4.559-.641 8.798-2.513 13.892-11.682 11.378-20.48z" fill="#ffc269"/></g><path d="m255.999 7.5c-4.032 0-7.947.492-11.7 1.398 21.801 5.263 38 24.885 38 48.302v397.6c0 23.417-16.2 43.039-38 48.302 3.753.906 7.668 1.398 11.7 1.398 27.448 0 49.7-22.251 49.7-49.7v-397.6c0-27.448-22.251-49.7-49.7-49.7z" fill="#e55964"/></g><g><path d="m405.099 314.767c4.143 0 7.5-3.358 7.5-7.5v-183.8c0-19.704-7.673-38.229-21.605-52.161-13.933-13.933-32.458-21.606-52.162-21.606h-26.14c-3.687-28.006-27.696-49.7-56.693-49.7s-53.006 21.694-56.693 49.7h-26.138c-40.675 0-73.767 33.091-73.767 73.767v265.066c0 19.704 7.673 38.228 21.605 52.161 13.934 13.933 32.458 21.606 52.161 21.605h26.138c3.687 28.006 27.696 49.7 56.693 49.7s53.006-21.694 56.693-49.7h26.14c40.675 0 73.767-33.091 73.767-73.767v-51.267c0-4.142-3.357-7.5-7.5-7.5s-7.5 3.358-7.5 7.5v51.267c0 32.404-26.362 58.767-58.767 58.767h-25.628v-26.417h9.061c22.405 0 40.634-18.228 40.634-40.633 0-9.057-3.033-17.786-8.495-24.85 5.462-7.064 8.495-15.793 8.495-24.85 0-9.056-3.033-17.786-8.496-24.85 5.462-7.064 8.496-15.794 8.496-24.85 0-9.057-3.033-17.786-8.495-24.85 5.462-7.064 8.495-15.793 8.495-24.85 0-9.056-3.034-17.786-8.496-24.85 5.463-7.063 8.496-15.794 8.496-24.85 0-9.057-3.033-17.786-8.495-24.85 5.462-7.064 8.495-15.794 8.495-24.85 0-22.405-18.228-40.633-40.634-40.633h-9.061v-26.416h25.628c15.697 0 30.455 6.112 41.555 17.212s17.212 25.857 17.212 41.555v183.8c.001 4.142 3.358 7.5 7.501 7.5zm-273.485 115.321c-11.1-11.1-17.213-25.857-17.213-41.555v-265.066c0-32.404 26.362-58.767 58.767-58.767h25.631v26.417h-9.066c-22.405 0-40.634 18.228-40.634 40.633 0 9.057 3.033 17.786 8.495 24.85-5.462 7.064-8.495 15.794-8.495 24.85s3.033 17.786 8.496 24.85c-5.462 7.064-8.496 15.794-8.496 24.85 0 9.057 3.033 17.786 8.495 24.85-5.462 7.064-8.495 15.794-8.495 24.85s3.034 17.786 8.496 24.85c-5.463 7.064-8.496 15.794-8.496 24.85 0 9.057 3.033 17.786 8.495 24.85-5.462 7.064-8.495 15.793-8.495 24.85 0 22.405 18.229 40.633 40.634 40.633h9.066v26.417h-25.631c-15.697 0-30.454-6.112-41.554-17.212zm166.585 24.712c0 23.269-18.931 42.2-42.2 42.2s-42.2-18.931-42.2-42.2v-41.417-241.783-.1c0-4.142-3.357-7.5-7.5-7.5s-7.5 3.358-7.5 7.5v.1 234.283h-9.066c-14.135 0-25.634-11.499-25.634-25.633 0-6.45 2.444-12.638 6.778-17.35h2.29c4.143 0 7.5-3.358 7.5-7.5s-3.357-7.5-7.5-7.5h-2.29c-4.334-4.712-6.778-10.9-6.778-17.35s2.444-12.638 6.778-17.35h2.29c4.143 0 7.5-3.358 7.5-7.5s-3.357-7.5-7.5-7.5h-2.289c-4.335-4.712-6.779-10.9-6.779-17.35s2.444-12.638 6.778-17.35h2.29c4.143 0 7.5-3.358 7.5-7.5s-3.357-7.5-7.5-7.5h-2.29c-4.334-4.712-6.778-10.9-6.778-17.35s2.444-12.638 6.779-17.35h2.289c4.143 0 7.5-3.358 7.5-7.5s-3.357-7.5-7.5-7.5h-2.29c-4.334-4.712-6.778-10.9-6.778-17.35s2.444-12.638 6.778-17.35h2.29c4.143 0 7.5-3.358 7.5-7.5s-3.357-7.5-7.5-7.5h-2.29c-4.334-4.712-6.778-10.9-6.778-17.35 0-14.134 11.499-25.633 25.634-25.633h9.066v35.383.1c0 4.142 3.357 7.5 7.5 7.5s7.5-3.358 7.5-7.5v-.1-42.883-41.417c0-23.269 18.931-42.2 42.2-42.2s42.2 18.931 42.2 42.2v41.416 314.767zm24.067-348.683c14.135 0 25.634 11.499 25.634 25.633 0 6.45-2.444 12.638-6.778 17.35h-2.29c-4.143 0-7.5 3.358-7.5 7.5s3.357 7.5 7.5 7.5h2.29c4.334 4.712 6.778 10.9 6.778 17.35s-2.444 12.638-6.778 17.35h-2.29c-4.143 0-7.5 3.358-7.5 7.5s3.357 7.5 7.5 7.5h2.289c4.335 4.712 6.779 10.9 6.779 17.35s-2.444 12.638-6.778 17.35h-2.29c-4.143 0-7.5 3.358-7.5 7.5s3.357 7.5 7.5 7.5h2.29c4.334 4.712 6.778 10.9 6.778 17.35s-2.444 12.638-6.779 17.35h-2.289c-4.143 0-7.5 3.358-7.5 7.5s3.357 7.5 7.5 7.5h2.29c4.334 4.712 6.778 10.9 6.778 17.35s-2.444 12.638-6.778 17.35h-2.29c-4.143 0-7.5 3.358-7.5 7.5s3.357 7.5 7.5 7.5h2.29c4.334 4.712 6.778 10.9 6.778 17.35 0 14.134-11.499 25.633-25.634 25.633h-9.061v-299.766z"/><path d="m239.433 89.55h33.133c4.143 0 7.5-3.358 7.5-7.5s-3.357-7.5-7.5-7.5h-33.133c-4.143 0-7.5 3.358-7.5 7.5s3.357 7.5 7.5 7.5z"/><path d="m272.565 420.662h-33.133c-4.143 0-7.5 3.358-7.5 7.5s3.357 7.5 7.5 7.5h33.133c4.143 0 7.5-3.358 7.5-7.5s-3.357-7.5-7.5-7.5z"/><path d="m140.032 144.959c-4.143 0-7.5 3.358-7.5 7.5v8.283c0 4.142 3.357 7.5 7.5 7.5s7.5-3.358 7.5-7.5v-8.283c0-4.143-3.357-7.5-7.5-7.5z"/><path d="m140.032 343.758c-4.143 0-7.5 3.358-7.5 7.5v8.283c0 4.142 3.357 7.5 7.5 7.5s7.5-3.358 7.5-7.5v-8.283c0-4.142-3.357-7.5-7.5-7.5z"/><path d="m140.032 244.358c-4.143 0-7.5 3.358-7.5 7.5v8.283c0 4.142 3.357 7.5 7.5 7.5s7.5-3.358 7.5-7.5v-8.283c0-4.142-3.357-7.5-7.5-7.5z"/><path d="m379.466 152.459c0-4.142-3.357-7.5-7.5-7.5s-7.5 3.358-7.5 7.5v8.283c0 4.142 3.357 7.5 7.5 7.5s7.5-3.358 7.5-7.5z"/><path d="m371.966 343.758c-4.143 0-7.5 3.358-7.5 7.5v8.283c0 4.142 3.357 7.5 7.5 7.5s7.5-3.358 7.5-7.5v-8.283c0-4.142-3.358-7.5-7.5-7.5z"/><path d="m379.466 251.858c0-4.142-3.357-7.5-7.5-7.5s-7.5 3.358-7.5 7.5v8.283c0 4.142 3.357 7.5 7.5 7.5s7.5-3.358 7.5-7.5z"/><path d="m275.801 341.243c-1.999-6.996-1.999-14.391-.001-21.386l6.271-21.942c4.84-16.943 4.453-34.733-1.118-51.446l-3.108-9.323c-2.907-8.721-2.628-18.226.787-26.764 7.127-17.821 8.148-37.797 2.876-56.248l-10.65-37.277c-3.643-12.754-16.991-20.17-29.753-16.53-12.76 3.646-20.175 16.993-16.528 29.752l10.651 37.278c2.357 8.25 1.9 17.182-1.287 25.148-7.637 19.092-8.262 40.351-1.759 59.863l3.108 9.323c2.491 7.473 2.664 15.427.499 23.001l-6.268 21.941c-4.472 15.647-4.472 32.187 0 47.833l11.621 40.678c2.936 10.28 12.448 17.46 23.133 17.46 2.23 0 4.457-.313 6.62-.93 12.76-3.646 20.175-16.993 16.528-29.752zm-9.025 56.007c-.822.235-1.663.354-2.502.354-4.021 0-7.603-2.706-8.709-6.58l-11.623-40.679c-3.7-12.95-3.7-26.64.001-39.591l6.268-21.941c2.999-10.493 2.76-21.512-.691-31.866l-3.108-9.323c-5.383-16.149-4.865-33.746 1.456-49.548 4.415-11.038 5.048-23.411 1.781-34.841l-10.651-37.278c-.665-2.328-.384-4.776.793-6.893 1.176-2.117 3.106-3.649 5.431-4.314.829-.236 1.664-.349 2.487-.349 3.948 0 7.589 2.599 8.726 6.576l10.65 37.278c4.364 15.273 3.518 31.807-2.381 46.557-4.73 11.828-5.117 24.996-1.09 37.078l3.108 9.323c4.611 13.834 4.932 28.559.926 42.582l-6.271 21.942c-2.768 9.691-2.768 19.937.001 29.629l11.622 40.677c1.374 4.807-1.42 9.835-6.224 11.207z"/></g></svg>