<svg id="Capa_1" enable-background="new 0 0 512 512" height="512" viewBox="0 0 512 512" width="512" xmlns="http://www.w3.org/2000/svg"><g><g><path d="m317.112 42.842c2.237 0 4.05 1.813 4.05 4.05v39.292h26.507v-39.292c0-2.237 1.813-4.05 4.05-4.05 9.321 0 17.326-7.072 17.992-16.37.741-10.347-7.434-18.972-17.624-18.972-5.761 0-10.875 2.759-14.1 7.026-.849 1.124-2.155 1.809-3.563 1.809h-.016c-1.409 0-2.714-.686-3.563-1.809-3.225-4.267-8.339-7.026-14.1-7.026-9.924 0-17.938 8.182-17.664 18.168.263 9.625 8.402 17.174 18.031 17.174z" fill="#faf8fa"/><path d="m352.087 7.5c-4.395 0-8.409 1.609-11.5 4.264 4.077 3.501 6.546 8.823 6.124 14.708-.666 9.298-8.671 16.37-17.992 16.37-2.237 0-4.05 1.813-4.05 4.05v39.292h23v-39.292c0-2.237 1.813-4.05 4.05-4.05 9.321 0 17.326-7.072 17.992-16.37.741-10.347-7.434-18.972-17.624-18.972z" fill="#eceaec"/><path d="m207.629 189.734c.571-1.738.88-3.594.88-5.523 0-8.983 4.166-17.497 11.36-22.876 17.24-12.889 28.4-33.462 28.4-56.644 0-2.993 0-23.514 0-26.507 0-39.121-31.782-70.819-70.935-70.684-39.065.136-70.434 32.386-70.434 71.452v25.739c0 23.181 11.16 43.755 28.4 56.644 7.194 5.379 11.36 13.893 11.36 22.876 0 1.93.309 3.788.881 5.526v9.763h60.084z" fill="#966a5b"/><path d="m405.1 189.733v-14.358c0-23.181-11.16-43.755-28.4-56.644-7.194-5.379-11.36-13.893-11.36-22.876 0-9.759-7.912-17.671-17.671-17.671h-26.507c-9.759 0-17.671 7.912-17.671 17.671 0 8.983-4.166 17.497-11.36 22.876-17.24 12.889-28.4 33.463-28.4 56.644v14.358 9.767h141.369z" fill="#966a5b"/><g fill="#8a5a51"><path d="m177.334 7.501c-3.828.013-7.578.345-11.235.951 33.558 5.501 59.17 34.618 59.17 69.733v26.507c0 23.181-11.16 43.754-28.4 56.644-7.194 5.379-11.36 13.893-11.36 22.876 0 1.929-.309 3.785-.88 5.523l-.004 9.766h23l.004-9.766c.571-1.738.88-3.594.88-5.523 0-8.983 4.166-17.498 11.36-22.876 17.24-12.889 28.4-33.462 28.4-56.644 0-2.993 0-23.514 0-26.507 0-39.122-31.782-70.82-70.935-70.684z"/><path d="m376.7 118.732c-7.194-5.379-11.36-13.893-11.36-22.876 0-9.759-7.912-17.671-17.671-17.671h-22.499c9.759 0 17.671 7.912 17.671 17.671 0 8.983 4.165 17.497 11.36 22.876 17.24 12.889 28.4 33.462 28.4 56.644v14.358 9.767h22.499v-9.767-14.358c0-23.182-11.16-43.755-28.4-56.644z"/></g></g><path d="m421.667 239.433v-8h-331.334v8l15.596 249.533c.546 8.731 7.786 15.533 16.534 15.533h267.073c8.748 0 15.989-6.802 16.534-15.533z" fill="#e55964"/><path d="m398.667 231.433v8l-15.596 249.533c-.546 8.731-7.786 15.533-16.534 15.533h23c8.748 0 15.989-6.802 16.534-15.533l15.596-249.533v-8z" fill="#db404f"/><path d="m430.233 239.433h-348.466c-4.418 0-8-3.582-8-8v-33.7c0-4.418 3.582-8 8-8h348.467c4.418 0 8 3.582 8 8v33.7c-.001 4.419-3.582 8-8.001 8z" fill="#faf8fa"/><circle cx="256" cy="338.833" fill="#ffd97d" r="49.7"/><ellipse cx="256" cy="338.833" fill="#faf8fa" rx="16.567" ry="16.567" transform="matrix(.956 -.295 .295 .956 -88.438 90.426)"/><path d="m173.167 463.083v-16.567c0-4.575-3.709-8.283-8.283-8.283h-16.567c-4.575 0-8.283 3.709-8.283 8.283v16.567c0 4.575 3.709 8.283 8.283 8.283h16.567c4.574.001 8.283-3.708 8.283-8.283z" fill="#faf8fa"/><path d="m430.233 189.733h-23c4.418 0 8 3.582 8 8v33.7c0 4.418-3.582 8-8 8h23c4.418 0 8-3.582 8-8v-33.7c0-4.418-3.581-8-8-8z" fill="#eceaec"/></g><g><path d="m415.003 346.048c-4.134-.253-7.695 2.884-7.953 7.018l-8.465 135.434c-.298 4.767-4.273 8.5-9.049 8.5h-217.936c-4.142 0-7.5 3.358-7.5 7.5s3.358 7.5 7.5 7.5h217.936c12.68 0 23.229-9.912 24.02-22.565l8.465-135.433c.258-4.134-2.884-7.695-7.018-7.954z"/><path d="m430.233 182.233h-17.633v-6.858c0-24.892-11.448-47.727-31.408-62.65-5.229-3.91-8.352-10.216-8.352-16.87 0-11.268-7.443-20.83-17.671-24.03v-21.713c11.777-1.585 21.168-11.164 22.022-23.104.5-6.97-1.935-13.89-6.679-18.985-4.745-5.099-11.461-8.023-18.425-8.023-6.723 0-12.991 2.602-17.672 7.243-4.681-4.641-10.948-7.243-17.671-7.243-6.854 0-13.261 2.706-18.041 7.619-4.779 4.912-7.308 11.395-7.12 18.255.338 12.342 9.95 22.58 22.079 24.235v21.718c-10.228 3.199-17.671 12.761-17.671 24.03 0 6.653-3.122 12.96-8.352 16.87-19.96 14.924-31.408 37.759-31.408 62.65v6.858h-40.121c.552-5.909 3.542-11.372 8.25-14.892 19.961-14.923 31.41-37.759 31.41-62.651v-26.507c0-20.935-8.167-40.603-22.996-55.381-14.764-14.713-34.352-22.804-55.188-22.804-.092 0-.186 0-.278.001-42.958.148-77.908 35.565-77.908 78.951v25.739c0 24.892 11.448 47.728 31.409 62.651 4.707 3.52 7.699 8.983 8.25 14.892h-57.292c-8.547 0-15.5 6.953-15.5 15.5v33.7c0 8.547 6.953 15.5 15.5 15.5h1.521l15.156 242.501c.791 12.653 11.342 22.565 24.019 22.565h19.137c4.142 0 7.5-3.358 7.5-7.5s-3.358-7.5-7.5-7.5h-19.137c-4.776 0-8.75-3.734-9.049-8.501l-15.097-241.566h315.367l-4.789 76.623c-.259 4.134 2.884 7.695 7.018 7.953 4.131.264 7.695-2.884 7.953-7.018l4.848-77.559h1.52c8.547 0 15.5-6.953 15.5-15.5v-33.7c-.001-8.546-6.954-15.499-15.501-15.499zm-123.656-156.77c-.076-2.777.945-5.399 2.877-7.384s4.521-3.079 7.29-3.079c3.214 0 6.173 1.476 8.118 4.05 2.267 2.997 5.834 4.786 9.561 4.786 3.711 0 7.278-1.789 9.546-4.787 1.944-2.573 4.903-4.049 8.117-4.049 2.855 0 5.5 1.152 7.447 3.244 1.944 2.088 2.901 4.821 2.696 7.693-.378 5.274-4.995 9.405-10.512 9.405h-12.886c-4.143 0-7.5 3.358-7.5 7.5s3.357 7.5 7.5 7.5h1.336v20.342h-11.507v-23.791c0-6.369-5.182-11.55-11.55-11.55-5.658-.001-10.383-4.433-10.533-9.88zm-35.346 149.913c0-20.116 9.255-38.573 25.391-50.637 8.997-6.727 14.369-17.525 14.369-28.883 0-5.608 4.563-10.171 10.171-10.171h26.507c5.608 0 10.171 4.563 10.171 10.171 0 11.358 5.372 22.156 14.369 28.883 16.136 12.064 25.391 30.52 25.391 50.637v6.858h-126.369zm-131.44-20.048c-16.136-12.064-25.391-30.52-25.391-50.637v-25.739c0-35.143 28.244-63.831 62.96-63.951 16.95-.095 32.841 6.486 44.825 18.428 11.984 11.943 18.584 27.837 18.584 44.756v26.506c0 20.117-9.255 38.573-25.392 50.637-8.473 6.335-13.727 16.281-14.31 26.905h-46.965c-.584-10.623-5.837-20.569-14.311-26.905zm290.942 76.105c0 .276-.225.5-.5.5h-8.566-331.334-8.567c-.276 0-.5-.224-.5-.5v-33.7c0-.276.224-.5.5-.5h348.467c.275 0 .5.224.5.5z"/><path d="m313.2 338.833c0-31.54-25.66-57.2-57.2-57.2s-57.2 25.66-57.2 57.2 25.66 57.2 57.2 57.2 57.2-25.659 57.2-57.2zm-99.4 0c0-23.269 18.931-42.2 42.2-42.2s42.2 18.931 42.2 42.2-18.931 42.2-42.2 42.2-42.2-18.93-42.2-42.2z"/><path d="m280.066 338.833c0-13.271-10.796-24.067-24.066-24.067-13.271 0-24.067 10.796-24.067 24.067 0 13.27 10.796 24.066 24.067 24.066 13.27.001 24.066-10.796 24.066-24.066zm-33.133 0c0-4.999 4.067-9.067 9.067-9.067 4.999 0 9.066 4.067 9.066 9.067 0 4.999-4.067 9.066-9.066 9.066-5 .001-9.067-4.067-9.067-9.066z"/><path d="m180.666 463.083v-16.567c0-8.703-7.081-15.783-15.783-15.783h-16.566c-8.703 0-15.784 7.08-15.784 15.783v16.567c0 8.703 7.081 15.783 15.784 15.783h16.566c8.703.001 15.783-7.08 15.783-15.783zm-15 0c0 .432-.352.783-.783.783h-16.566c-.432 0-.784-.352-.784-.783v-16.567c0-.432.352-.783.784-.783h16.566c.432 0 .783.352.783.783z"/><path d="m189.733 52.551c4.142 0 7.5-3.358 7.5-7.5v-4.418c0-4.142-3.358-7.5-7.5-7.5s-7.5 3.358-7.5 7.5v4.418c0 4.142 3.358 7.5 7.5 7.5z"/><path d="m180.666 73.767v-4.418c0-4.142-3.358-7.5-7.5-7.5s-7.5 3.358-7.5 7.5v4.418c0 4.142 3.358 7.5 7.5 7.5s7.5-3.358 7.5-7.5z"/><path d="m206.3 81.267c4.142 0 7.5-3.358 7.5-7.5v-4.418c0-4.142-3.358-7.5-7.5-7.5s-7.5 3.358-7.5 7.5v4.418c0 4.142 3.358 7.5 7.5 7.5z"/><path d="m157.705 94.982c-4.142 0-7.5 3.358-7.5 7.5 0 .736-.599 1.336-1.336 1.336-.736 0-1.335-.599-1.335-1.336 0-4.142-3.358-7.5-7.5-7.5s-7.5 3.358-7.5 7.5c0 9.007 7.328 16.336 16.335 16.336 9.008 0 16.336-7.328 16.336-16.336 0-4.142-3.358-7.5-7.5-7.5z"/><path d="m206.069 131.198c0-4.142-3.358-7.5-7.5-7.5s-7.5 3.358-7.5 7.5c0 .736-.599 1.335-1.335 1.335s-1.335-.599-1.335-1.335c0-4.142-3.358-7.5-7.5-7.5s-7.5 3.358-7.5 7.5c0 9.007 7.328 16.335 16.335 16.335s16.335-7.328 16.335-16.335z"/><path d="m322.267 132.533c-9.008 0-16.336 7.328-16.336 16.336 0 4.142 3.357 7.5 7.5 7.5s7.5-3.358 7.5-7.5c0-.737.6-1.336 1.336-1.336s1.336.599 1.336 1.336c0 4.142 3.358 7.5 7.5 7.5 4.143 0 7.5-3.358 7.5-7.5 0-9.008-7.329-16.336-16.336-16.336z"/></g></svg>