<svg id="Capa_1" enable-background="new 0 0 512 512" height="512" viewBox="0 0 512 512" width="512" xmlns="http://www.w3.org/2000/svg"><g><g><path d="m49.894 457.848h412.212c23.414 0 42.394-19.77 42.394-44.157 0-5.189-4.038-9.395-9.02-9.395h-478.96c-4.981 0-9.02 4.206-9.02 9.395 0 24.388 18.98 44.157 42.394 44.157z" fill="#ddeafb"/><path d="m495.48 404.297h-30c4.981 0 9.02 4.206 9.02 9.395 0 24.387-18.98 44.157-42.394 44.157h30c23.414 0 42.394-19.77 42.394-44.157 0-5.189-4.038-9.395-9.02-9.395z" fill="#cbe2ff"/><g><path d="m446.503 229.226h-116.006c-22.091 0-40-17.909-40-40v-95.071c0-22.091 17.909-40 40-40h116.007c22.091 0 40 17.909 40 40v95.071c-.001 22.091-17.909 40-40.001 40z" fill="#e4926a"/><path d="m446.503 54.155h-30c22.091 0 40 17.909 40 40v95.071c0 22.091-17.909 40-40 40h30c22.091 0 40-17.909 40-40v-95.071c0-22.091-17.908-40-40-40z" fill="#e17c48"/><g><path d="m481 165.19h-185c-12.979 0-23.5-10.521-23.5-23.5 0-12.979 10.521-23.5 23.5-23.5h185c12.979 0 23.5 10.521 23.5 23.5 0 12.979-10.521 23.5-23.5 23.5z" fill="#f7f6f7"/></g><path d="m481 118.191h-30c12.979 0 23.5 10.521 23.5 23.5 0 12.979-10.521 23.5-23.5 23.5h30c12.979 0 23.5-10.521 23.5-23.5 0-12.979-10.521-23.5-23.5-23.5z" fill="#edebed"/></g><g><path d="m181.503 229.226h-116.006c-22.091 0-40-17.909-40-40v-95.071c0-22.091 17.909-40 40-40h116.007c22.091 0 40 17.909 40 40v95.071c-.001 22.091-17.909 40-40.001 40z" fill="#e490b7"/><path d="m181.503 54.155h-30c22.091 0 40 17.909 40 40v95.071c0 22.091-17.909 40-40 40h30c22.091 0 40-17.909 40-40v-95.071c0-22.091-17.908-40-40-40z" fill="#df75a5"/><g><path d="m216 165.19h-185c-12.979 0-23.5-10.521-23.5-23.5 0-12.979 10.521-23.5 23.5-23.5h185c12.979 0 23.5 10.521 23.5 23.5 0 12.979-10.521 23.5-23.5 23.5z" fill="#f7f6f7"/></g><path d="m216 118.191h-30c12.979 0 23.5 10.521 23.5 23.5 0 12.979-10.521 23.5-23.5 23.5h30c12.979 0 23.5-10.521 23.5-23.5 0-12.979-10.521-23.5-23.5-23.5z" fill="#edebed"/></g><g><path d="m446.503 404.297h-116.006c-22.091 0-40-17.909-40-40v-95.071c0-22.091 17.909-40 40-40h116.007c22.091 0 40 17.909 40 40v95.071c-.001 22.091-17.909 40-40.001 40z" fill="#ffe07d"/><path d="m446.503 229.226h-30c22.091 0 40 17.909 40 40v95.071c0 22.091-17.909 40-40 40h30c22.091 0 40-17.909 40-40v-95.071c0-22.091-17.908-40-40-40z" fill="#ffd064"/><g><path d="m481 340.261h-185c-12.979 0-23.5-10.521-23.5-23.5 0-12.979 10.521-23.5 23.5-23.5h185c12.979 0 23.5 10.521 23.5 23.5 0 12.979-10.521 23.5-23.5 23.5z" fill="#f7f6f7"/></g><path d="m481 293.261h-30c12.979 0 23.5 10.521 23.5 23.5 0 12.979-10.521 23.5-23.5 23.5h30c12.979 0 23.5-10.521 23.5-23.5 0-12.979-10.521-23.5-23.5-23.5z" fill="#edebed"/></g><g><path d="m181.503 404.297h-116.006c-22.091 0-40-17.909-40-40v-95.071c0-22.091 17.909-40 40-40h116.007c22.091 0 40 17.909 40 40v95.071c-.001 22.091-17.909 40-40.001 40z" fill="#b3e59f"/><path d="m181.503 229.226h-30c22.091 0 40 17.909 40 40v95.071c0 22.091-17.909 40-40 40h30c22.091 0 40-17.909 40-40v-95.071c0-22.091-17.908-40-40-40z" fill="#95d6a4"/><g><path d="m216 340.261h-185c-12.979 0-23.5-10.521-23.5-23.5 0-12.979 10.521-23.5 23.5-23.5h185c12.979 0 23.5 10.521 23.5 23.5 0 12.979-10.521 23.5-23.5 23.5z" fill="#f7f6f7"/></g><path d="m216 293.261h-30c12.979 0 23.5 10.521 23.5 23.5 0 12.979-10.521 23.5-23.5 23.5h30c12.979 0 23.5-10.521 23.5-23.5 0-12.979-10.521-23.5-23.5-23.5z" fill="#edebed"/></g></g><path d="m494 344.893c10.616-4.926 18-15.68 18-28.132s-7.384-23.207-18-28.132v-19.407c0-16.782-8.756-31.548-21.932-40 13.176-8.452 21.932-23.218 21.932-40v-19.399c10.616-4.926 18-15.68 18-28.132s-7.384-23.207-18-28.132v-19.407c0-26.191-21.309-47.5-47.5-47.5h-116c-26.191 0-47.5 21.309-47.5 47.5v19.407c-10.616 4.926-18 15.68-18 28.132s7.384 23.207 18 28.132v19.399c0 16.782 8.756 31.548 21.932 40-13.176 8.452-21.932 23.218-21.932 40v19.407c-10.616 4.926-18 15.68-18 28.133 0 12.452 7.384 23.207 18 28.132v19.398c0 12.566 4.914 24 12.911 32.505h-79.822c7.997-8.504 12.911-19.938 12.911-32.505v-19.398c10.616-4.926 18-15.68 18-28.132s-7.384-23.207-18-28.132v-19.407c0-16.782-8.756-31.548-21.932-40 13.176-8.452 21.932-23.218 21.932-40v-19.399c10.616-4.926 18-15.68 18-28.132s-7.384-23.207-18-28.132v-19.408c0-26.191-21.309-47.5-47.5-47.5h-116c-26.191 0-47.5 21.309-47.5 47.5v19.407c-10.616 4.926-18 15.68-18 28.132s7.384 23.207 18 28.132v19.399c0 16.782 8.756 31.548 21.932 40-13.176 8.452-21.932 23.218-21.932 40v19.407c-10.616 4.926-18 15.68-18 28.133 0 12.452 7.384 23.207 18 28.132v19.398c0 12.566 4.914 24 12.911 32.505h-14.391c-9.108 0-16.52 7.579-16.52 16.895 0 28.484 22.383 51.657 49.895 51.657h412.211c27.512 0 49.895-23.173 49.895-51.657 0-9.315-7.411-16.895-16.52-16.895h-14.391c7.997-8.504 12.911-19.938 12.911-32.505v-19.399zm-196-250.741c0-17.92 14.579-32.5 32.5-32.5h116c17.921 0 32.5 14.58 32.5 32.5v16.539h-181zm-18 47.539c0-8.822 7.178-16 16-16h185c8.822 0 16 7.178 16 16s-7.178 16-16 16h-185c-8.822 0-16-7.178-16-16zm18 47.531v-16.531h181v16.531c0 17.92-14.579 32.5-32.5 32.5h-116c-17.921 0-32.5-14.58-32.5-32.5zm-283-47.531c0-8.822 7.178-16 16-16h45.27c4.143 0 7.5-3.358 7.5-7.5s-3.357-7.5-7.5-7.5h-43.27v-16.539c0-17.92 14.579-32.5 32.5-32.5h116c17.921 0 32.5 14.58 32.5 32.5v16.539h-102.73c-4.143 0-7.5 3.358-7.5 7.5s3.357 7.5 7.5 7.5h104.73c8.822 0 16 7.178 16 16s-7.178 16-16 16h-185c-8.822 0-16-7.178-16-16zm18 47.531v-16.531h181v16.531c0 17.92-14.579 32.5-32.5 32.5h-116c-17.921 0-32.5-14.58-32.5-32.5zm0 80c0-17.92 14.579-32.5 32.5-32.5h116c17.921 0 32.5 14.58 32.5 32.5v16.539h-181zm-18 47.539c0-8.822 7.178-16 16-16h185c8.822 0 16 7.178 16 16s-7.178 16-16 16h-185c-8.822 0-16-7.178-16-16zm199 31v16.531c0 17.92-14.579 32.5-32.5 32.5h-116c-17.921 0-32.5-14.58-32.5-32.5v-16.531zm281.48 64.036c.823 0 1.52.868 1.52 1.895 0 20.213-15.653 36.657-34.895 36.657h-412.21c-19.242-.001-34.895-16.445-34.895-36.658 0-1.027.696-1.895 1.52-1.895h478.96zm-197.48-47.505v-16.531h181v16.531c0 17.92-14.579 32.5-32.5 32.5h-116c-17.921 0-32.5-14.58-32.5-32.5zm183-31.531h-185c-8.822 0-16-7.178-16-16s7.178-16 16-16h101.273c4.143 0 7.5-3.358 7.5-7.5s-3.357-7.5-7.5-7.5h-99.273v-16.539c0-17.92 14.579-32.5 32.5-32.5h116c17.921 0 32.5 14.58 32.5 32.5v16.539h-46.727c-4.143 0-7.5 3.358-7.5 7.5s3.357 7.5 7.5 7.5h48.727c8.822 0 16 7.178 16 16 0 8.823-7.178 16-16 16z"/></g></svg>