<svg id="Capa_1" enable-background="new 0 0 512 512" height="512" viewBox="0 0 512 512" width="512" xmlns="http://www.w3.org/2000/svg"><g><path d="m272.567 15.783c0-4.575-3.709-8.283-8.283-8.283h-16.567c-4.575 0-8.283 3.709-8.283 8.283v480.433c0 4.575 3.709 8.283 8.283 8.283h16.567c4.575 0 8.283-3.709 8.283-8.283z" fill="#81d2eb"/><path d="m264.283 7.5h-16.567c-1.141 0-2.228.231-3.217.648 2.977 1.256 5.067 4.201 5.067 7.635v480.434c0 3.434-2.09 6.379-5.067 7.635.989.417 2.076.648 3.217.648h16.567c4.575 0 8.283-3.708 8.283-8.283v-480.434c.001-4.575-3.708-8.283-8.283-8.283z" fill="#84b5e8"/><path d="m314.267 454.8h-116.534c-4.418 0-8-3.582-8-8v-30.133h132.533v30.133c.001 4.418-3.581 8-7.999 8z" fill="#ffc269"/><path d="m299.267 416.667v30.133c0 4.418-3.582 8-8 8h23c4.418 0 8-3.582 8-8v-30.133z" fill="#faa75d"/><path d="m197.733 57.2h116.533c4.418 0 8 3.582 8 8v28.133h-132.533v-28.133c0-4.418 3.582-8 8-8z" fill="#ffc269"/><path d="m314.267 57.2h-23c4.418 0 8 3.582 8 8v28.133h23v-28.133c0-4.418-3.582-8-8-8z" fill="#faa75d"/><path d="m385.739 265.316-43.364 144.544c-2.102 7.007-8.552 11.806-15.868 11.806h-141.014c-7.316 0-13.766-4.799-15.868-11.806l-43.363-144.545c-1.853-6.177-2.795-12.592-2.795-19.042v-122.806c0-18.299 14.834-33.133 33.133-33.133h198.8c18.299 0 33.133 14.834 33.133 33.133v122.807c0 6.449-.941 12.864-2.794 19.042z" fill="#966a5b"/><path d="m173.167 189.733c9.149 0 16.567-7.417 16.567-16.567s-7.417-16.567-16.567-16.567h-49.7v33.133h49.7z" fill="#e55964"/><path d="m355.4 90.333h-23c18.299 0 33.133 14.834 33.133 33.133v122.808c0 6.449-.941 12.864-2.794 19.042l-43.364 144.544c-2.102 7.007-8.552 11.806-15.868 11.806h23c7.316 0 13.766-4.799 15.868-11.806l43.364-144.545c1.853-6.177 2.794-12.592 2.794-19.042v-122.806c0-18.299-14.834-33.134-33.133-33.134z" fill="#8a5a51"/><path d="m289.133 322.267c-9.15 0-16.567 7.417-16.567 16.567s7.417 16.567 16.567 16.567h69.58l9.94-33.133h-79.52z" fill="#e55964"/><path d="m358.713 355.4 9.94-33.133h-23l-9.94 33.133z" fill="#db404f"/></g><g><path d="m388.533 180.499c-4.143 0-7.5 3.358-7.5 7.5v58.274c0 5.724-.834 11.405-2.479 16.887l-15.482 51.606h-73.94c-13.271 0-24.066 10.796-24.066 24.067 0 13.27 10.796 24.066 24.066 24.066h59.5l-13.442 44.806c-1.159 3.864-4.649 6.46-8.685 6.46h-4.24-132.532-4.24c-4.035 0-7.525-2.596-8.685-6.461l-13.441-44.804h59.5c4.143 0 7.5-3.358 7.5-7.5s-3.357-7.5-7.5-7.5h-64.001l-3.836-12.788c-1.191-3.968-5.371-6.219-9.339-5.028-3.968 1.19-6.219 5.371-5.028 9.339l5.453 18.177c.005.017.01.034.015.05l16.31 54.365c2.759 9.201 10.499 15.676 19.792 16.918v17.867c0 8.547 6.953 15.5 15.5 15.5h34.2v33.917c0 8.703 7.08 15.783 15.783 15.783h16.566c8.703 0 15.783-7.08 15.783-15.783v-33.917h34.2c8.547 0 15.5-6.953 15.5-15.5v-17.867c9.293-1.242 17.033-7.717 19.792-16.917l21.317-71.058 4.961-16.536c0-.001 0-.003.001-.004l17.084-56.947c2.064-6.881 3.111-14.013 3.111-21.197v-58.274c.002-4.143-3.355-7.501-7.498-7.501zm-123.467 315.718c0 .432-.352.783-.783.783h-16.566c-.432 0-.783-.352-.783-.783v-33.917h18.133v33.917zm49.701-49.417c0 .276-.225.5-.5.5h-116.534c-.275 0-.5-.224-.5-.5v-17.633h117.533v17.633zm38.366-98.9h-64c-4.999 0-9.066-4.067-9.066-9.066s4.067-9.067 9.066-9.067h69.44l-2.079 6.929z"/><path d="m355.4 82.834h-25.634v-17.634c0-8.547-6.953-15.5-15.5-15.5h-34.2v-33.917c0-8.703-7.08-15.783-15.783-15.783h-16.566c-8.703 0-15.783 7.08-15.783 15.783v33.917h-34.2c-8.547 0-15.5 6.953-15.5 15.5v17.633h-25.634c-22.405 0-40.633 18.228-40.633 40.633v33.134 33.133 56.54c0 7.185 1.047 14.316 3.111 21.197l12.585 41.951c.975 3.249 3.954 5.347 7.181 5.347.714 0 1.439-.103 2.158-.318 3.967-1.19 6.219-5.371 5.028-9.339l-12.585-41.951c-1.581-5.271-2.405-10.727-2.466-16.228h58.755c4.143 0 7.5-3.358 7.5-7.5s-3.357-7.5-7.5-7.5h-58.767v-34.7h42.2c13.27 0 24.066-10.796 24.066-24.067 0-13.27-10.796-24.066-24.066-24.066h-42.2v-25.633c0-14.134 11.499-25.633 25.633-25.633h198.8c11.525 0 21.296 7.647 24.511 18.133h-90.779c-4.143 0-7.5 3.358-7.5 7.5s3.357 7.5 7.5 7.5h91.9v27.534c0 4.142 3.357 7.5 7.5 7.5s7.5-3.358 7.5-7.5v-35.034c.001-22.404-18.226-40.632-40.632-40.632zm-182.233 81.266c4.999 0 9.066 4.067 9.066 9.066s-4.067 9.067-9.066 9.067h-42.2v-18.133zm73.767-148.317c0-.432.352-.783.783-.783h16.566c.432 0 .783.352.783.783v33.917h-18.133v-33.917zm-49.701 67.051v-17.634c0-.276.225-.5.5-.5h116.533c.275 0 .5.224.5.5v17.633h-117.533z"/><path d="m338.833 197.233c4.143 0 7.5-3.358 7.5-7.5s-3.357-7.5-7.5-7.5h-66.267c-4.143 0-7.5 3.358-7.5 7.5s3.357 7.5 7.5 7.5z"/><path d="m256 296.633c4.143 0 7.5-3.358 7.5-7.5s-3.357-7.5-7.5-7.5h-49.7c-4.143 0-7.5 3.358-7.5 7.5s3.357 7.5 7.5 7.5z"/></g></svg>