<svg id="Capa_1" enable-background="new 0 0 512.749 512.749" height="512" viewBox="0 0 512.749 512.749" width="512" xmlns="http://www.w3.org/2000/svg"><g><path d="m256.396 7.517 46.292 17.359c6.921 2.595 6.921 12.386 0 14.981l-46.292 17.359z" fill="#e55964"/><g><path d="m107.296 355.45c-9.149 0-16.567 7.417-16.567 16.567v16.567c0 9.15 7.417 16.567 16.567 16.567v12.4h298.2v-12.4c9.15 0 16.567-7.417 16.567-16.567 0-3.021 0-13.546 0-16.567 0-9.15-7.417-16.567-16.567-16.567l-6.6-.033v-18.25h-283.667v18.25z" fill="#966a5b"/><path d="m405.496 355.45-6.6-.033v-18.25h-16.4v7.349 10.934c9.15 0 16.567 7.417 16.567 16.567v16.567c0 9.15-7.417 16.567-16.567 16.567v12.4h23v-12.4c9.15 0 16.567-7.417 16.567-16.567 0-3.021 0-13.546 0-16.567 0-9.15-7.418-16.567-16.567-16.567z" fill="#8a5a51"/></g><g><path d="m405.496 272.6h-25.575v-3.525h-97.95v3.525h-51.15v-3.525h-97.95v3.525h-25.575c-9.149 0-16.567 7.417-16.567 16.567v16.567c0 9.149 7.417 16.567 16.567 16.567h7.962v3.217h282.277v-3.218h7.961c9.15 0 16.567-7.417 16.567-16.567 0-3.021 0-13.546 0-16.567 0-9.149-7.417-16.566-16.567-16.566z" fill="#966a5b"/><path d="m405.496 272.6h-23c9.15 0 16.567 7.417 16.567 16.567v16.567c0 9.149-7.417 16.567-16.567 16.567h-7.96v3.217h23v-3.218h7.961c9.15 0 16.567-7.417 16.567-16.567 0-3.021 0-13.546 0-16.567-.001-9.149-7.418-16.566-16.568-16.566z" fill="#8a5a51"/></g><g><path d="m405.496 189.746v-12.4h-298.2v12.4c-9.149 0-16.567 7.417-16.567 16.567v16.567c0 9.149 7.417 16.567 16.567 16.567l25.575.003v13.125h97.95v-13.114l51.15.006v13.107h97.95v-13.096h2.575l23-.033c9.15 0 16.567-7.417 16.567-16.567 0-3.021 0-13.546 0-16.567 0-9.148-7.417-16.565-16.567-16.565z" fill="#966a5b"/><path d="m405.496 239.446-23 .033v-.033c9.15 0 16.567-7.417 16.567-16.567 0-3.021 0-13.546 0-16.567 0-9.15-7.417-16.567-16.567-16.567v-12.4h23v12.4c9.15 0 16.567 7.417 16.567 16.567v16.567c0 9.15-7.418 16.567-16.567 16.567z" fill="#8a5a51"/></g><g><path d="m231.829 272.584h-99.967c-4.418 0-8-3.582-8-8v-17.134c0-4.418 3.582-8 8-8h99.967c4.418 0 8 3.582 8 8v17.133c0 4.419-3.581 8.001-8 8.001z" fill="#e55964"/><path d="m380.929 272.584h-99.967c-4.418 0-8-3.582-8-8v-17.134c0-4.418 3.582-8 8-8h99.967c4.418 0 8 3.582 8 8v17.133c0 4.419-3.581 8.001-8 8.001z" fill="#e55964"/><path d="m397.213 322.284h-281.634c-4.575 0-8.283 3.708-8.283 8.283v12.909c0 7.131 4.563 13.462 11.328 15.717l22.656 7.552c10.202 3.401 21.231 3.401 31.433 0l23.506-7.835c6.801-2.267 14.154-2.267 20.955 0l23.506 7.835c10.202 3.401 21.231 3.401 31.433 0l23.506-7.835c6.801-2.267 14.154-2.267 20.955 0l23.506 7.835c10.202 3.401 21.231 3.401 31.433 0l22.656-7.552c6.765-2.255 11.328-8.586 11.328-15.717v-12.909c-.001-4.575-3.71-8.283-8.284-8.283z" fill="#b3e59f"/><path d="m397.213 322.284h-23c4.575 0 8.283 3.709 8.283 8.283v12.91c0 7.131-4.563 13.461-11.328 15.716l-22.656 7.552c-1.391.464-2.799.858-4.216 1.195 8.979 2.136 18.406 1.741 27.216-1.195l22.656-7.552c6.765-2.255 11.328-8.586 11.328-15.716v-12.91c0-4.575-3.709-8.283-8.283-8.283z" fill="#92db91"/><g fill="#db404f"><path d="m380.929 239.45h-23c4.418 0 8 3.582 8 8v17.133c0 4.418-3.582 8-8 8h23c4.418 0 8-3.582 8-8v-17.133c0-4.418-3.581-8-8-8z"/><path d="m231.829 239.45h-23c4.418 0 8 3.582 8 8v17.133c0 4.418-3.582 8-8 8h23c4.418 0 8-3.582 8-8v-17.133c0-4.418-3.581-8-8-8z"/></g></g><g><path d="m422.063 421.684v33.133c0 27.449-22.251 49.7-49.7 49.7h-231.934c-27.448 0-49.7-22.251-49.7-49.7v-33.133c0-9.15 7.417-16.567 16.567-16.567h298.2c9.15 0 16.567 7.417 16.567 16.567z" fill="#f4dbb3"/><path d="m388.929 405.117-78.634 47.144c-2.624 1.573-5.901 1.572-8.523-.003l-78.509-47.142h165.666z" fill="#ffc269"/><path d="m405.496 405.117h-23c9.15 0 16.567 7.417 16.567 16.567v33.133c0 27.448-22.252 49.7-49.7 49.7h23c27.448 0 49.7-22.251 49.7-49.7v-33.133c0-9.15-7.417-16.567-16.567-16.567z" fill="#eac89f"/><path d="m365.929 405.117-71.388 42.8 7.23 4.341c2.623 1.575 5.9 1.576 8.524.003l78.634-47.144z" fill="#faa75d"/></g><g><path d="m90.729 173.184v-16.567c0-36.598 29.669-66.267 66.267-66.267h198.8c36.598 0 66.267 29.669 66.267 66.267v16.567c0 9.15-7.417 16.567-16.567 16.567h-298.2c-9.149-.001-16.567-7.418-16.567-16.567z" fill="#f4dbb3"/><path d="m355.796 90.35h-23c36.598 0 66.267 29.669 66.267 66.267v16.567c0 9.15-7.417 16.567-16.567 16.567h23c9.15 0 16.567-7.417 16.567-16.567v-16.567c0-36.598-29.669-66.267-66.267-66.267z" fill="#eac89f"/></g><path d="m429.563 156.617c-3.167-91.536-103.486-72.544-165.667-73.767v-20.435l61.4-23.025c6.374-2.15 6.378-11.895 0-14.045l-66.267-24.85c-.05-.019-.101-.03-.151-.048-4.61-1.772-10.015 1.976-9.974 6.913-.001.053-.008.104-.008.158v75.332c-62.339 1.221-162.464-17.752-165.665 73.77.192 10.049-1.884 25.83 6.633 33.13-8.473 7.305-6.503 23.059-6.634 33.134.17 18.312 16.79 26.125 33.158 24.066-.075.531.001 17.086-.025 17.635 0 .168.02.332.025.499-16.378-2.054-32.985 5.75-33.158 24.067-.536 15.756-1.401 33.705 16.698 39.474-.134 4.933-.582 15.525.496 20.296-9.932 2.965-17.195 12.179-17.195 23.062.135 10.101-1.84 25.798 6.634 33.133-10.748 8.583-5.457 37.941-6.635 49.701 1.282 46.425 41.358 61.629 82.051 57.197 9.708.122 9.747-15.124-.001-14.997-32.291 2.552-65.178-3.143-67.049-42.202v-33.132c0-4.999 4.067-9.066 9.066-9.066h113.891c108.104 62.272 61.965 62.167 169.821 0 7.496.437 23.636-2.989 23.554 9.067 1.576 33.95 1.876 72.984-42.201 75.333h-177.082c-9.642-.165-9.795 15.16.001 15-.001 0 177.083 0 177.083 0 31.54 0 57.2-25.66 57.2-57.2-1.397-11.803 4.24-41.035-6.634-49.7 8.469-7.31 6.506-23.055 6.634-33.134 0-10.882-7.263-20.096-17.194-23.061 1.077-4.744.631-15.389.496-20.296 18.115-5.799 17.227-23.693 16.697-39.475-.169-18.311-16.789-26.125-33.158-24.066.075-.531-.001-17.086.025-17.635 0-.168-.02-.332-.025-.499 16.378 2.054 32.985-5.75 33.158-24.067-.147-10.086 1.849-25.807-6.634-33.132 8.469-7.318 6.508-23.053 6.636-33.135zm-165.667-110.222v-28.056l37.407 14.028zm-165.666 110.222c3.187-60.182 55.876-61.23 102.745-58.767-7.764 15.649 10.386 23.647 13.222 9.067.003-10.723 12.637-9.144 19.911-9.067-7.763 15.649 10.385 23.647 13.222 9.067-.164-11.761 18.297-11.76 18.133 0 2.839 14.585 20.986 6.574 13.221-9.067 7.305-.072 19.889-1.664 19.912 9.067 2.84 14.587 20.986 6.571 13.222-9.067 59.078-3.466 106.899 2.895 102.745 75.335 0 4.997-4.067 9.065-9.066 9.065h-298.2c-12.595.105-8.434-17.935-9.067-25.633zm33.133 107.967v-17.134c-.118-1.495 99.971.028 100.467-.501.275.001.499.225.499.501v17.134c-.384.955-100.582.955-100.966 0zm134.125-17.634c-.075.531.001 17.086-.025 17.635 0 .168.02.332.025.499h-18.184c.075-.531-.001-17.086.025-17.635 0-.168-.02-.332-.025-.499zm131.725 82.834c.432 0 .783.352.783.783v12.91c1.207 10.399-22.651 12.829-28.855 16.154-25.161 9.895-50.771-17.38-75.895-7.836-51.923 20.036-41.467 4.55-86.55-2.073-43.932 6.286-35.026 22.098-85.701 2.354-8.686-2.194-5.726-15.178-6.2-21.509-.254-2.297 281.693.009 282.418-.783zm-90.653 116.044c-.894.856-55.402-33.203-56.202-33.211h111.512zm108.003-57.278c0 4.999-4.067 9.067-9.066 9.067h-58.767c.093-5.91 1.301-16.716-7.501-16.566-8.793-.155-7.602 10.666-7.499 16.566h-67.834c.093-5.91 1.301-16.716-7.501-16.566-8.793-.155-7.602 10.666-7.499 16.566h-67.833c.093-5.91 1.301-16.716-7.501-16.566-8.793-.155-7.602 10.666-7.499 16.566h-58.767c-4.999 0-9.066-4.067-9.066-9.067.586-9.215-3.846-27.302 11.447-25.633 19.105 9.064 44.379 18.573 65.407 10.944 10.429-2.693 28.903-12.567 39.718-7.836 11.26 3.402 29.745 11.423 41.594 10.751 11.768.694 30.445-7.371 41.594-10.751 10.721-4.745 29.472 5.159 39.719 7.835 21.01 7.633 46.346-1.884 65.406-10.943 15.29-1.675 10.865 16.433 11.448 25.633zm0-99.4c-.665 7.742 3.577 25.703-9.067 25.633-3.966-.008-53.314.007-58.766 0 .093-5.91 1.301-16.716-7.501-16.566-8.793-.155-7.602 10.665-7.499 16.566h-67.834c.093-5.91 1.301-16.716-7.501-16.566-8.793-.155-7.602 10.665-7.499 16.566h-67.833c.093-5.91 1.301-16.716-7.501-16.566-8.793-.155-7.602 10.665-7.499 16.566h-50.483c-6.878.422-17.392.503-17.349-9.067.716-7.743-3.64-25.681 9.066-25.632 81.873-.001 191.633 0 273.633 0h24.567c4.998 0 9.066 4.067 9.066 9.066zm-33.134-41.7v17.134c.118 1.495-99.971-.028-100.467.501-.275-.001-.499-.225-.499-.501v-17.134c.384-.955 100.582-.955 100.966 0zm33.134-24.566c0 4.999-4.067 9.066-9.066 9.066h-24.567-34.2c.093-5.91 1.301-16.716-7.501-16.566-8.793-.155-7.602 10.665-7.499 16.566-12.41 0-56.246 0-67.834 0 .093-5.91 1.301-16.716-7.501-16.566-8.793-.155-7.602 10.665-7.499 16.566-11.349 0-55.684 0-67.833 0 .093-5.91 1.301-16.716-7.501-16.566-8.793-.155-7.602 10.665-7.499 16.566-14.196-.03-44.745.022-58.766 0-12.611.101-8.423-17.935-9.067-25.634 0-4.999 4.067-9.066 9.066-9.066h298.2c12.59-.107 8.436 17.938 9.067 25.634z"/></g></svg>