<svg id="Capa_1" enable-background="new 0 0 512 512" height="512" viewBox="0 0 512 512" width="512" xmlns="http://www.w3.org/2000/svg"><g><g><path d="m355.61 172.372c-23.385-50.731-30.591-111.443-.597-158.856 1.707-2.699-.51-6.023-4.005-6.023h-95.048-95.048c-3.495 0-5.712 3.324-4.005 6.023 29.994 47.413 22.789 108.125-.597 158.856-30.245 65.612-50.696 153.919 25.28 206.803 17.438 12.138 38.987 19.005 61.084 21.397 8.819.955 17.753.955 26.572 0 22.097-2.392 43.646-9.259 61.084-21.397 75.976-52.885 55.525-141.191 25.28-206.803z" fill="#c8effe"/></g><g><path d="m330.328 379.176c-17.433 12.138-38.982 19.001-61.081 21.399-7.792.839-15.665.939-23.477.29 1.029-.08 2.058-.18 3.087-.29 22.099-2.398 43.648-9.261 61.091-21.399 75.976-52.889 55.526-141.193 25.276-206.8-23.387-50.741-30.59-111.452-.599-158.866 1.708-2.697-.51-6.014-4.006-6.014h20.39c3.497 0 5.714 3.317 4.006 6.014-29.991 47.414-22.788 108.125.599 158.866 30.24 65.607 50.69 153.911-25.286 206.8z" fill="#99e6fc"/></g><g><g><path d="m319.21 484.382c-.771-.147-1.529-.3-2.276-.459-26.43-5.636-45.097-29.346-45.097-56.371v-38.64h-31.754v38.64c0 27.024-18.667 50.734-45.097 56.371-.746.159-1.505.312-2.276.459 0 0-20.125 2.875-23.959 20.125h87.209 87.209c-3.833-17.25-23.959-20.125-23.959-20.125z" fill="#c8effe"/></g><g><path d="m343.165 504.505h-16.724c-1.912-7.677-8.979-8.909-19.601-11.319-1.492-.339-2.977-.43-4.396-.729-9.551-1.968-16.984-6.234-24.756-13.257-14.336-12.947-22.578-32.638-22.578-51.65 0-.04 0-38.64 0-38.64h16.724v38.64c0 27.024 18.672 50.741 45.096 56.375.749.16 1.508.31 2.278.46.001-.001 20.131 2.876 23.957 20.12z" fill="#99e6fc"/></g></g><g><path d="m330.332 379.175c-17.444 12.139-38.994 19.007-61.081 21.391-8.819.958-17.763.958-26.582 0-22.087-2.384-43.638-9.252-61.081-21.391-75.969-52.89-55.525-141.192-25.281-206.802 15.573-33.781 23.969-71.988 18.984-107.742 11.911 3.947 23.684 8.488 35.252 12.903 37.591 14.363 78.787 27.86 117.303 16.223 2.521-.764 5.008-1.643 7.438-2.624.89 27.632 8.556 55.696 20.33 81.24 30.244 65.61 50.688 153.912-25.282 206.802z" fill="#bbec6c"/></g><g><path d="m330.328 379.176c-11.449 7.962-24.666 13.657-38.633 17.313-2.667.689-5.355 1.309-8.062 1.858-1.359.27-2.717.53-4.086.769-3.407.589-6.843 1.069-10.3 1.449-1.099.12-2.208.22-3.307.32-3.317.26-6.654.4-9.98.4-.849 0-1.688-.01-2.538-.03-.719-.01-1.449-.03-2.168-.06-.35-.01-.699-.03-1.049-.05-.629-.02-1.259-.06-1.888-.1-.779-.04-1.558-.1-2.338-.16-.07-.01-.14-.02-.21-.02 1.029-.08 2.058-.18 3.087-.29 22.099-2.398 43.648-9.261 61.091-21.399 75.976-52.889 55.526-141.193 25.276-206.8-10.989-23.837-18.402-49.872-20.071-75.687 4.256-.699 8.492-1.668 12.688-2.937 2.528-.759 5.015-1.638 7.443-2.617.01.43.03.859.05 1.291.12 2.482.254 5.029.47 7.548 1.621 18.79 6.121 37.602 12.707 55.31 2.153 5.788 4.512 11.477 7.103 17.093 30.241 65.606 50.691 153.91-25.285 206.799z" fill="#a2e62e"/></g><path d="m389.969 267.136c-1.847-29.304-11.117-62.242-27.554-97.9-.8-1.735-1.58-3.479-2.34-5.232-12.512-28.857-19.772-60.83-16.744-92.214.639-6.622 1.741-13.202 3.351-19.659 3.045-12.212 7.929-23.965 14.663-34.609 2.212-3.497 2.345-7.742.355-11.356-2.095-3.804-6.191-6.166-10.692-6.166h-123.692c-4.138 0-7.493 3.354-7.493 7.493s3.355 7.493 7.493 7.493h118.088c-11.809 20.902-17.712 45.049-17.741 70.947-.662.22-1.322.45-1.986.651-48.939 14.839-98.599-12.089-143.688-27.577-2.719-15.752-7.87-30.561-15.475-44.022h26.13c4.138 0 7.493-3.354 7.493-7.493s-3.355-7.492-7.493-7.492h-31.732c-4.5 0-8.597 2.362-10.691 6.165-1.99 3.615-1.858 7.86.354 11.356 25.318 40.02 24.928 95.318-1.069 151.714-44.917 97.441-35.302 172.162 27.804 216.089 15.268 10.629 34.232 17.96 55.28 21.431v20.797c0 23.578-16.472 44.202-39.175 49.044-.651.14-1.313.273-1.985.402-2.652.426-25.281 4.677-29.993 25.883-.493 2.219.047 4.542 1.47 6.314 1.422 1.773 3.572 2.804 5.844 2.804h174.418c2.273 0 4.422-1.031 5.844-2.804s1.963-4.096 1.47-6.314c-4.712-21.206-27.341-25.457-29.993-25.883-.672-.129-1.334-.262-1.993-.404-22.695-4.84-39.167-25.465-39.167-49.042v-20.808c18.953-3.134 36.334-9.418 50.703-18.401 3.509-2.193 4.575-6.816 2.382-10.325-2.194-3.508-6.815-4.577-10.325-2.382-14.779 9.238-33.331 15.284-53.65 17.485-8.28.896-16.678.896-24.959 0-22.263-2.411-42.184-9.36-57.61-20.098-32.047-22.307-48.621-53.463-49.262-92.602-.497-30.384 8.421-65.682 26.506-104.915 15.871-34.43 22.801-68.666 20.813-99.942 36.536 13.138 73.249 30.046 112.975 30.046 10.552 0 21.076-1.275 31.428-4.213 2.059 23.88 8.875 48.942 20.476 74.109 15.66 33.973 24.477 65.118 26.207 92.569 2.186 34.696-7.06 63.713-27.481 86.243-2.779 3.066-2.546 7.805.52 10.583 1.435 1.3 3.235 1.941 5.029 1.941 2.041 0 4.075-.829 5.554-2.461 23.241-25.639 33.783-58.358 31.333-97.245zm-125.625 141.365v19.051c0 30.604 21.46 57.393 51.019 63.696.803.173 1.62.338 2.449.495.112.021.225.04.338.057.038.005 3.95.635 8.136 2.82 1.382.721 2.623 1.52 3.722 2.395h-148.096c1.006-.802 2.132-1.54 3.376-2.212 4.335-2.343 8.48-3.003 8.481-3.003.113-.017.226-.035.338-.057.829-.157 1.645-.322 2.441-.493 29.568-6.305 51.028-33.094 51.028-63.698v-19.051c2.79.179 5.587.28 8.384.28s5.594-.101 8.384-.28z"/></g></svg>