<svg id="Capa_1" enable-background="new 0 0 512 512" height="512" viewBox="0 0 512 512" width="512" xmlns="http://www.w3.org/2000/svg"><g><g><g><path d="m337.664 38.547h-46.47v-15.088c0-8.811 7.143-15.954 15.954-15.954h14.561c8.811 0 15.954 7.143 15.954 15.954v15.088z" fill="#cbc4cc"/></g><g><path d="m337.66 23.456v15.089h-19.402v-15.089c0-7.985-5.864-14.599-13.528-15.77.791-.12 1.601-.18 2.422-.18h14.559c8.815 0 15.949 7.145 15.949 15.95z" fill="#b5adb6"/></g><g><path d="m353.862 80.316h-195.724l-21.424 49.735v162.355 162.355l19.168 44.498c1.369 3.178 4.498 5.237 7.958 5.237h184.32c3.46 0 6.589-2.059 7.958-5.237l19.168-44.498v-162.355-162.355z" fill="#fe9738"/></g><g><path d="m375.284 130.052v324.711l-19.162 44.497c-1.371 3.172-4.503 5.233-7.965 5.233h-20.012c3.462 0 6.594-2.061 7.965-5.233l19.162-44.497v-324.711l-21.423-49.741h20.012z" fill="#fe860a"/></g><g><path d="m360.985 80.316h-209.97c-11.534 0-20.885-9.35-20.885-20.885 0-11.534 9.35-20.885 20.885-20.885h209.97c11.534 0 20.885 9.35 20.885 20.885 0 11.535-9.351 20.885-20.885 20.885z" fill="#f3f0f3"/></g><g><path d="m381.868 59.429c0 5.774-2.332 10.987-6.114 14.769-3.782 3.772-9.006 6.114-14.769 6.114h-20.012c5.764 0 10.987-2.341 14.769-6.114 3.782-3.782 6.114-8.996 6.114-14.769 0-11.527-9.346-20.883-20.883-20.883h20.012c11.537 0 20.883 9.355 20.883 20.883z" fill="#e2dee2"/></g><g><path d="m136.715 130.051h238.571v324.71h-238.571z" fill="#fdb97e"/></g><g><path d="m355.273 130.051h20.012v324.71h-20.012z" fill="#fea95c"/></g></g><g><g><circle cx="256" cy="292.406" fill="#fe7701" r="91.185"/></g></g><g><g><path d="m347.186 292.402c0 50.361-40.825 91.186-91.186 91.186-24.455 0-46.679-9.636-63.059-25.316 13.158 7.375 28.328 11.567 44.467 11.567 50.361 0 91.186-40.825 91.186-91.186 0-25.906-10.807-49.28-28.148-65.891 27.889 15.601 46.74 45.419 46.74 79.64z" fill="#f46700"/></g></g><g><g><path d="m297.067 269.904-25.581 14.014c-6.971 3.819-15.486-1.225-15.486-9.174v-29.184c0-6.716 6.235-11.669 12.79-10.205 12.295 2.745 23.128 9.364 31.15 18.507 4.402 5.018 2.979 12.836-2.873 16.042z" fill="#fedbbd"/></g><g><path d="m256 245.561v29.184c0 7.948-8.515 12.992-15.486 9.174l-25.581-14.014c-5.853-3.206-7.275-11.025-2.874-16.041 8.023-9.144 18.855-15.762 31.15-18.507 6.556-1.465 12.791 3.488 12.791 10.204z" fill="#fedbbd"/></g></g><g><g><path d="m299.942 330.951c-8.023 9.144-18.856 15.763-31.151 18.509-6.555 1.464-12.79-3.489-12.79-10.205v-29.191c0-7.949 8.516-12.993 15.487-9.173l25.582 14.02c5.851 3.206 7.272 11.024 2.872 16.04z" fill="#fedbbd"/></g><g><path d="m256 310.063v29.191c0 6.716-6.235 11.669-12.79 10.205-12.295-2.745-23.129-9.364-31.151-18.509-4.401-5.016-2.979-12.833 2.872-16.04l25.582-14.02c6.971-3.82 15.487 1.224 15.487 9.173z" fill="#fedbbd"/></g></g><g><path d="m297.635 315.221-24.895-13.644c-7.244-3.97-7.244-14.377.001-18.346l24.716-13.54c5.711-3.129 12.813-.316 14.945 5.837 4.01 11.576 4.007 23.083.105 34.083-2.145 6.046-9.245 8.693-14.872 5.61z" fill="#fedbbd"/></g><g><path d="m214.365 315.221 24.895-13.644c7.244-3.97 7.244-14.377-.001-18.346l-24.716-13.54c-5.711-3.129-12.813-.316-14.945 5.837-4.01 11.576-4.007 23.083-.105 34.083 2.145 6.046 9.245 8.693 14.872 5.61z" fill="#fedbbd"/></g><g><circle cx="256" cy="292.406" fill="#fe9738" r="18.591"/></g><g><path d="m274.592 292.402c0 10.267-8.325 18.592-18.592 18.592-6.594 0-12.388-3.432-15.68-8.605 1.05.19 2.131.29 3.242.29 10.266 0 18.591-8.325 18.591-18.591 0-3.672-1.07-7.104-2.912-9.986 8.726 1.53 15.351 9.145 15.351 18.3z" fill="#fe860a"/></g><g><path d="m382.178 127.082-17.044-39.568c13.694-2.014 24.241-13.839 24.241-28.083 0-15.653-12.735-28.389-28.389-28.389h-15.816v-7.584c-.001-12.935-10.525-23.458-23.46-23.458h-14.561c-12.935 0-23.459 10.523-23.459 23.459v7.584h-132.675c-15.654 0-28.389 12.735-28.389 28.389 0 14.245 10.547 26.069 24.241 28.083l-17.044 39.568c-.001.001-.001.003-.001.004-.392.91-.611 1.911-.611 2.965v248.371c0 4.145 3.36 7.505 7.505 7.505s7.505-3.36 7.505-7.505v-240.867h223.561v309.7h-223.563v-34.396c0-4.145-3.36-7.505-7.505-7.505s-7.505 3.359-7.505 7.505v41.901c0 1.053.219 2.055.611 2.965 0 .001.001.002.001.003l19.168 44.499c2.558 5.936 8.386 9.772 14.85 9.772h184.319c6.464 0 12.293-3.835 14.85-9.773l19.168-44.498c0-.001.001-.002.001-.003.392-.91.611-1.912.611-2.965v-324.71c0-1.053-.219-2.055-.611-2.965.001-.001.001-.002.001-.004zm-83.479-103.623c0-4.659 3.79-8.449 8.45-8.449h14.561c4.659 0 8.45 3.79 8.45 8.449v7.584h-31.46v-7.584zm-161.064 35.972c0-7.377 6.002-13.379 13.38-13.379h209.971c7.378 0 13.38 6.002 13.38 13.379 0 7.378-6.002 13.38-13.38 13.38h-209.971c-7.378.001-13.38-6.002-13.38-13.38zm10.484 63.115 14.958-34.726h185.846l14.958 34.726zm201.106 373.743c-.183.426-.602.702-1.066.702h-184.318c-.464 0-.882-.276-1.066-.701l-14.656-34.025h215.762z"/><path d="m321.83 218.878c-18.112-16.226-41.491-25.162-65.83-25.162-54.418 0-98.69 44.272-98.69 98.69s44.272 98.689 98.69 98.689 98.69-44.271 98.69-98.689c0-15.229-3.378-29.837-10.04-43.417-1.826-3.72-6.324-5.259-10.043-3.432-3.721 1.825-5.258 6.322-3.432 10.043 5.644 11.504 8.506 23.888 8.506 36.806 0 46.141-37.539 83.68-83.681 83.68s-83.681-37.539-83.681-83.68c0-46.142 37.539-83.681 83.681-83.681 20.638 0 40.46 7.576 55.815 21.332 3.087 2.767 7.832 2.506 10.597-.581 2.765-3.088 2.505-7.832-.582-10.598z"/><path d="m319.579 312.12c4.512-12.721 4.483-25.859-.086-39.05-1.629-4.701-5.095-8.467-9.574-10.515.518-4.957-1.026-9.867-4.338-13.642-9.303-10.603-21.46-17.823-35.156-20.881-5.053-1.13-10.256-.061-14.426 2.932-4.17-2.992-9.374-4.061-14.426-2.932-13.695 3.058-25.852 10.278-35.156 20.881-3.312 3.775-4.856 8.685-4.338 13.642-4.479 2.048-7.945 5.813-9.574 10.515-4.569 13.191-4.598 26.329-.086 39.05 1.648 4.646 5.143 8.356 9.641 10.34-.456 4.888 1.089 9.717 4.356 13.441 9.304 10.604 21.461 17.825 35.157 20.883 1.32.295 2.649.44 3.968.44 3.735 0 7.375-1.175 10.458-3.389 3.083 2.214 6.724 3.389 10.458 3.389 7.275 0 15.272-3.627 21.509-7.084 6.642-3.681 12.609-8.532 17.615-14.238 3.267-3.724 4.812-8.553 4.356-13.441 4.5-1.986 7.994-5.695 9.642-10.341zm-56.074-66.557c0-.89.465-1.699 1.146-2.243.698-.558 1.623-.837 2.505-.64 10.568 2.36 19.954 7.938 27.143 16.132.791.901.756 1.897.666 2.411-.093.528-.412 1.502-1.504 2.1l-19.164 10.499c-2.987-2.941-6.677-5.168-10.792-6.407 0 0 0-21.612 0-21.852zm-45.804 13.249c7.19-8.194 16.576-13.772 27.144-16.132 1.752-.391 3.651.964 3.651 2.881v21.854c-4.115 1.238-7.805 3.465-10.792 6.407l-19.165-10.5c-1.091-.597-1.41-1.571-1.503-2.099-.091-.514-.126-1.51.665-2.411zm-9.451 49.997c-.466-.178-1.303-.635-1.684-1.708-3.345-9.429-3.303-19.226.123-29.117.411-1.188 1.302-1.686 1.796-1.876.245-.094.617-.198 1.062-.198.414 0 .892.09 1.39.363l.389.213h.001l7.587 4.156 11.563 6.335c-.372 1.753-.572 3.568-.572 5.43 0 1.861.199 3.676.572 5.427l-1.129.619-18.588 10.187c-1.056.577-2.027.354-2.51.169zm40.245 30.446c0 1.228-.69 1.965-1.102 2.294-.421.338-1.312.86-2.549.586-10.569-2.36-19.955-7.938-27.145-16.134-1.216-1.387-.764-3.631.838-4.51l19.164-10.503c2.987 2.942 6.678 5.169 10.794 6.408zm-3.582-46.849c0-6.113 4.974-11.087 11.087-11.087s11.087 4.974 11.087 11.087-4.974 11.086-11.087 11.086-11.087-4.972-11.087-11.086zm49.388 33.595c-7.19 8.196-16.577 13.774-27.145 16.134-1.817.403-3.65-.993-3.651-2.881v-21.858c4.116-1.238 7.806-3.466 10.794-6.408l1.142.626 18.022 9.877c1.626.892 2.063 3.113.838 4.51zm11.133-18.899c-.381 1.072-1.218 1.529-1.684 1.707-.484.186-1.453.408-2.508-.17l-19.717-10.806c.372-1.751.571-3.566.571-5.427 0-1.862-.2-3.678-.572-5.43l1.675-.917s17.46-9.565 17.481-9.577c1.791-1.028 3.917-.563 4.631 1.502 3.426 9.891 3.468 19.687.123 29.118z"/></g></g></svg>