<svg id="Capa_1" enable-background="new 0 0 511.572 511.572" height="512" viewBox="0 0 511.572 511.572" width="512" xmlns="http://www.w3.org/2000/svg"><g><g><path d="m363.156 137.698c-45.165-25.082-61.445-82.028-36.364-127.193 1.568-2.823 5.127-3.84 7.95-2.273l153.334 85.153c2.823 1.568 3.84 5.127 2.273 7.95-25.082 45.164-82.028 61.445-127.193 36.363z" fill="#00c27a"/></g><g><path d="m452.712 138.402c-27.082 14.46-60.716 15.312-89.556-.705-20.108-11.164-34.484-28.637-42.038-48.588 8.129 13.217 19.667 24.578 34.196 32.65 28.84 16.017 62.474 15.166 89.556.705 14.164-7.563 26.528-18.842 35.472-33.376l7.73 4.294c2.829 1.565 3.843 5.125 2.277 7.954-9.068 16.328-22.298 28.876-37.637 37.066z" fill="#08b865"/></g><g><path d="m376.994 112.78c-32.213-17.889-43.825-58.505-25.936-90.718l2.024-3.645 116.653 64.782-2.024 3.645c-17.889 32.214-58.504 43.825-90.717 25.936z" fill="#bbec6c"/></g><g><path d="m376.996 112.784c-17.879-9.923-29.408-26.854-33.075-45.46 5.845 10.796 14.742 20.123 26.271 26.524 29.523 16.39 66.088 8.017 85.769-18.297l13.771 7.646-2.016 3.646c-17.891 32.214-58.511 43.823-90.72 25.941z" fill="#a2e62e"/></g><g><path d="m358.189 83.074h-321.975c-9.96 0-17.409 9.145-15.395 18.899l41.307 199.997c8.816 42.686 13.259 86.159 13.259 129.746v48.688c0 13.07 10.595 23.665 23.665 23.665h196.304c13.07 0 23.665-10.595 23.665-23.665v-48.688c0-43.587 4.442-87.06 13.259-129.746l41.306-199.997c2.014-9.755-5.435-18.899-15.395-18.899z" fill="#c8effe"/></g><g><path d="m373.587 101.974-41.31 200c-8.82 42.68-13.26 86.16-13.26 129.74v48.69c0 13.07-10.59 23.67-23.66 23.67h-20.09c13.07 0 23.66-10.6 23.66-23.67v-48.69c0-43.58 4.44-87.06 13.26-129.74l41.31-200c2.01-9.76-5.44-18.9-15.4-18.9h20.09c9.96 0 17.41 9.14 15.4 18.9z" fill="#99e6fc"/></g><g><path d="m303.062 193.163c-37.98 0-173.742 0-211.722 0-5.037 0-8.733 4.726-7.52 9.614 8.818 35.53 25.314 107.253 28.254 167.498.526 10.775.286 21.568.117 32.36-.104 6.643 5.25 12.086 11.895 12.086h146.23c6.644 0 11.999-5.442 11.895-12.086-.169-10.792-.409-21.585.117-32.36 2.94-60.245 19.437-131.968 28.254-167.498 1.213-4.888-2.483-9.614-7.52-9.614z" fill="#bbec6c"/></g><g><path d="m310.577 202.774c-8.81 35.53-25.31 107.26-28.25 167.5-.53 10.78-.29 21.57-.12 32.36.11 6.65-5.25 12.09-11.89 12.09h-21.23c6.65 0 12-5.44 11.9-12.09-.17-10.79-.41-21.58.12-32.36 2.94-60.24 19.43-131.97 28.25-167.5 1.21-4.88-2.48-9.61-7.52-9.61h21.23c5.03-.001 8.73 4.729 7.51 9.61z" fill="#a2e62e"/></g><g><path d="m319.017 449.796v30.605c0 13.071-10.589 23.67-23.66 23.67h-196.307c-13.071 0-23.67-10.6-23.67-23.67v-30.605z" fill="#62dbfb"/></g><g><path d="m319.017 449.794v30.61c0 13.07-10.59 23.67-23.66 23.67h-20.09c13.07 0 23.66-10.6 23.66-23.67v-30.61z" fill="#01d0fb"/></g><g><g><path d="m250.142 325.681-43.235 43.235c-3.724 3.724-9.762 3.724-13.487 0l-43.235-43.235c-3.724-3.724-3.724-9.762 0-13.487l43.235-43.235c3.724-3.724 9.762-3.724 13.487 0l43.235 43.235c3.724 3.725 3.724 9.763 0 13.487z" fill="#f3f0f3"/></g><g><path d="m250.138 325.68-43.229 43.239c-3.731 3.721-9.76 3.721-13.491 0l-5-5.01 38.219-38.229c3.721-3.721 3.721-9.76 0-13.481l-38.219-38.229 5-5.01c3.731-3.721 9.76-3.721 13.491 0l43.229 43.239c3.731 3.721 3.731 9.76 0 13.481z" fill="#e2dee2"/></g><g><path d="m227.089 193.578-43.235 43.235c-3.724 3.724-9.762 3.724-13.487 0l-43.235-43.235c-3.724-3.724-3.724-9.762 0-13.487l43.235-43.235c3.724-3.724 9.762-3.724 13.487 0l43.235 43.235c3.725 3.724 3.725 9.762 0 13.487z" fill="#f3f0f3"/></g><g><path d="m227.093 193.577-43.239 43.239c-3.721 3.721-9.76 3.721-13.481 0l-5.01-5.01 38.219-38.229c3.731-3.721 3.731-9.76 0-13.481l-38.219-38.229 5.01-5.01c3.721-3.721 9.76-3.721 13.481 0l43.239 43.239c3.721 3.721 3.721 9.76 0 13.481z" fill="#e2dee2"/></g><g><path d="m212.21 263.657c-3.218-3.219-7.496-4.991-12.047-4.991s-8.829 1.772-12.047 4.99l-43.234 43.235c-3.218 3.218-4.99 7.496-4.99 12.047 0 4.55 1.772 8.828 4.99 12.047l43.235 43.235c3.321 3.32 7.684 4.98 12.046 4.98s8.725-1.66 12.046-4.98l43.235-43.235c3.218-3.219 4.99-7.497 4.99-12.047 0-4.552-1.772-8.83-4.99-12.047zm32.628 56.72-43.234 43.235c-.794.796-2.086.796-2.881 0l-43.234-43.234c-.493-.493-.597-1.056-.597-1.44s.104-.947.596-1.439l43.235-43.235c.493-.493 1.056-.598 1.44-.598s.947.104 1.44.598l43.235 43.235c.493.493.596 1.055.596 1.439s-.103.946-.596 1.439z"/><g><path d="m317.862 204.583c1.138-4.585.121-9.348-2.789-13.068s-7.287-5.853-12.011-5.853h-65.737c-.278-4.109-1.994-7.937-4.933-10.875l-43.234-43.234c-3.218-3.219-7.496-4.991-12.047-4.991s-8.829 1.772-12.047 4.99l-43.234 43.235c-2.94 2.939-4.655 6.767-4.933 10.875h-25.556c-4.724 0-9.102 2.134-12.011 5.854-2.91 3.72-3.926 8.483-2.788 13.068 16.236 65.42 25.934 122.841 28.042 166.056.469 9.615.309 19.529.153 29.117l-.044 2.76c-.083 5.239 1.896 10.182 5.572 13.915 3.674 3.733 8.583 5.789 13.821 5.789h146.23c5.238 0 10.147-2.056 13.821-5.789 3.676-3.733 5.655-8.676 5.572-13.915l-.044-2.728c-.156-9.599-.317-19.523.153-29.149 2.11-43.213 11.807-100.634 28.044-166.057zm-185.426-19.188 43.235-43.235c.493-.493 1.056-.598 1.44-.598s.947.104 1.44.598l43.235 43.235c.493.493.596 1.055.596 1.439s-.104.946-.597 1.439l-43.234 43.235c-.794.795-2.086.796-2.881 0l-43.234-43.234c-.493-.493-.597-1.056-.597-1.44s.104-.947.597-1.439zm142.401 184.515c-.493 10.112-.328 20.285-.168 30.124l.044 2.72c.019 1.188-.43 2.31-1.264 3.156-.833.846-1.945 1.312-3.132 1.312h-146.23c-1.187 0-2.299-.466-3.131-1.312-.833-.847-1.282-1.968-1.264-3.157l.044-2.752c.16-9.828.324-19.989-.168-30.091-2.724-55.806-16.983-122.672-28.466-168.938-.014-.056-.03-.119.044-.214s.139-.095.196-.095h32.27l41.454 41.454c3.321 3.32 7.684 4.98 12.046 4.98s8.725-1.66 12.046-4.98l41.454-41.454h72.451c.057 0 .122 0 .196.095.075.095.059.158.045.214-11.484 46.268-25.744 113.135-28.467 168.938z"/><path d="m491.718 86.828-153.334-85.153c-6.435-3.571-14.574-1.244-18.147 5.188-12.073 21.737-15.239 46.047-10.724 68.711h-273.299c-7.013 0-13.574 3.118-18.003 8.555-4.429 5.438-6.155 12.494-4.736 19.36l29.952 145.023c.838 4.057 4.802 6.664 8.862 5.828 4.056-.838 6.666-4.806 5.828-8.861l-29.952-145.024c-.502-2.431.109-4.928 1.676-6.853 1.568-1.925 3.891-3.028 6.373-3.028h321.975c2.482 0 4.805 1.104 6.373 3.028 1.567 1.925 2.179 4.422 1.676 6.854l-41.305 199.998c-8.901 43.094-13.414 87.257-13.414 131.263v10.58h-228.634v-10.58c0-44.004-4.513-88.167-13.414-131.263l-4.257-20.616c-.838-4.057-4.807-6.666-8.862-5.828-4.056.838-6.666 4.805-5.828 8.861l4.258 20.616c8.695 42.101 13.104 85.243 13.104 128.229l-.005 48.685c0 17.188 13.983 31.171 31.17 31.171h196.308c10.045 0 18.99-4.784 24.692-12.19 4.052-5.26 6.469-11.84 6.469-18.978v-48.688c0-42.988 4.409-86.131 13.104-128.229l31.732-153.643c11.295 4.478 23.349 6.921 35.465 7.122.042.001.084.001.126.001 4.084 0 7.429-3.276 7.497-7.376.068-4.142-3.233-7.555-7.375-7.623-11.186-.185-22.314-2.617-32.625-7.075l2.801-13.561c10.279 4.949 21.209 7.327 32.017 7.327 25.06 0 49.425-12.705 63.32-35.302l10.396 5.773c-9.838 16.938-25.232 30.077-43.513 37.098-3.867 1.484-5.797 5.823-4.313 9.689 1.485 3.867 5.823 5.798 9.69 4.313 22.076-8.478 40.567-24.55 52.065-45.255 3.571-6.433 1.244-14.573-5.189-18.147zm-180.201 393.573c0 3.471-1.109 6.683-2.977 9.321-2.931 4.135-7.744 6.847-13.187 6.847h-196.303c-8.914 0-16.165-7.252-16.165-16.165v-23.107h228.633v23.104zm26.777-404.827h-13.43c-4.618-19.617-2.43-40.895 7.697-59.975l10.398 5.775c-8.67 17.387-9.851 36.732-4.665 54.2zm25.095.585c-1.687-.385-3.429-.585-5.2-.585h-4.05c-5.651-14.805-5.405-31.754 1.941-46.913l41.36 22.969zm36.313 36.714c-3.713-.612-7.402-1.584-11.016-2.935-.081-.031-.162-.06-.243-.091-2.739-1.042-5.443-2.333-8.043-3.801l.528-2.556c1.347-6.523-.147-13.214-4.095-18.528l26.023-18.746zm14.999.524 3.399-50.294 41.357 22.967c-10.123 16.054-26.932 25.692-44.756 27.327z"/></g></g></g></g></svg>