<svg id="Capa_1" enable-background="new 0 0 512 512" height="512" viewBox="0 0 512 512" width="512" xmlns="http://www.w3.org/2000/svg"><path d="m300.523 434.62h-168.511c-15.948 0-29.161-12.371-30.209-28.284l-22.564-342.595h274.056l-22.564 342.595c-1.048 15.912-14.261 28.284-30.208 28.284z" fill="#fbe7c5"/><path d="m288.982 63.741-18.45 280.125c-1.048 15.913-14.261 28.284-30.208 28.284h-140.772l2.252 34.186c1.048 15.913 14.261 28.284 30.208 28.284h168.511c15.948 0 29.161-12.371 30.209-28.284l22.564-342.595h-64.314z" fill="#fdd8a3"/><path d="m98.195 313.659h236.145c4.257 0 7.784-3.302 8.064-7.55l8.716-132.331c.307-4.662-3.392-8.612-8.064-8.612h-253.577c-4.672 0-8.371 3.95-8.064 8.612l8.716 132.331c.28 4.248 3.807 7.55 8.064 7.55z" fill="#fcb143"/><path d="m343.056 165.166h-60.754l-9.78 148.493h61.818c4.257 0 7.784-3.302 8.063-7.55l8.716-132.331c.308-4.662-3.391-8.612-8.063-8.612z" fill="#fba615"/><path d="m346.408 67.86h-260.281l3.96-42.403c.95-10.178 9.492-17.959 19.715-17.959h212.933c10.222 0 18.764 7.781 19.715 17.959z" fill="#586b76"/><path d="m342.448 25.457c-.95-10.178-9.492-17.959-19.715-17.959h-29.683l1.773 18.981c.766 8.2-5.686 15.282-13.921 15.282h-192.338l-2.437 26.1h260.281z" fill="#465961"/><ellipse cx="205.893" cy="257.511" fill="#a64c31" rx="41.326" ry="28.781"/><path d="m215.201 229.472c5.892 4.974 9.431 11.351 9.431 18.303 0 15.896-18.502 28.781-41.326 28.781-3.202 0-6.315-.262-9.308-.742 7.58 6.399 19.053 10.479 31.895 10.479 22.824 0 41.326-12.886 41.326-28.781 0-13.666-13.68-25.099-32.018-28.04z" fill="#8a3e25"/><ellipse cx="224.632" cy="230.91" fill="#c05939" rx="28.781" ry="41.326" transform="matrix(.798 -.602 .602 .798 -93.758 181.85)"/><path d="m247.609 213.577c-10.334-13.698-25.01-21.058-37.051-19.801 8.079 3.079 16.151 9.131 22.555 17.621 13.745 18.221 14.601 40.752 1.911 50.324-3.15 2.376-6.838 3.728-10.814 4.143 9.261 3.529 18.532 3.15 25.309-1.962 12.69-9.573 11.835-32.105-1.91-50.325z" fill="#a64c31"/><path d="m454.508 405.057c0 10.799-8.079 20.191-11.243 29.936-3.279 10.099-2.376 22.423-8.494 30.829-6.179 8.49-18.221 11.411-26.711 17.59-8.406 6.118-14.872 16.703-24.971 19.982-9.744 3.164-21.152-1.495-31.951-1.495s-22.207 4.659-31.952 1.495c-10.099-3.279-16.565-13.864-24.971-19.982-8.49-6.179-20.532-9.1-26.711-17.59-6.118-8.406-5.214-20.73-8.493-30.829-3.164-9.744-11.243-19.136-11.243-29.935s8.079-20.191 11.243-29.936c3.279-10.099 2.376-22.423 8.494-30.829 6.179-8.49 18.221-11.411 26.711-17.59 8.406-6.118 14.872-16.703 24.971-19.982 9.744-3.164 21.152 1.495 31.951 1.495s22.207-4.659 31.952-1.495c10.099 3.279 16.565 13.864 24.971 19.982 8.49 6.179 20.532 9.1 26.711 17.591 6.118 8.406 5.214 20.73 8.493 30.829 3.164 9.743 11.243 19.135 11.243 29.934z" fill="#c05939"/><path d="m443.265 375.122c-3.279-10.099-2.376-22.423-8.494-30.829-4.705-6.466-12.808-9.704-20.156-13.608.326 1.487.698 2.95 1.159 4.367 3.164 9.744 11.243 19.136 11.243 29.935s-8.079 20.191-11.243 29.936c-3.279 10.099-2.376 22.423-8.494 30.829-6.179 8.49-18.221 11.411-26.711 17.59-8.406 6.118-14.872 16.703-24.971 19.982-9.744 3.164-21.152-1.495-31.951-1.495s-22.207 4.659-31.952 1.495c-10.099-3.279-16.565-13.864-24.972-19.982-2.025-1.473-4.254-2.759-6.555-3.982 2 9.115 2.076 19.235 7.335 26.462 6.179 8.49 18.22 11.412 26.711 17.591 8.406 6.118 14.872 16.703 24.972 19.982 9.744 3.164 21.153-1.495 31.952-1.495s22.207 4.659 31.951 1.495c10.099-3.279 16.565-13.864 24.971-19.982 8.49-6.179 20.532-9.1 26.711-17.59 6.118-8.406 5.215-20.73 8.494-30.829 3.164-9.744 11.243-19.136 11.243-29.936s-8.079-20.192-11.243-29.936z" fill="#a64c31"/><path d="m369.043 87.982h-305.551c-3.314 0-6-2.686-6-6v-21.239c0-3.314 2.686-6 6-6h305.552c3.314 0 6 2.686 6 6v21.239c-.001 3.314-2.687 6-6.001 6z" fill="#586b76"/><path d="m369.045 54.743h-44.246v12.161c0 2.161-1.752 3.912-3.912 3.912h-263.395v11.168c0 3.313 2.685 5.998 5.998 5.998h305.556c3.313 0 5.998-2.685 5.998-5.998v-21.243c-.001-3.312-2.686-5.998-5.999-5.998z" fill="#465961"/><path d="m253.594 209.062c-7.562-10.024-17.499-17.433-27.982-20.862-11.442-3.743-22.23-2.417-30.383 3.734-8.153 6.149-12.391 16.161-11.936 28.189.063 1.655.226 3.324.466 4.997-16.19 6.073-26.691 18.546-26.691 32.391 0 20.343 21.446 36.279 48.824 36.279 19.635 0 37.22-8.649 44.828-21.773 1.143-.635 2.255-1.332 3.313-2.13 8.154-6.15 12.391-16.162 11.936-28.189-.418-11.022-4.813-22.612-12.375-32.636zm-49.334-5.158c2.774-2.092 5.974-2.772 8.963-2.772 3.006 0 5.799.687 7.727 1.319 7.598 2.486 14.939 8.04 20.674 15.64 5.733 7.601 9.059 16.186 9.362 24.175.153 4.044-.42 11.453-5.981 15.649-5.562 4.196-12.844 2.713-16.69 1.453-7.598-2.486-14.939-8.04-20.674-15.64-5.733-7.601-9.059-16.186-9.362-24.175-.154-4.043.419-11.454 5.981-15.649zm-32.196 53.607c0-7.229 6.195-14.024 15.877-17.931 1.992 4.561 4.581 9.006 7.729 13.178 7.562 10.024 17.499 17.433 27.982 20.862.875.286 1.745.535 2.611.762-5.76 2.784-12.872 4.412-20.37 4.412-18.337.001-33.829-9.746-33.829-21.283z"/><path d="m454.748 382.344c-1.739-3.367-3.382-6.547-4.352-9.538-1.039-3.197-1.616-6.863-2.227-10.744-1.141-7.24-2.434-15.446-7.335-22.181-4.944-6.794-12.37-10.553-18.923-13.87-3.48-1.762-6.768-3.427-9.439-5.371-2.614-1.902-5.173-4.488-7.883-7.225-5.195-5.247-11.083-11.195-19.184-13.826-7.79-2.529-15.58-1.29-23.113-.093-3.951.628-7.682 1.221-11.155 1.221-.282 0-.577-.026-.863-.033l8.326-126.414c.282-4.284-1.239-8.538-4.173-11.672-.039-.041-.082-.076-.122-.117l4.413-67.002h10.326c7.442 0 13.496-6.054 13.496-13.496v-21.241c0-7.442-6.054-13.496-13.496-13.496h-17.031l-2.099-22.487c-1.319-14.115-13.003-24.759-27.18-24.759h-212.933c-14.177 0-25.862 10.644-27.18 24.76l-2.1 22.487h-17.031c-7.442 0-13.496 6.054-13.496 13.496v21.242c0 7.442 6.054 13.496 13.496 13.496h10.326l4.413 67.003c-.039.041-.084.076-.123.118-2.934 3.134-4.455 7.387-4.171 11.671l8.715 132.331c.29 4.401 2.42 8.277 5.594 10.925l6.079 92.299c1.302 19.789 17.857 35.29 37.689 35.29h121.622c.16.962.315 1.94.472 2.935 1.141 7.24 2.434 15.446 7.336 22.181 4.945 6.794 12.372 10.554 18.924 13.872 3.48 1.762 6.767 3.426 9.436 5.368 2.614 1.903 5.173 4.488 7.883 7.225 5.196 5.247 11.083 11.196 19.185 13.827 7.79 2.528 15.58 1.29 23.113.093 3.951-.628 7.682-1.221 11.155-1.221s7.204.594 11.155 1.221c4.305.684 8.694 1.382 13.121 1.382 3.316 0 6.654-.391 9.991-1.475 8.101-2.63 13.99-8.578 19.184-13.826 2.71-2.737 5.27-5.323 7.884-7.225 2.67-1.944 5.957-3.608 9.437-5.37 6.553-3.317 13.98-7.077 18.923-13.87 4.051-5.566 5.627-12.168 6.635-17.893.718-4.079-2.007-7.966-6.085-8.684-4.085-.719-7.966 2.006-8.684 6.085-.745 4.237-1.745 8.583-3.99 11.667-2.816 3.871-8.04 6.515-13.572 9.316-3.855 1.952-7.843 3.97-11.487 6.623-3.595 2.616-6.707 5.761-9.718 8.801-4.381 4.426-8.521 8.607-13.158 10.112-4.361 1.418-10.079.508-16.127-.453-4.352-.692-8.853-1.408-13.509-1.408s-9.157.716-13.509 1.408c-6.049.962-11.763 1.872-16.127.453-4.638-1.505-8.777-5.687-13.16-10.114-3.01-3.039-6.121-6.183-9.716-8.799-3.645-2.652-7.631-4.67-11.487-6.623-5.531-2.801-10.755-5.445-13.574-9.318-2.775-3.814-3.684-9.583-4.647-15.69-.675-4.286-1.373-8.717-2.776-13.042-1.349-4.154-3.353-8.034-5.291-11.787-2.873-5.561-5.586-10.814-5.586-15.832 0-5.019 2.713-10.272 5.586-15.834 1.938-3.753 3.942-7.632 5.291-11.786 1.404-4.325 2.102-8.756 2.777-13.041.962-6.108 1.87-11.878 4.648-15.693 2.816-3.871 8.04-6.516 13.572-9.316 3.855-1.952 7.843-3.97 11.487-6.623 3.595-2.616 6.707-5.76 9.718-8.801 4.381-4.426 8.521-8.607 13.158-10.112 4.36-1.418 10.078-.509 16.127.453 4.352.692 8.853 1.408 13.509 1.408s9.157-.716 13.509-1.408c6.051-.961 11.767-1.87 16.127-.453 4.638 1.505 8.777 5.687 13.159 10.113 3.01 3.04 6.122 6.184 9.717 8.799 3.645 2.653 7.633 4.672 11.489 6.625 5.53 2.801 10.754 5.445 13.572 9.317 2.775 3.814 3.684 9.583 4.647 15.69.675 4.286 1.373 8.717 2.776 13.042 1.349 4.154 3.353 8.034 5.292 11.788 2.872 5.561 5.585 10.814 5.585 15.832 0 4.089-1.831 8.352-3.811 12.349-1.838 3.711-.319 8.208 3.391 10.046 3.709 1.839 8.207.32 10.046-3.391 2.655-5.361 5.369-11.811 5.369-19.004 0-8.661-3.856-16.126-7.258-22.713zm-389.758-320.103h200.684c4.141 0 7.498-3.356 7.498-7.498s-3.356-7.498-7.498-7.498h-170.092l1.97-21.093c.594-6.361 5.859-11.158 12.249-11.158h212.933c6.389 0 11.655 4.797 12.25 11.158l1.969 21.093h-37.957c-4.141 0-7.498 3.356-7.498 7.498s3.356 7.498 7.498 7.498h68.55v18.243h-302.556zm278.702 33.239-4.096 62.189h-246.657l-4.096-62.189zm-26.822 204.109c-4.396 1.428-8.136 3.834-11.471 6.573h-151.024c-4.141 0-7.498 3.356-7.498 7.498s3.356 7.498 7.498 7.498h134.685c-2.527 1.725-5.528 3.25-8.694 4.853-6.553 3.317-13.98 7.077-18.924 13.87-4.902 6.736-6.195 14.942-7.336 22.183-.612 3.88-1.189 7.545-2.228 10.743-.97 2.99-2.612 6.17-4.351 9.536-3.402 6.587-7.258 14.053-7.258 22.715 0 8.661 3.856 16.127 7.257 22.713.41.794.814 1.577 1.206 2.351h-116.72c-11.958 0-21.941-9.348-22.727-21.28l-5.775-87.684h17.876c4.141 0 7.498-3.356 7.498-7.498s-3.356-7.498-7.498-7.498h-23.191c-.307 0-.562-.24-.583-.546l-8.715-132.331c-.004-.062-.017-.253.156-.437s.364-.185.427-.185h253.576c.062 0 .253 0 .426.185.174.185.161.376.157.437l-8.267 125.511c-6.08-.843-12.29-1.224-18.502.793z"/><circle cx="306.021" cy="376.798" r="8.436"/><circle cx="351.137" cy="376.798" r="8.436"/><circle cx="396.254" cy="376.798" r="8.436"/><circle cx="306.021" cy="432.353" r="8.436"/><circle cx="351.137" cy="432.353" r="8.436"/><circle cx="396.254" cy="432.353" r="8.436"/><circle cx="328.552" cy="404.575" r="8.435"/><circle cx="373.668" cy="404.575" r="8.436"/><circle cx="328.552" cy="349.02" r="8.436"/><circle cx="373.668" cy="349.02" r="8.436"/><circle cx="328.552" cy="460.131" r="8.435"/><circle cx="373.668" cy="460.131" r="8.436"/><path d="m224.772 243.023c1.478 1.896 3.686 2.887 5.917 2.887 1.612 0 3.236-.517 4.606-1.585 3.266-2.546 3.847-7.257 1.301-10.523l-10.996-14.1c-2.546-3.266-7.257-3.847-10.523-1.301s-3.847 7.257-1.301 10.523z"/></svg>