<svg id="Capa_1" enable-background="new 0 0 512.004 512.004" height="512" viewBox="0 0 512.004 512.004" width="512" xmlns="http://www.w3.org/2000/svg"><g><path d="m265.489 204.424c-5.681 1.231-11.579 1.88-17.629 1.88-45.748 0-82.833-37.086-82.833-82.833s37.086-82.833 82.833-82.833 82.833 37.086 82.833 82.833c0 11.781-2.46 22.988-6.893 33.134z" fill="#ffc269"/><path d="m247.86 40.637c-3.904 0-7.739.29-11.5.813 40.301 5.601 71.333 40.177 71.333 82.021 0 11.781-2.459 22.988-6.893 33.134l-58.312 47.819c-1.996.433-4.02.789-6.067 1.075 3.741.517 7.555.805 11.439.805 6.05 0 11.948-.648 17.629-1.88l58.312-47.819c4.434-10.147 6.893-21.353 6.893-33.134 0-45.748-37.086-82.834-82.834-82.834z" fill="#faa75d"/><path d="m264.73 170.234c-5.267 1.9-10.947 2.936-16.87 2.936-27.449 0-49.7-22.251-49.7-49.7s22.251-49.7 49.7-49.7c27.448 0 49.7 22.251 49.7 49.7 0 12.73-4.786 24.342-12.657 33.136z" fill="#faa75d"/><g><path d="m400.46 156.605 10.694-96.249c.389-3.503 2.952-6.376 6.388-7.161l57.094-13.039c4.486-.897 7.395-5.261 6.498-9.747l-3.249-16.245c-.897-4.486-5.261-7.395-9.747-6.498l-74.711 16.726c-7.075 1.415-12.42 7.245-13.217 14.416l-13.088 117.795v16.567h33.337v-16.565z" fill="#bae9f5"/><g><path d="m400.46 156.605 10.694-96.249c.389-3.503 2.952-6.376 6.388-7.161l57.094-13.039c4.486-.897 7.395-5.261 6.498-9.747l-3.249-16.245c-.897-4.486-5.261-7.395-9.747-6.498l-74.711 16.726c-7.075 1.415-12.42 7.245-13.217 14.416l-13.088 117.795v16.567h33.337v-16.565z" fill="#faf8fa"/></g><path d="m481.135 30.41-3.249-16.245c-.897-4.486-5.261-7.395-9.747-6.498l-14.661 3.282c.673.932 1.168 2.015 1.408 3.216l3.249 16.245c.897 4.486-2.012 8.85-6.498 9.747l-57.094 13.039c-3.436.785-5.999 3.658-6.388 7.161l-10.694 96.249v16.566h23v-16.566l10.694-96.249c.389-3.503 2.952-6.376 6.388-7.161l57.094-13.039c4.486-.898 7.395-5.261 6.498-9.747z" fill="#eceaec"/></g><path d="m463.227 504.504h-166.233c-4.418 0-8-3.582-8-8v-34.133h182.233v34.133c0 4.418-3.582 8-8 8z" fill="#faf8fa"/><path d="m448.227 462.371v34.133c0 4.418-3.582 8-8 8h23c4.418 0 8-3.582 8-8v-34.133z" fill="#eceaec"/><path d="m267.81 471.371h204.393c4.255 0 7.765-3.331 7.989-7.58l15.725-298.766c.241-4.577-3.405-8.42-7.989-8.42h-215.321c-4.488 0-8.098 3.691-7.998 8.178l2.027 91.221z" fill="#81d2eb"/><path d="m487.928 156.605h-23c4.583 0 8.23 3.843 7.989 8.421l-15.724 298.766c-.224 4.249-3.734 7.58-7.989 7.58h23c4.255 0 7.765-3.331 7.989-7.58l15.724-298.766c.241-4.578-3.405-8.421-7.989-8.421z" fill="#84b5e8"/><path d="m300.644 438.237h139.348c4.399 0 8.03-3.438 8.271-7.831l11.806-215.665c.251-4.583-3.398-8.437-7.988-8.437h-145.228c-4.488 0-8.098 3.691-7.998 8.178l1.154 51.877z" fill="#fdbf00"/><path d="m300.644 438.237h139.348c4.399 0 8.03-3.438 8.271-7.831l11.806-215.665c.251-4.583-3.398-8.437-7.988-8.437h-145.228c-4.488 0-8.098 3.691-7.998 8.178l1.154 51.877z" fill="#ffd97d"/><path d="m452.081 206.304h-23c4.59 0 8.239 3.854 7.988 8.437l-11.806 215.665c-.241 4.392-3.872 7.831-8.271 7.831h23c4.399 0 8.03-3.439 8.271-7.831l11.806-215.665c.251-4.583-3.398-8.437-7.988-8.437z" fill="#ffc269"/><g><g><path d="m32.21 355.404c-9.149 0-16.567 7.417-16.567 16.567v16.567c0 9.149 7.417 16.567 16.567 16.567v12.4h281.633v-12.4c9.15 0 16.567-7.417 16.567-16.567 0-3.021 0-13.546 0-16.567 0-9.15-7.417-16.567-16.567-16.567v-8.283h-281.7z" fill="#966a5b"/><path d="m313.844 355.404v-8.283h-23v8.283c9.15 0 16.567 7.417 16.567 16.567v16.567c0 9.15-7.417 16.567-16.567 16.567v12.4h23v-12.4c9.15 0 16.567-7.417 16.567-16.567 0-3.021 0-13.546 0-16.567-.001-9.15-7.418-16.567-16.567-16.567z" fill="#8a5a51"/></g><path d="m330.41 421.671v33.133c0 27.449-22.251 49.7-49.7 49.7h-215.366c-27.449 0-49.7-22.251-49.7-49.7v-33.133c0-9.15 7.417-16.567 16.567-16.567h281.633c9.149 0 16.566 7.417 16.566 16.567z" fill="#f4dbb3"/><path d="m15.644 338.837v-16.567c0-36.598 29.669-66.267 66.267-66.267h182.233c36.598 0 66.267 29.669 66.267 66.267v16.567c0 9.15-7.417 16.567-16.567 16.567h-281.634c-9.149 0-16.566-7.417-16.566-16.567z" fill="#f4dbb3"/><path d="m264.144 256.004h-23c36.598 0 66.267 29.669 66.267 66.267v16.567c0 9.15-7.417 16.567-16.567 16.567h23c9.15 0 16.567-7.417 16.567-16.567v-16.568c-.001-36.598-29.669-66.266-66.267-66.266z" fill="#eac89f"/><path d="m214.444 405.104-78.634 47.144c-2.624 1.573-5.901 1.572-8.524-.003l-78.509-47.142h165.667z" fill="#ffc269"/><path d="m313.844 405.104h-23c9.15 0 16.567 7.417 16.567 16.567v33.133c0 27.448-22.251 49.7-49.7 49.7h23c27.448 0 49.7-22.251 49.7-49.7v-33.133c-.001-9.15-7.418-16.567-16.567-16.567z" fill="#eac89f"/><path d="m191.444 405.104-71.388 42.8 7.23 4.341c2.623 1.575 5.9 1.576 8.524.003l78.634-47.144z" fill="#faa75d"/></g></g><path d="m501.801 151.443c-1.416-1.493-3.383-2.338-5.44-2.338h-87.237l9.769-87.921c.037-.331.279-.602.604-.676l57.009-13.02c4.086-.848 7.607-3.223 9.924-6.699 2.338-3.508 3.171-7.717 2.344-11.85l-3.249-16.244c-.826-4.134-3.213-7.7-6.722-10.039-3.508-2.339-7.716-3.172-11.851-2.344-.057.011-.112.023-.168.036l-74.635 16.708c-10.276 2.095-17.949 10.493-19.107 20.924l-12.347 111.125h-26.191c2.449-8.272 3.69-16.855 3.69-25.634 0-49.81-40.523-90.333-90.333-90.333s-90.334 40.523-90.334 90.333 40.524 90.333 90.334 90.333c3.453 0 6.902-.202 10.323-.592l.784 35.292h-177.058c-40.675 0-73.767 33.091-73.767 73.767v16.567c0 6.415 2.528 12.248 6.634 16.566-4.106 4.319-6.634 10.151-6.634 16.567v16.566c0 6.415 2.528 12.248 6.634 16.567-4.106 4.319-6.634 10.151-6.634 16.566v33.133c0 31.54 25.66 57.2 57.2 57.2h9.85c4.143 0 7.5-3.358 7.5-7.5s-3.357-7.5-7.5-7.5h-9.85c-23.27 0-42.2-18.931-42.2-42.2v-33.133c0-4.999 4.067-9.066 9.066-9.066h14.488l76.727 46.071c2.505 1.504 5.314 2.257 8.125 2.257 2.806 0 5.612-.751 8.116-2.251l76.854-46.077h97.324c4.999 0 9.066 4.067 9.066 9.066v33.133c0 23.27-18.931 42.2-42.2 42.2h-175.516c-4.143 0-7.5 3.358-7.5 7.5s3.357 7.5 7.5 7.5h175.517c3.793 0 7.498-.38 11.087-1.088 1.823.716 3.772 1.088 5.764 1.088h165.666c8.703 0 15.784-7.081 15.784-15.783v-17.35h.783c3.989 0 7.28-3.123 7.489-7.106l16.566-314.766c.109-2.054-.631-4.063-2.048-5.555zm-113.852-111.808c.438-3.941 3.344-7.111 7.232-7.889.056-.011.112-.023.168-.036l74.585-16.697c.2-.031.38.012.547.123.179.119.291.287.333.498l3.249 16.246c.042.211.003.409-.116.588s-.287.292-.498.333c-.066.014-.133.028-.199.043l-57.094 13.039c-6.541 1.494-11.433 6.977-12.172 13.644l-9.953 89.577h-18.245zm-140.089 159.169c-41.539 0-75.334-33.794-75.334-75.333s33.795-75.333 75.334-75.333 75.333 33.794 75.333 75.333c0 8.846-1.52 17.445-4.489 25.634h-19.713c3.958-7.89 6.069-16.648 6.069-25.634 0-15.476-6.188-29.527-16.207-39.835-.169-.211-.35-.416-.546-.612s-.401-.376-.612-.546c-10.308-10.02-24.359-16.208-39.836-16.208s-29.528 6.188-39.836 16.209c-.211.169-.415.349-.611.545s-.376.401-.546.612c-10.019 10.308-16.207 24.359-16.207 39.835s6.188 29.526 16.206 39.834c.17.211.35.417.546.613s.401.377.613.547c10.308 10.019 24.359 16.207 39.834 16.207 3.232 0 6.432-.273 9.582-.805l.406 18.255c-3.3.435-6.638.682-9.986.682zm11.205-47.443c-1.41 1.443-2.181 3.393-2.136 5.411l.175 7.882c-3.016.674-6.108 1.017-9.243 1.017-8.931 0-17.217-2.796-24.044-7.549l24.044-24.044 15.163 15.163c-1.495.285-2.88 1.016-3.959 2.12zm30.996-27.89c0 8.659-2.653 17.028-7.537 24.057l-24.057-24.057 24.045-24.044c4.752 6.827 7.549 15.113 7.549 24.044zm-42.201-10.607-24.044-24.044c6.828-4.752 15.114-7.549 24.045-7.549s17.217 2.797 24.045 7.549zm-42.2 10.607c0-8.931 2.796-17.217 7.549-24.044l24.044 24.044-24.044 24.044c-4.752-6.828-7.549-15.114-7.549-24.044zm-182.516 198.799c0-32.404 26.362-58.767 58.767-58.767h35.696c-1.143 2.8-1.779 5.86-1.779 9.067 0 4.142 3.357 7.5 7.5 7.5s7.5-3.358 7.5-7.5c0-5 4.067-9.067 9.066-9.067h10.845c-1.143 2.8-1.779 5.86-1.779 9.067 0 4.142 3.357 7.5 7.5 7.5s7.5-3.358 7.5-7.5c0-5 4.067-9.067 9.066-9.067 5 0 9.067 4.067 9.067 9.067 0 4.142 3.357 7.5 7.5 7.5s7.5-3.358 7.5-7.5c0-3.207-.636-6.267-1.779-9.067h10.846c4.999 0 9.066 4.067 9.066 9.067 0 4.142 3.357 7.5 7.5 7.5s7.5-3.358 7.5-7.5c0-3.207-.635-6.267-1.779-9.067h35.696c32.404 0 58.767 26.363 58.767 58.767v16.567c0 4.999-4.067 9.066-9.066 9.066h-281.634c-4.999 0-9.066-4.067-9.066-9.066zm283.198-108.466h146.267l-11.835 216.193c-.023.415-.365.74-.781.74h-102.083v-9.067c0-6.415-2.528-12.248-6.634-16.566 4.106-4.319 6.634-10.151 6.634-16.567v-16.566c0-6.416-2.528-12.248-6.634-16.567 4.106-4.319 6.634-10.151 6.634-16.566v-16.568c0-24.514-12.03-46.259-30.484-59.68zm-174.388 232.011c-.25.149-.559.149-.807 0l-55.311-33.212h111.512zm131.406-48.211v-9.067c0-4.142-3.357-7.5-7.5-7.5s-7.5 3.358-7.5 7.5v9.067h-67.834v-9.067c0-4.142-3.357-7.5-7.5-7.5s-7.5 3.358-7.5 7.5v9.067h-67.833v-9.067c0-4.142-3.357-7.5-7.5-7.5s-7.5 3.358-7.5 7.5v9.067h-50.483c-4.999 0-9.066-4.067-9.066-9.067v-16.566c0-5 4.067-9.067 9.066-9.067h281.634c4.999 0 9.066 4.067 9.066 9.067v16.566c0 5-4.067 9.067-9.066 9.067zm200.651 98.617c0 .432-.352.783-.784.783h-143.948c5.55-5.077 10.09-11.236 13.303-18.133h131.429zm8.668-32.35h-1.168-134.327c.473-2.955.726-5.981.726-9.067v-9.066h102.082c8.379 0 15.302-6.554 15.759-14.92l12.269-224.103c.112-2.058-.627-4.07-2.043-5.566s-3.386-2.344-5.446-2.344h-161.858c-2.018 0-3.951.813-5.362 2.256-1.41 1.443-2.181 3.393-2.136 5.411l1.058 47.604c-5.754-2.379-11.874-4.04-18.247-4.895l-.996-44.823c0-.01 0-.021-.001-.031l-.894-40.221h216.359z"/></svg>