<svg id="Capa_1" enable-background="new 0 0 512 512" height="512" viewBox="0 0 512 512" width="512" xmlns="http://www.w3.org/2000/svg"><g><g><path d="m109.159 143.046v-6.818h293.682v6.818l-21.267 340.273c-.744 11.906-10.618 21.182-22.547 21.182h-206.054c-11.93 0-21.803-9.276-22.547-21.182z" fill="#b3e59f"/><path d="m222.114 448.023v-22.591c0-6.238-5.057-11.295-11.295-11.295h-22.591c-6.238 0-11.296 5.057-11.296 11.295v22.591c0 6.238 5.057 11.296 11.296 11.296h22.591c6.238-.001 11.295-5.058 11.295-11.296z" fill="#d6e0ff"/><path d="m109.159 97.864 16.347-32.694c3.827-7.653 11.649-12.488 20.206-12.488h24.919c3.754 0 7.027-2.555 7.938-6.197l5.468-21.873c2.513-10.057 11.549-17.112 21.916-17.112h43.812c10.397 0 19.451 7.096 21.936 17.191l5.357 21.764c.9 3.656 4.179 6.226 7.945 6.226h81.285c8.557 0 16.379 4.835 20.206 12.488l16.347 32.694v9.591h-293.682z" fill="#e6dedd"/><path d="m109.159 97.864 16.347-32.694c3.827-7.653 11.649-12.488 20.206-12.488h24.919c3.754 0 7.027-2.555 7.938-6.197l5.468-21.873c2.513-10.057 11.549-17.112 21.916-17.112h43.812c10.397 0 19.451 7.096 21.936 17.191l5.357 21.764c.9 3.656 4.179 6.226 7.945 6.226h81.285c8.557 0 16.379 4.835 20.206 12.488l16.347 32.694v9.591h-293.682z" fill="#faf8fa"/><path d="m379.841 136.227v6.818l-21.267 340.273c-.744 11.906-10.618 21.182-22.547 21.182h23c11.93 0 21.803-9.276 22.547-21.182l21.267-340.273v-6.818z" fill="#8ad689"/><g fill="#eceaec"><path d="m386.494 65.17c-3.827-7.654-11.649-12.488-20.206-12.488h-23c8.557 0 16.379 4.835 20.206 12.488l16.347 32.694v9.591h23v-9.591z"/><path d="m248.701 24.691 5.357 21.764c.9 3.656 4.179 6.226 7.945 6.226h23c-3.766 0-7.045-2.57-7.945-6.226l-5.357-21.764c-2.485-10.095-11.539-17.191-21.936-17.191h-23c10.397 0 19.451 7.096 21.936 17.191z"/></g></g><path d="m335.068 301.182h-67.773c-6.238 0-11.295-5.057-11.295-11.295v-72.087c0-4.278 2.417-8.19 6.244-10.103l34.059-17.03c3.071-1.536 6.686-1.536 9.757 0l34.059 17.03c3.827 1.913 6.244 5.825 6.244 10.103v72.087c.001 6.238-5.057 11.295-11.295 11.295z" fill="#faf8fa"/><path d="m340.12 207.696-34.059-17.029c-3.071-1.536-6.686-1.536-9.757 0l-10.803 5.402 23.256 11.628c3.827 1.913 6.244 5.825 6.244 10.103v72.087c0 6.238-5.057 11.295-11.295 11.295h31.364c6.238 0 11.296-5.057 11.296-11.295v-72.087c-.002-4.279-2.42-8.19-6.246-10.104z" fill="#eceaec"/><g><path d="m417.432 143.046h-322.864c-4.418 0-8-3.582-8-8v-29.182c0-4.418 3.582-8 8-8h322.864c4.418 0 8 3.582 8 8v29.182c0 4.418-3.582 8-8 8z" fill="#d6e0ff"/><path d="m417.432 97.864h-23c4.418 0 8 3.582 8 8v29.182c0 4.418-3.582 8-8 8h23c4.418 0 8-3.582 8-8v-29.182c0-4.419-3.582-8-8-8z" fill="#c2d1ff"/></g></g><g><path d="m394.993 268.613c-4.129-.27-7.695 2.884-7.953 7.018l-12.951 207.22c-.496 7.934-7.111 14.149-15.062 14.149h-137.985c-4.143 0-7.5 3.358-7.5 7.5s3.357 7.5 7.5 7.5h137.985c15.852 0 29.044-12.393 30.032-28.214l12.951-207.22c.26-4.134-2.883-7.695-7.017-7.953z"/><path d="m417.432 90.364h-9.956l-14.274-28.548c-5.131-10.26-15.443-16.634-26.914-16.634h-81.819l-5.485-22.283c-3.319-13.483-15.335-22.899-29.219-22.899h-43.813c-13.832 0-25.836 9.373-29.192 22.793l-5.597 22.389h-25.451c-11.471 0-21.783 6.374-26.914 16.634l-14.274 28.548h-9.956c-8.547 0-15.5 6.953-15.5 15.5v29.182c0 8.547 6.953 15.5 15.5 15.5h7.545l20.827 333.241c.989 15.82 14.181 28.213 30.033 28.213h27.16c4.143 0 7.5-3.358 7.5-7.5s-3.357-7.5-7.5-7.5h-27.16c-7.95 0-14.566-6.215-15.062-14.149l-20.769-332.305h176.539v33.047l-34.791 17.395c-6.409 3.204-10.391 9.645-10.391 16.811v72.087c0 10.364 8.432 18.795 18.796 18.795h67.772c10.363 0 18.795-8.432 18.795-18.795v-72.087c0-7.165-3.98-13.607-10.389-16.811l-34.793-17.396v-33.047h86.176l-5.283 84.532c-.259 4.134 2.884 7.695 7.018 7.953 4.145.25 7.695-2.884 7.953-7.018l5.342-85.468h7.545c8.547 0 15.5-6.953 15.5-15.5v-29.182c.001-8.545-6.953-15.498-15.499-15.498zm-78.569 127.435v72.087c0 2.093-1.702 3.795-3.795 3.795h-67.772c-2.093 0-3.796-1.703-3.796-3.795v-72.087c0-1.447.804-2.747 2.099-3.395l35.583-17.792 35.584 17.792c1.294.647 2.097 1.948 2.097 3.395zm-206.649-149.275c2.573-5.146 7.745-8.342 13.498-8.342h31.307 22.591c4.143 0 7.5-3.358 7.5-7.5s-3.357-7.5-7.5-7.5h-12.985l4.688-18.75c1.683-6.73 7.703-11.431 14.64-11.431h43.813c6.964 0 12.989 4.723 14.654 11.484l6.89 27.99c.824 3.352 3.831 5.707 7.282 5.707h87.697c5.753 0 10.925 3.197 13.498 8.342l10.92 21.84h-269.413zm285.718 66.521c0 .276-.225.5-.5.5h-14.591-293.682-14.591c-.275 0-.5-.224-.5-.5v-29.182c0-.276.225-.5.5-.5h14.591 293.682 14.591c.275 0 .5.224.5.5z"/><path d="m229.613 448.022v-22.591c0-10.364-8.432-18.795-18.795-18.795h-22.591c-10.364 0-18.796 8.432-18.796 18.795v22.591c0 10.364 8.432 18.796 18.796 18.796h22.591c10.364 0 18.795-8.431 18.795-18.796zm-15 0c0 2.093-1.702 3.796-3.795 3.796h-22.591c-2.093 0-3.796-1.703-3.796-3.796v-22.591c0-2.093 1.703-3.795 3.796-3.795h22.591c2.093 0 3.795 1.703 3.795 3.795z"/><path d="m288.034 256c0 4.142 3.357 7.5 7.5 7.5h11.295c4.143 0 7.5-3.358 7.5-7.5s-3.357-7.5-7.5-7.5h-11.295c-4.142 0-7.5 3.358-7.5 7.5z"/></g></svg>