<svg id="Capa_1" enable-background="new 0 0 512 512" height="512" viewBox="0 0 512 512" width="512" xmlns="http://www.w3.org/2000/svg"><g><g><path d="m458.366 54.17c9.315 0 16.866 7.551 16.866 16.866v359.794l-16.866 27-16.866-27v-359.794c0-9.315 7.551-16.866 16.866-16.866z" fill="#eceaec"/><path d="m441.5 412.83v18l16.866 27 16.866-27v-18l-12.625 20.211c-1.958 3.135-6.523 3.135-8.481 0z" fill="#dad8db"/><path d="m377.769 504h-311c-16.569 0-30-13.431-30-30v-436c0-16.569 13.431-30 30-30h311c16.568 0 30 13.431 30 30v436c0 16.569-13.432 30-30 30z" fill="#eceaec"/><path d="m377.769 486h-311c-16.569 0-30-13.431-30-30v18c0 16.569 13.431 30 30 30h311c16.568 0 30-13.431 30-30v-18c0 16.569-13.432 30-30 30z" fill="#dad8db"/><path d="m366.948 444.691h-289.359c-5.523 0-10-4.477-10-10v-385.87c0-5.523 4.477-10 10-10h289.358c5.523 0 10 4.477 10 10v385.87c.001 5.523-4.476 10-9.999 10z" fill="#bed8fb"/><path d="m366.948 426.691h-289.359c-5.523 0-10-4.477-10-10v18c0 5.523 4.477 10 10 10h289.359c5.523 0 10-4.477 10-10v-18c0 5.523-4.477 10-10 10z" fill="#a3caf7"/><path d="m220.912 336.185c31.159 0 56.418-21.263 56.418-61.095 0-49.712-22.288-113.248-56.418-113.248-34.129 0-56.418 63.536-56.418 113.248 0 39.832 25.259 61.095 56.418 61.095z" fill="#b3e59f"/><path d="m220.912 318.185c-29.135 0-53.106-18.594-56.098-53.572-.209 3.541-.319 7.043-.319 10.477 0 39.832 25.259 61.095 56.418 61.095s56.418-21.263 56.418-61.095c0-3.434-.11-6.936-.32-10.477-2.993 34.978-26.965 53.572-56.099 53.572z" fill="#95d6a4"/></g><g><g><path d="m378.007 512h-311.609c-20.718 0-37.573-16.855-37.573-37.573v-318.39c0-4.15 3.364-7.515 7.515-7.515s7.515 3.364 7.515 7.515v318.389c0 12.431 10.113 22.544 22.544 22.544h311.609c12.431 0 22.544-10.113 22.544-22.544v-436.853c0-12.431-10.113-22.544-22.544-22.544h-311.61c-12.431 0-22.544 10.113-22.544 22.544v88.405c0 4.15-3.365 7.515-7.515 7.515s-7.515-3.365-7.515-7.515v-88.405c.001-20.718 16.856-37.573 37.574-37.573h311.609c20.718 0 37.573 16.855 37.573 37.573v436.853c0 20.719-16.855 37.574-37.573 37.574z"/><path d="m367.164 452.575h-289.924c-9.668 0-17.534-7.866-17.534-17.534v-386.626c0-9.668 7.866-17.534 17.534-17.534h289.924c9.668 0 17.534 7.866 17.534 17.534v268.262c0 4.15-3.364 7.515-7.515 7.515s-7.515-3.365-7.515-7.515v-268.262c0-1.381-1.123-2.505-2.505-2.505h-289.923c-1.381 0-2.505 1.124-2.505 2.505v386.625c0 1.381 1.124 2.505 2.505 2.505h289.924c1.382 0 2.505-1.124 2.505-2.505v-88.305c0-4.15 3.364-7.515 7.515-7.515s7.515 3.365 7.515 7.515v88.305c0 9.669-7.866 17.535-17.535 17.535z"/><path d="m241.679 482.379h-38.954c-4.15 0-7.515-3.365-7.515-7.515s3.364-7.515 7.515-7.515h38.954c4.15 0 7.515 3.365 7.515 7.515s-3.364 7.515-7.515 7.515z"/><path d="m458.762 465.739c-2.592 0-5-1.335-6.374-3.533l-16.899-27.053c-.746-1.194-1.141-2.573-1.141-3.981v-360.498c0-13.461 10.951-24.413 24.413-24.413s24.414 10.952 24.414 24.413v70.334c0 4.15-3.364 7.515-7.515 7.515s-7.515-3.365-7.515-7.515v-70.334c0-5.174-4.209-9.384-9.384-9.384-5.174 0-9.384 4.21-9.384 9.384v358.343l9.384 15.022 9.384-15.022v-257.951c0-4.15 3.364-7.515 7.515-7.515s7.515 3.364 7.515 7.515v260.105c0 1.408-.395 2.787-1.141 3.981l-16.898 27.053c-1.373 2.199-3.782 3.534-6.374 3.534z"/><g><path d="m284.83 275.09c0-26.454-6.003-55.73-16.059-78.316-12.183-27.362-29.179-42.432-47.86-42.432-21.795 0-41.242 20.628-53.355 56.597-1.322 3.925.788 8.179 4.714 9.501 3.922 1.319 8.179-.788 9.502-4.714 9.781-29.044 24.413-46.384 39.14-46.384 7.181 0 21.166 4.356 34.156 33.533 9.244 20.762 14.762 47.758 14.762 72.215 0 29.727-16.014 49.841-41.418 53.115v-79.191c0-4.142-3.358-7.5-7.5-7.5s-7.5 3.358-7.5 7.5v79.191c-25.404-3.274-41.418-23.387-41.418-53.114 0-10.066.932-20.599 2.769-31.307.7-4.083-2.041-7.96-6.124-8.66-4.08-.702-7.96 2.042-8.66 6.124-1.98 11.543-2.984 22.93-2.984 33.843 0 43.655 27.25 65.078 56.417 68.183v33.376h-45.812c-4.142 0-7.5 3.358-7.5 7.5s3.358 7.5 7.5 7.5h109.182c4.143 0 7.5-3.358 7.5-7.5s-3.357-7.5-7.5-7.5h-48.37v-33.376c29.168-3.105 56.418-24.528 56.418-68.184z"/><path d="m256.401 85.563c-.056-.002-.442-.022-.623-.017-2.9-.02-15.041.588-25.318 11.436-10.277-10.848-22.418-11.456-25.318-11.436-.181-.005-.567.015-.623.017-3.883.284-6.947 3.525-6.947 7.48 0 4.142 3.358 7.5 7.5 7.5.06 0 .178-.004.178-.004.47-.008 11.486-.178 18.646 12.767 1.321 2.388 3.834 3.87 6.563 3.87s5.242-1.482 6.563-3.87c7.16-12.945 18.176-12.775 18.646-12.767 0 0 .118.004.178.004 4.142 0 7.5-3.358 7.5-7.5.002-3.955-3.062-7.196-6.945-7.48z"/><path d="m328.811 152.782c-.056-.002-.442-.022-.623-.017-2.9-.02-15.041.588-25.318 11.436-10.277-10.848-22.418-11.456-25.318-11.436-.181-.005-.567.015-.623.017-3.883.284-6.947 3.525-6.947 7.48 0 4.142 3.358 7.5 7.5 7.5.06 0 .178-.004.178-.004.47-.008 11.486-.178 18.646 12.767 1.321 2.388 3.834 3.87 6.563 3.87s5.242-1.482 6.563-3.87c7.16-12.945 18.176-12.775 18.646-12.767 0 0 .118.004.178.004 4.142 0 7.5-3.358 7.5-7.5.001-3.955-3.062-7.196-6.945-7.48z"/><path d="m163.29 144.465c-.056-.002-.442-.022-.623-.017-2.9-.02-15.041.588-25.318 11.436-10.277-10.848-22.418-11.456-25.318-11.436-.181-.005-.567.015-.623.017-3.883.284-6.947 3.525-6.947 7.48 0 4.142 3.358 7.5 7.5 7.5.06 0 .179-.004.179-.004.47-.008 11.486-.178 18.646 12.767 1.321 2.388 3.834 3.87 6.563 3.87s5.242-1.482 6.563-3.87c7.16-12.945 18.176-12.775 18.646-12.767 0 0 .118.004.178.004 4.142 0 7.5-3.358 7.5-7.5.001-3.955-3.063-7.196-6.946-7.48z"/></g></g></g></g></svg>