<svg id="Capa_1" enable-background="new 0 0 512 512" height="512" viewBox="0 0 512 512" width="512" xmlns="http://www.w3.org/2000/svg"><g><g><path d="m352.022 118.041 14.792-92.735c1.491-9.349-5.731-17.815-15.198-17.815-7.572 0-14.019 5.508-15.201 12.986l-15.429 97.565z" fill="#f4d7c8"/></g><g><path d="m366.815 25.311-14.793 92.735h-14.813l14.793-92.735c1.059-6.682-2.317-12.915-7.791-15.922 2.208-1.219 4.735-1.898 7.402-1.898 9.469 0 16.69 8.47 15.202 17.82z" fill="#ecbba3"/></g><g><path d="m439.739 187.944c27.621 33.448 44.215 76.338 44.215 123.104 0 106.845-86.615 193.461-193.461 193.461s-193.461-86.616-193.461-193.461c0-47.003 16.763-89.583 44.636-123.104z" fill="#bbec6c"/></g><g><path d="m483.953 311.048c0 106.85-86.612 193.462-193.462 193.462-7.541 0-14.983-.43-22.305-1.269 105.651-1.378 190.865-87.461 190.865-193.442 0-46.188-16.182-88.59-43.191-121.853h23.883c27.619 33.444 44.21 76.335 44.21 123.102z" fill="#a2e62e"/></g><g><path d="m373.189 118.047h-165.392c-4.604 0-8.975 2.027-11.949 5.541l-54.466 64.356h298.223l-54.466-64.356c-2.975-3.515-7.346-5.541-11.95-5.541z" fill="#dbf4b2"/></g><g><path d="m439.603 187.947h-23.643l-54.459-64.357c-2.977-3.516-7.352-5.544-11.956-5.544h23.643c4.605 0 8.98 2.028 11.947 5.544z" fill="#d1f19e"/></g><g><path d="m409.574 152.465c-9.36 4.528-19.863 7.065-30.952 7.065-16.645 0-31.938-5.733-44.065-15.293-12.127 9.559-27.42 15.293-44.065 15.293s-31.937-5.733-44.065-15.293c-12.127 9.559-27.42 15.293-44.065 15.293-11.089 0-21.592-2.537-30.952-7.065l24.439-28.88c2.974-3.515 7.345-5.542 11.95-5.542h165.386c4.604 0 8.975 2.027 11.95 5.542z" fill="#f3f0f3"/></g><g><path d="m409.577 152.467c-5.794 2.797-12.026 4.845-18.569 5.993l-29.507-34.871c-2.977-3.516-7.352-5.544-11.956-5.544h23.643c4.605 0 8.97 2.028 11.947 5.544z" fill="#e2dee2"/></g><g><g><path d="m205.298 382.625c8.14-4.332 15.487-10.264 21.688-17.048 9.686-10.598 16.16-23.79 17.726-38.072.173-1.58-.603-3.116-1.979-3.912-12.266-7.097-26.515-9.727-40.61-8.32-11.459 1.144-23.336 4.428-32.928 11.049-15.277 10.545-27.674 26.264-31.603 44.766-.374 1.762-.672 3.539-.895 5.326-.037.296-.144 1.584-.243 2.822-.126 1.571.685 3.071 2.069 3.824 3.529 1.921 7.24 3.507 11.067 4.734 17.944 5.753 38.999 3.723 55.708-5.169z" fill="#00c27a"/></g><g><path d="m244.716 327.505c-1.568 14.284-8.041 27.469-17.73 38.067-6.203 6.792-13.545 12.726-21.686 17.051-16.711 8.89-37.767 10.928-55.707 5.174-3.826-1.229-7.541-2.817-11.067-4.735-1.388-.759-2.198-2.257-2.068-3.826.1-1.239.2-2.527.24-2.827.02-.14.03-.27.06-.41 17.55 5.104 37.817 2.927 53.999-5.694 8.141-4.325 15.483-10.258 21.686-17.041 9.06-9.909 15.313-22.095 17.36-35.31 4.485 1.378 8.82 3.256 12.935 5.634 1.368.8 2.147 2.339 1.978 3.917z" fill="#08b865"/></g><g><path d="m124.617 307.758c-10.89 7.178-18.919 17.826-23.56 30.009-3.774 9.905-5.957 21.033-4.454 31.655.319 2.256.743 4.506 1.257 6.74-4.588-.879-9.243-1.286-13.846-1.169-8.484.217-16.974 2.077-24.87 5.111-12.335 4.739-23.093 12.935-30.26 24.048-.793 1.229-.786 2.814.019 4.035 7.178 10.89 17.826 18.919 30.009 23.56 9.905 3.774 21.033 5.957 31.655 4.454 2.256-.319 4.506-.743 6.74-1.257-.879 4.588-1.286 9.243-1.169 13.846.217 8.484 2.077 16.974 5.111 24.87 4.739 12.335 12.935 23.093 24.048 30.26 1.229.793 2.814.786 4.035-.019 10.89-7.178 18.919-17.826 23.56-30.009 3.774-9.905 5.957-21.033 4.454-31.655-.319-2.256-.743-4.506-1.257-6.74 4.588.879 9.243 1.286 13.846 1.169 8.484-.217 16.974-2.077 24.869-5.111 12.335-4.739 23.093-12.935 30.26-24.048.793-1.229.786-2.814-.019-4.035-7.178-10.89-17.826-18.919-30.009-23.56-9.905-3.774-21.033-5.957-31.655-4.454-2.256.319-4.506.743-6.74 1.257.879-4.588 1.286-9.243 1.169-13.846-.217-8.484-2.077-16.974-5.111-24.87-4.739-12.335-12.935-23.093-24.048-30.26-1.228-.793-2.813-.786-4.034.019z" fill="#fee45a"/></g><g><path d="m116.94 313.82c2.367-2.227 4.935-4.255 7.681-6.063 1.219-.809 2.797-.809 4.035-.02 11.107 7.172 19.308 17.93 24.043 30.266 3.037 7.891 4.895 16.382 5.114 24.862.1 4.145-.21 8.321-.919 12.456-4.355-.479-8.75-.469-13.065.14-.025.004-.049.007-.074.011-3.205.457-6.029-2.13-5.738-5.354.219-2.42.301-4.843.238-7.252-.22-8.48-2.078-16.971-5.114-24.862-3.546-9.231-9.019-17.571-16.201-24.184z" fill="#fedf30"/></g><g><path d="m225.068 407.505c-7.172 11.117-17.93 19.308-30.266 24.053-7.891 3.027-16.382 4.895-24.862 5.104-3.736.1-7.511-.15-11.247-.729 5.664-.829 11.247-2.337 16.561-4.375 12.336-4.745 23.094-12.935 30.256-24.053.789-1.229.789-2.817-.02-4.035-7.172-10.888-17.82-18.919-30.006-23.553-4.655-1.778-9.589-3.196-14.613-4.055.839-.15 1.678-.28 2.517-.4 10.618-1.508 21.746.679 31.654 4.455 12.176 4.635 22.824 12.666 30.006 23.553.799 1.218.809 2.806.02 4.035z" fill="#fedf30"/></g><g><circle cx="126.975" cy="405.829" fill="#bbec6c" r="18.953"/></g><g><path d="m145.927 405.827c0 10.468-8.48 18.959-18.949 18.959-6.602 0-12.406-3.376-15.802-8.49 1.079.2 2.197.3 3.336.3 10.468 0 18.949-8.49 18.949-18.959 0-3.866-1.159-7.462-3.156-10.458 8.88 1.567 15.622 9.318 15.622 18.648z" fill="#a2e62e"/></g><g><path d="m476.276 235.776c-7.59-18.937-17.969-36.732-30.891-52.497-2.412-2.943-54.531-64.533-54.531-64.533-4.407-5.208-10.847-8.194-17.67-8.194h-12.383l13.409-84.065c1.057-6.625-.834-13.352-5.188-18.455-4.353-5.105-10.698-8.032-17.407-8.032-11.327 0-20.832 8.12-22.6 19.308l-14.429 91.243h-106.786c-5.543 0-10.834 1.972-14.987 5.505-.959.815-1.857 1.714-2.684 2.691-8.083 9.551-16.166 19.101-24.249 28.652-20.315 24.003-41.414 46.487-55.626 74.962-13.715 27.478-20.712 57.995-20.712 88.687 0 10.364.811 20.54 2.334 30.484-2.693 9.05-3.725 17.902-3.021 26.027-1.687-.08-3.366-.097-5.031-.055-3.82.098-7.734.5-11.635 1.197-4.073.728-6.785 4.62-6.057 8.693s4.616 6.784 8.693 6.057c7.181-1.283 14.442-1.31 21.625.068 2.733.524 6.296-1.031 7.746-3.318 2.284-3.603.365-8.023-.174-11.83-1.171-8.272.225-17.932 4.037-27.938 3.934-10.327 10.342-18.914 18.614-24.982 8.451 6.07 15.004 14.745 19.035 25.235 4.371 11.377 5.889 22.551 3.577 34.617-.997 5.201 3.862 9.901 9.037 8.711 11.588-2.663 22.959-1.328 34.049 2.897 10.326 3.934 18.914 10.342 24.982 18.614-6.07 8.451-14.744 15.004-25.234 19.035-11.086 4.26-22.96 5.812-34.62 3.577-2.492-.477-5.047.336-6.804 2.159-3.764 3.906-1.418 8.395-.766 12.989 1.171 8.272-.225 17.933-4.037 27.938-3.934 10.327-10.342 18.914-18.614 24.982-8.451-6.07-15.005-14.744-19.035-25.234-4.207-10.95-5.798-23.031-3.578-34.619.998-5.205-3.849-9.904-9.038-8.711-6.527 1.501-12.382 1.955-19.021 1.048-5.142-.702-10.182-2.099-15.027-3.945-10.327-3.934-18.914-10.343-24.982-18.614 2.789-3.879 6.153-7.383 10.024-10.438 3.248-2.563 3.803-7.274 1.239-10.522-2.563-3.248-7.273-3.803-10.522-1.24-5.851 4.617-10.814 10.055-14.751 16.16-2.401 3.723-2.377 8.519.06 12.218 7.853 11.914 19.47 21.056 33.597 26.438 11.265 4.292 22.42 6.073 32.459 5.201-.079 1.688-.098 3.367-.055 5.032.232 9.079 2.118 18.285 5.607 27.365 5.503 14.323 14.833 26.034 26.98 33.868 3.463 2.233 8.601 2.325 12.219-.059 11.915-7.853 21.056-19.471 26.437-33.596 1.306-3.427 2.375-6.842 3.212-10.219 34.7 28.516 79.077 45.662 127.39 45.662 39.906 0 79.121-11.971 112.194-34.311 41.49-28.024 70.692-69.36 82.827-118.081 10.198-40.948 6.4-84.814-9.238-123.832zm-132.462-214.128c.611-3.862 3.891-6.665 7.801-6.665 2.35 0 4.484.985 6.01 2.773 1.525 1.788 2.161 4.05 1.791 6.371l-13.785 86.424-15.876.001zm-170.29 139.913c9.158 3.621 18.832 5.46 28.839 5.46 15.91 0 31.029-4.651 44.065-13.504 13.036 8.853 28.154 13.504 44.065 13.504 15.912 0 31.033-4.653 44.07-13.507 3.777 2.557 7.767 4.782 11.914 6.644 3.777 1.695 8.208.009 9.903-3.767 1.693-3.775.007-8.208-3.767-9.902-4.771-2.141-9.285-4.878-13.417-8.135-2.72-2.144-6.555-2.144-9.275 0-11.357 8.953-24.991 13.685-39.427 13.685s-28.07-4.732-39.427-13.685c-2.721-2.144-6.555-2.144-9.276 0-11.357 8.953-24.99 13.685-39.427 13.685-6.352 0-12.537-.91-18.481-2.713l17.686-20.9c.194-.229.399-.446.614-.65 1.508-1.431 3.51-2.237 5.615-2.237h165.393c2.104 0 4.106.806 5.614 2.237.215.204.42.42.613.649l17.684 20.897c-4.757 1.441-9.677 2.314-14.711 2.607-4.131.241-7.285 3.784-7.044 7.915s3.778 7.295 7.914 7.043c8.368-.487 16.475-2.295 24.189-5.34l16 18.906h-265.914zm29.631 213.676c-1.772-.838-3.588-1.617-5.451-2.327-11.266-4.292-22.421-6.073-32.46-5.203.08-1.688.098-3.366.056-5.032-.174-6.808-1.279-13.688-3.291-20.532 3.421-3.506 7.244-6.759 11.442-9.656 7.56-5.218 17.732-8.594 29.417-9.76 12.239-1.222 23.976.933 34.099 6.24-1.742 11.457-7.075 22.324-15.511 31.556-5.458 5.972-11.76 11.021-18.301 14.714zm87.338 121.78c-48.179 0-92.125-18.43-125.193-48.594-.017-1.461-.082-2.905-.205-4.325 1.687.079 3.367.097 5.032.055 9.079-.232 18.286-2.119 27.365-5.607 14.323-5.503 26.034-14.833 33.868-26.981 2.402-3.724 2.379-8.521-.06-12.218-3.827-5.806-8.554-10.947-14.023-15.322 5.428-3.781 10.535-8.249 15.238-13.395 11.153-12.205 17.946-26.834 19.644-42.31.497-4.53-1.731-8.931-5.674-11.212-13.301-7.695-28.896-10.907-45.106-9.29-14.199 1.418-26.799 5.684-36.44 12.338-3.17 2.188-6.152 4.529-8.947 6.998-5.598-10.631-13.528-19.423-23.281-25.712-3.724-2.4-8.519-2.376-12.217.061-6.058 3.993-11.395 8.963-15.889 14.737-.048-1.725-.081-3.455-.081-5.191 0-42.487 14.06-82.386 40.698-115.613h290.944c26.009 32.748 40.295 73.663 40.295 115.613.001 102.543-83.425 185.968-185.968 185.968z"/><path d="m126.975 432.274c14.582 0 26.445-11.863 26.445-26.445s-11.863-26.445-26.445-26.445-26.445 11.863-26.445 26.445 11.863 26.445 26.445 26.445zm0-37.907c6.32 0 11.462 5.142 11.462 11.462s-5.142 11.462-11.462 11.462-11.462-5.142-11.462-11.462 5.142-11.462 11.462-11.462z"/></g></g></g></svg>