<svg id="Capa_1" enable-background="new 0 0 512 512" height="512" viewBox="0 0 512 512" width="512" xmlns="http://www.w3.org/2000/svg"><g><g><path d="m367.047 504.5h-222.094c-14.331 0-26.661-10.136-29.433-24.196l-40.229-204.024h361.419l-40.23 204.024c-2.772 14.06-15.102 24.196-29.433 24.196z" fill="#ffe07d"/><path d="m436.709 276.28h-30-331.418l12.561 63.703c20.269.193 38.448-8.742 50.678-22.958 3.908-4.543 11.044-4.526 14.953.015 12.1 14.056 30.014 22.96 50.017 22.96 17.644 0 33.665-6.929 45.504-18.209 3.94-3.754 10.052-3.754 13.992 0 11.839 11.28 27.86 18.209 45.504 18.209 20.003 0 37.919-8.905 50.019-22.962 3.944-4.582 11.084-4.49 15.036.085.089.103.177.205.267.307 12.801 14.637 17.984 34.438 14.222 53.515l-21.564 109.359c-2.772 14.06-15.102 24.196-29.433 24.196h30c14.331 0 26.661-10.136 29.433-24.196l27.668-140.321z" fill="#ffd064"/><path d="m448.625 182.955c-3.415-1.407-5.81-4.515-6.203-8.187-10.086-94.037-89.705-167.268-186.422-167.268s-176.336 73.231-186.421 167.267c-.394 3.672-2.788 6.78-6.203 8.187-24.551 10.115-41.664 34.606-40.847 62.99 1.006 34.993 29.737 63.404 64.739 64.044 20.444.373 38.805-8.557 51.152-22.835 3.965-4.585 11.108-4.71 15.063-.116 12.098 14.058 30.014 22.963 50.017 22.963 17.644 0 33.665-6.929 45.504-18.209 3.94-3.754 10.052-3.754 13.992 0 11.839 11.28 27.86 18.209 45.504 18.209 20.003 0 37.919-8.905 50.019-22.962 3.954-4.594 11.098-4.469 15.063.116 12.347 14.278 30.708 23.209 51.152 22.835 35.002-.639 63.732-29.051 64.739-64.044.815-28.384-16.297-52.875-40.848-62.99z" fill="#e490b7"/><g><path d="m448.625 182.955c-3.415-1.407-5.81-4.515-6.203-8.188-10.086-94.036-89.705-167.267-186.422-167.267-5.05 0-10.05.211-15 .603 89.839 7.113 161.862 77.538 171.421 166.664.394 3.672 2.788 6.781 6.203 8.188 24.551 10.115 41.664 34.606 40.847 62.991-.871 30.281-22.507 55.617-50.997 62.311 5.212 1.215 10.653 1.835 16.259 1.733 35.002-.639 63.732-29.051 64.738-64.043.817-28.386-16.295-52.878-40.846-62.992z" fill="#df75a5"/></g><g><g><path d="m256 470.273c-8.284 0-15-6.716-15-15v-96.046c0-8.284 6.716-15 15-15s15 6.716 15 15v96.046c0 8.285-6.716 15-15 15z" fill="#fbf4c6"/></g><g><path d="m180.981 470.275c-7.264 0-13.646-5.286-14.802-12.688l-15-96.046c-1.278-8.185 4.321-15.856 12.506-17.135 8.183-1.279 15.857 4.321 17.135 12.506l15 96.046c1.278 8.185-4.321 15.856-12.506 17.135-.783.123-1.563.182-2.333.182z" fill="#fbf4c6"/></g><g><path d="m331.019 470.275c-.77 0-1.549-.059-2.333-.182-8.185-1.278-13.784-8.95-12.506-17.135l15-96.046c1.278-8.186 8.955-13.785 17.135-12.506 8.185 1.278 13.784 8.95 12.506 17.135l-15 96.046c-1.156 7.402-7.54 12.688-14.802 12.688z" fill="#fbf4c6"/></g></g><circle cx="204.024" cy="98.764" fill="#f7f6f7" r="23.916"/><circle cx="309.916" cy="98.764" fill="#b3e59f" r="23.916"/><circle cx="256" cy="223.934" fill="#cbe2ff" r="23.916"/><g fill="#ffe07d"><circle cx="132.7" cy="196.804" r="23.916"/><circle cx="379.3" cy="196.804" r="23.916"/></g></g><path d="m233.5 359.227v96.046c0 12.407 10.093 22.5 22.5 22.5s22.5-10.093 22.5-22.5v-96.046c0-12.407-10.093-22.5-22.5-22.5s-22.5 10.093-22.5 22.5zm30 0v96.046c0 4.136-3.364 7.5-7.5 7.5s-7.5-3.364-7.5-7.5v-96.046c0-4.136 3.364-7.5 7.5-7.5s7.5 3.364 7.5 7.5zm85.973-22.23c-12.14-1.896-23.866 6.644-25.704 18.759l-15 96.046c-1.952 12.027 6.617 23.806 18.758 25.702 12.158 1.899 23.848-6.482 25.703-18.759l15-96.046c1.955-12.147-6.712-23.821-18.757-25.702zm3.937 23.387-15 96.046c-.632 4.041-4.535 6.884-8.567 6.253-4.031-.631-6.902-4.539-6.253-8.567l15-96.046c.542-3.603 3.767-6.344 7.395-6.344 4.481 0 8.166 4.175 7.425 8.658zm98.071-184.364c-.905-.373-1.504-1.14-1.603-2.053-5.099-47.539-27.526-91.456-63.151-123.661-35.886-32.44-82.312-50.306-130.727-50.306-44.261 0-87.604 15.237-122.042 42.903-3.229 2.594-3.744 7.315-1.15 10.544 2.595 3.228 7.314 3.745 10.544 1.149 32.246-25.904 71.199-39.596 112.648-39.596 44.69 0 87.544 16.49 120.668 46.434 32.888 29.73 53.591 70.264 58.296 114.133.683 6.371 4.823 11.859 10.804 14.323 22.352 9.209 36.903 31.65 36.208 55.84-.431 14.986-6.61 29.116-17.398 39.788-10.788 10.671-24.987 16.699-39.98 16.973-17.394.316-33.941-7.06-45.342-20.242-3.35-3.874-8.203-6.095-13.317-6.095-5.048 0-9.825 2.185-13.103 5.992-11.136 12.935-27.295 20.354-44.336 20.354-15.084 0-29.407-5.731-40.33-16.139-6.825-6.504-17.517-6.502-24.339 0-10.924 10.408-25.247 16.139-40.331 16.139-17.041 0-33.2-7.419-44.334-20.354-6.86-7.97-19.6-7.783-26.419.103-11.4 13.183-27.897 20.564-45.343 20.242-14.993-.274-29.192-6.302-39.98-16.973-10.789-10.672-16.968-24.802-17.398-39.788-.695-24.191 13.855-46.632 36.207-55.841 5.981-2.464 10.121-7.952 10.804-14.322 3.846-35.856 18.253-69.389 41.664-96.973 2.68-3.158 2.293-7.891-.865-10.571s-7.891-2.292-10.571.865c-25.364 29.885-40.974 66.221-45.142 105.08-.098.912-.697 1.679-1.603 2.052-28.081 11.569-46.361 39.757-45.488 70.141.542 18.859 8.3 36.624 21.844 50.021 10.729 10.613 24.165 17.549 38.665 20.151l32.622 165.417c3.453 17.528 18.925 30.25 36.789 30.25h222.1c17.863 0 33.335-12.722 36.789-30.249l13.411-68.001c.801-4.064-1.843-8.008-5.907-8.81-4.067-.802-8.008 1.844-8.81 5.907l-13.411 68.002c-2.075 10.518-11.357 18.151-22.074 18.151h-222.1c-10.717 0-20-7.633-22.072-18.151l-31.828-161.394c20.429-.697 39.58-9.828 53.042-25.396 1.123-1.299 2.676-1.325 3.706-.129 13.986 16.25 34.29 25.569 55.703 25.569 18.955 0 36.952-7.202 50.678-20.279 1.039-.99 2.605-.99 3.645 0 13.725 13.077 31.723 20.279 50.677 20.279 21.413 0 41.716-9.32 55.703-25.569.554-.644 1.296-.761 1.734-.778.445 0 1.29.118 1.971.906 13.462 15.567 32.622 24.699 53.042 25.396l-11.5 58.313c-.801 4.064 1.843 8.008 5.907 8.81 3.964.782 8.011-1.804 8.81-5.907l12.294-62.338c14.5-2.603 27.936-9.539 38.665-20.151 13.543-13.396 21.301-31.161 21.844-50.021.871-30.383-17.409-58.571-45.49-70.14zm-141.565-45.84c17.323 0 31.416-14.093 31.416-31.416s-14.093-31.416-31.416-31.416-31.416 14.093-31.416 31.416 14.093 31.416 31.416 31.416zm0-47.832c9.052 0 16.416 7.364 16.416 16.416s-7.364 16.416-16.416 16.416-16.416-7.365-16.416-16.416 7.364-16.416 16.416-16.416zm-105.892-15c-17.323 0-31.416 14.093-31.416 31.416s14.093 31.416 31.416 31.416 31.416-14.093 31.416-31.416-14.093-31.416-31.416-31.416zm0 47.832c-9.052 0-16.416-7.364-16.416-16.416s7.364-16.416 16.416-16.416 16.416 7.364 16.416 16.416-7.364 16.416-16.416 16.416zm175.276 113.04c17.323 0 31.416-14.093 31.416-31.416s-14.093-31.416-31.416-31.416-31.416 14.093-31.416 31.416 14.093 31.416 31.416 31.416zm0-47.832c9.052 0 16.416 7.364 16.416 16.416s-7.364 16.416-16.416 16.416-16.416-7.364-16.416-16.416 7.364-16.416 16.416-16.416zm-278.016 16.416c0 17.323 14.093 31.416 31.416 31.416s31.416-14.093 31.416-31.416-14.093-31.416-31.416-31.416-31.416 14.093-31.416 31.416zm31.416-16.416c9.052 0 16.416 7.364 16.416 16.416s-7.364 16.416-16.416 16.416-16.416-7.364-16.416-16.416 7.364-16.416 16.416-16.416zm123.3 12.131c-17.323 0-31.416 14.093-31.416 31.416s14.093 31.415 31.416 31.415 31.416-14.093 31.416-31.416-14.093-31.415-31.416-31.415zm0 47.831c-9.052 0-16.416-7.364-16.416-16.416s7.364-16.416 16.416-16.416 16.416 7.364 16.416 16.416-7.364 16.416-16.416 16.416zm-93.472 96.647c-12.153 1.898-20.703 13.584-18.759 25.702l15 96.046c1.722 11.027 11.063 19.03 22.212 19.03 13.477 0 24.421-12.626 22.249-25.974l-15-96.046c-1.836-12.149-13.631-20.643-25.702-18.758zm18.453 125.778c-3.649 0-6.827-2.728-7.392-6.345l-15-96.046c-.651-4.032 2.222-7.934 6.254-8.567 3.984-.626 7.964 2.209 8.566 6.253l15 96.046c.722 4.441-2.921 8.659-7.428 8.659z"/></g></svg>