<svg id="Capa_1" enable-background="new 0 0 512 512" height="512" viewBox="0 0 512 512" width="512" xmlns="http://www.w3.org/2000/svg"><g><g><path d="m337.077 284.422c2.381-5.191 3.608-10.774 3.608-16.414v-99.792c0-30.221-18.462-56.445-45.511-69.538-7.069-3.421-11.617-10.517-11.617-18.37v-31.177h-55.114v31.177c0 7.853-4.548 14.949-11.617 18.37-27.049 13.092-45.511 39.317-45.511 69.538v99.792c0 5.64 1.227 11.222 3.608 16.414l1.723 3.758c5.17 11.274 5.126 24.146-.698 35.143-3.049 5.756-4.633 12.081-4.633 18.491v100.233 31.23c0 17.248 15.1 31.23 33.726 31.23 8.142 0 15.606-2.676 21.432-7.126 2.373-1.813 5.721-1.813 8.095 0 5.826 4.45 13.29 7.126 21.432 7.126 8.142 0 15.606-2.676 21.432-7.126 2.373-1.813 5.721-1.813 8.095 0 5.826 4.45 13.29 7.126 21.432 7.126 18.626 0 33.726-13.982 33.726-31.23v-130.816c0-6.549-1.428-13.071-4.536-18.954-5.78-10.939-6.145-23.661-1.006-34.868z" fill="#f3f0f3"/></g><g><path d="m335.145 288.634c-5.136 11.211-4.776 23.93 1.009 34.871 3.107 5.885 4.536 12.41 4.536 18.954v130.821c0 8.623-3.777 16.426-9.882 22.082-6.105 5.645-14.538 9.142-23.85 9.142-3.487 0-6.844-.49-10.002-1.409 5.276-1.519 10.002-4.206 13.819-7.734 6.095-5.655 9.872-13.459 9.872-22.082v-130.819c0-6.545-1.429-13.069-4.536-18.954-5.775-10.941-6.145-23.661-.999-34.871l1.928-4.216c2.378-5.186 3.607-10.771 3.607-16.406v-99.797c0-12.859-3.641-25.414-11.122-35.927-7.324-10.292-17.604-18.106-28.602-24.124-5.554-3.039-10.549-6.475-13.987-11.861-3.103-4.862-3.411-10.356-3.412-15.995v-31.176h20.033v31.174c0 7.854 4.546 14.948 11.62 18.375 27.048 13.089 45.512 39.317 45.512 69.532v99.797c0 5.635-1.229 11.221-3.617 16.406z" fill="#e2dee2"/></g><g><path d="m335.145 288.637c-5.141 11.207-4.774 23.929 1.003 34.866 3.106 5.883 4.533 12.413 4.533 18.962v130.815c0 8.622-3.771 16.425-9.876 22.077-6.095 5.652-14.525 9.153-23.842 9.153-8.15 0-15.605-2.681-21.44-7.127-2.373-1.813-5.719-1.813-8.092 0-2.913 2.218-6.23 4.002-9.847 5.227-3.617 1.235-7.513 1.9-11.583 1.9-8.14 0-15.605-2.681-21.43-7.127-2.373-1.813-5.719-1.813-8.092 0-5.835 4.446-13.29 7.127-21.44 7.127-18.624 0-33.718-13.985-33.718-31.229v-131.463c0-6.414 1.582-12.741 4.629-18.499 5.825-10.995 5.864-23.871.694-35.136l-1.717-3.762c-2.382-5.189-3.607-10.773-3.607-16.415v-99.794c0-20.177 8.227-38.569 21.749-52.467h125.863c13.522 13.898 21.749 32.29 21.749 52.467v99.794c0 5.642-1.225 11.226-3.607 16.415z" fill="#685e68"/></g><g><path d="m335.144 288.634c-5.365 11.73-4.987 23.534.999 34.871 3.107 5.885 4.536 12.41 4.536 18.954v130.821c0 4.846-1.189 9.442-3.317 13.529-2.792 5.362-7.089 9.746-12.301 12.821-6.77 3.995-14.827 5.554-22.615 4.6-1.113-.136-2.218-.329-3.312-.575-.709-.16-1.399-.34-2.088-.539-.03 0-.06-.01-.09-.02 5.276-1.519 10.002-4.206 13.819-7.734 6.095-5.655 9.872-13.459 9.872-22.082v-130.82c0-6.545-1.429-13.069-4.536-18.954-5.775-10.941-6.145-23.661-.999-34.871l1.928-4.216c2.378-5.186 3.607-10.771 3.607-16.406v-99.797c0-12.859-3.637-25.419-11.121-35.93-4.566-6.425-10.291-11.88-16.616-16.536h26.018c.08.08.15.16.22.24 4.752 5.436 9.143 10.698 12.609 17.146 2.5 4.65 4.683 9.971 6.125 15.018 1.864 6.523 2.798 13.274 2.798 20.063v99.797c0 4.576-.809 9.122-2.388 13.449-.895 2.449-2.062 4.799-3.148 7.171z" fill="#554e56"/></g><g><path d="m297.079 43.794c0 2.947-2.58 5.337-5.763 5.337h-35.316-35.316c-3.183 0-5.763-2.389-5.763-5.337v-30.964c0-2.947 2.58-5.337 5.763-5.337h70.632c3.183 0 5.763 2.389 5.763 5.337z" fill="#e94444"/></g><g><path d="m297.076 12.833v30.965c0 2.948-2.578 5.335-5.755 5.335h-19.983c3.177 0 5.755-2.388 5.755-5.335v-30.965c0-2.948-2.578-5.335-5.755-5.335h19.983c3.177 0 5.755 2.388 5.755 5.335z" fill="#d83131"/></g><g><path d="m171.315 170.475h169.37v98.604h-169.37z" fill="#e94444"/></g><g><path d="m320.702 170.475h19.983v98.604h-19.983z" fill="#d83131"/></g><path d="m298.44 91.933c-4.558-2.206-7.389-6.661-7.389-11.625v-23.683h.265c7.31 0 13.257-5.756 13.257-12.831v-30.964c0-7.074-5.947-12.83-13.257-12.83h-27.791c-4.139 0-7.494 3.355-7.494 7.494s3.355 7.494 7.494 7.494h26.061v26.65h-67.17v-26.65h6.084c4.139 0 7.494-3.355 7.494-7.494s-3.356-7.494-7.495-7.494h-7.815c-7.31 0-13.257 5.756-13.257 12.83v30.964c0 7.075 5.947 12.831 13.257 12.831h.265v23.683c0 4.965-2.831 9.419-7.388 11.625-30.681 14.85-49.74 44.08-49.74 76.282 0 0 .02 101.434.051 101.713.248 6.082 1.663 12.001 4.239 17.617l1.723 3.759c4.304 9.383 4.119 19.776-.508 28.51-3.602 6.8-5.505 14.407-5.505 21.999v131.462c0 21.352 18.491 38.724 41.22 38.724 9.225 0 18.247-2.939 25.48-8.288 7.232 5.35 16.253 8.289 25.479 8.289s18.248-2.939 25.48-8.288c7.232 5.349 16.254 8.288 25.48 8.288 22.728 0 41.219-17.371 41.219-38.724v-130.815c0-7.999-1.869-15.764-5.404-22.455-5.78-10.939-3.786-21.776 1.114-32.459 2.576-5.617 3.99-11.535 4.239-17.618.032-.279.051-101.713.051-101.713 0-32.203-19.059-61.433-49.739-76.283zm-102.143 31.307h119.407c9.962 11.151 16.096 24.966 17.274 39.74h-153.956c1.178-14.773 7.313-28.588 17.275-39.74zm23.794-17.816c9.626-4.66 15.845-14.518 15.845-25.116v-23.683h40.127v23.683c0 10.598 6.22 20.456 15.846 25.116 1.822.882 3.588 1.83 5.309 2.829h-82.436c1.721-.999 3.487-1.947 5.309-2.829zm113.1 367.852c0 13.088-11.768 23.736-26.232 23.736-6.171 0-12.167-1.985-16.883-5.587-2.531-1.933-5.563-2.9-8.596-2.9s-6.066.967-8.596 2.9c-4.717 3.602-10.712 5.587-16.883 5.587s-12.167-1.985-16.883-5.587c-5.062-3.866-12.131-3.866-17.193 0-4.717 3.602-10.713 5.587-16.883 5.587-14.465 0-26.232-10.648-26.232-23.736v-131.462c0-5.156 1.301-10.337 3.762-14.984 6.827-12.891 7.15-28.117.887-41.774l-1.723-3.759c-.709-1.545-1.286-3.122-1.739-4.725h92.303c4.139 0 7.494-3.355 7.494-7.494s-3.355-7.494-7.494-7.494h-93.491v-83.617h154.383v83.617h-25.435c-4.139 0-7.494 3.355-7.494 7.494s3.355 7.494 7.494 7.494h24.248c-.452 1.602-1.03 3.18-1.739 4.726-6.789 14.807-8.734 30.586-.742 45.709 2.434 4.606 3.668 9.805 3.668 15.453v130.816z"/></g></svg>