<svg id="Capa_1" enable-background="new 0 0 511.875 511.875" height="512" viewBox="0 0 511.875 511.875" width="512" xmlns="http://www.w3.org/2000/svg"><g><g><g><path d="m462.224 194.906v187.117c0 28.074-22.758 50.832-50.832 50.832h-65.328v-41.976h59.274c10.624 0 19.237-8.613 19.237-19.237v-166.356c0-10.615-8.612-19.237-19.237-19.237h-59.274v-41.966h65.339c28.068.001 50.821 22.755 50.821 50.823z" fill="#62dbfb"/></g></g><g><g><path d="m462.228 194.905v187.12c0 28.074-22.76 50.834-50.834 50.834h-18.015c28.074 0 50.824-22.759 50.824-50.834v-187.12c0-28.064-22.75-50.824-50.814-50.824h18.015c28.065 0 50.824 22.76 50.824 50.824z" fill="#01d0fb"/></g></g><g><path d="m331.85 50.357h-259.49c-11.835 0-21.43-9.594-21.43-21.43 0-11.835 9.594-21.43 21.43-21.43h259.49c11.835 0 21.43 9.594 21.43 21.43-.001 11.835-9.595 21.43-21.43 21.43z" fill="#62dbfb"/></g><g><path d="m353.275 28.923c0 5.925-2.392 11.28-6.275 15.163-3.873 3.873-9.228 6.275-15.153 6.275h-21.398c5.925 0 11.28-2.402 15.153-6.275 3.883-3.883 6.275-9.238 6.275-15.163 0-11.83-9.588-21.428-21.428-21.428h21.398c11.84-.001 21.428 9.598 21.428 21.428z" fill="#01d0fb"/></g><g><path d="m322.933 50.643h-241.656l-24.532 36.559c-4.625 6.893-7.095 15.007-7.095 23.308v304.952c0 27.128 21.992 49.12 49.12 49.12h206.67c27.128 0 49.12-21.992 49.12-49.12v-304.952c0-8.301-2.47-16.415-7.095-23.308z" fill="#c8effe"/></g><g><path d="m354.556 110.513v304.951c0 27.123-21.989 49.122-49.112 49.122h-20.498c27.123 0 49.112-21.999 49.112-49.122v-304.951c0-8.307-2.462-16.414-7.086-23.31l-24.531-36.561h20.488l24.531 36.561c4.634 6.896 7.096 15.003 7.096 23.31z" fill="#99e6fc"/></g><g><path d="m354.556 126.066v289.398c0 27.123-21.989 49.122-49.112 49.122h-206.677c-27.123 0-49.112-21.999-49.112-49.122v-304.951c0-.19 0-.38.01-.57 37.502 1.471 74.794 14.352 110.475 26.413 46.21 15.623 96.873 30.306 144.224 17.655 19.216-5.135 36.45-15.054 50.192-27.945z" fill="#d77f4a"/></g><g><path d="m354.556 126.066v289.398c0 27.123-21.989 49.122-49.112 49.122h-20.498c27.123 0 49.112-21.999 49.112-49.122v-273.995c7.447-4.414 14.323-9.608 20.498-15.403z" fill="#c86d36"/></g><g><path d="m308.379 464.581h-212.549v26.162c0 7.528 6.103 13.631 13.63 13.631l185.287.004c7.528 0 13.631-6.103 13.631-13.631v-26.166z" fill="#62dbfb"/></g><g><path d="m308.377 464.586v26.162c0 7.526-6.095 13.632-13.632 13.632h-21.138c7.506-.02 13.592-6.115 13.592-13.632v-26.162z" fill="#01d0fb"/></g><g><g><path d="m194.105 303.599-41.631 41.632c-3.586 3.586-9.4 3.586-12.987 0l-41.632-41.632c-3.586-3.586-3.586-9.4 0-12.987l41.632-41.631c3.586-3.586 9.4-3.586 12.987 0l41.631 41.631c3.586 3.586 3.586 9.401 0 12.987z" fill="#f3f0f3"/></g><g><path d="m306.359 262.964-41.632 41.632c-3.586 3.586-9.4 3.586-12.987 0l-41.632-41.632c-3.586-3.586-3.586-9.4 0-12.987l41.632-41.631c3.586-3.586 9.4-3.586 12.987 0l41.632 41.631c3.586 3.587 3.586 9.401 0 12.987z" fill="#f3f0f3"/></g></g><g><g><path d="m194.109 303.598-41.636 41.636c-3.583 3.583-9.398 3.583-12.981 0l-4.824-4.824 36.802-36.812c3.593-3.583 3.593-9.398 0-12.981l-36.802-36.812 4.824-4.824c3.583-3.583 9.398-3.583 12.981 0l41.636 41.636c3.583 3.583 3.583 9.398 0 12.981z" fill="#e2dee2"/></g><g><path d="m306.355 262.963-41.626 41.636c-3.593 3.583-9.398 3.583-12.991 0l-4.814-4.824 36.802-36.812c3.583-3.583 3.583-9.398 0-12.981l-36.802-36.812 4.814-4.824c3.593-3.583 9.398-3.583 12.991 0l41.626 41.636c3.593 3.583 3.593 9.398 0 12.981z" fill="#e2dee2"/></g></g><g><path d="m411.403 136.586h-49.346v-26.076c0-9.824-2.894-19.327-8.367-27.485l-17.149-25.558c13.727-2.249 24.236-14.188 24.236-28.541 0-15.95-12.977-28.926-28.928-28.926h-259.489c-15.951 0-28.927 12.976-28.927 28.927 0 14.353 10.509 26.292 24.236 28.541l-17.15 25.557c-5.474 8.156-8.366 17.66-8.366 27.485v304.951c0 27.653 19.932 50.723 46.18 55.636v19.645c0 11.649 9.479 21.128 21.128 21.128l118.158.003c4.14 0 7.497-3.357 7.497-7.498 0-4.14-3.356-7.498-7.497-7.498l-118.158-.003c-3.382 0-6.133-2.751-6.133-6.133v-18.665h197.554v18.669c0 1.638-.638 3.178-1.796 4.336-1.159 1.159-2.698 1.796-4.336 1.796h-.001-32.223c-4.141 0-7.498 3.356-7.498 7.498 0 4.141 3.356 7.498 7.498 7.498h32.222.003c5.643 0 10.948-2.198 14.938-6.188 3.991-3.991 6.188-9.297 6.188-14.94v-19.635c17.775-3.327 32.648-14.988 40.4-30.757h55.115c32.163 0 58.329-26.166 58.329-58.329v-187.118c0-32.157-26.161-58.32-58.318-58.32zm-352.975-107.659c0-7.682 6.25-13.932 13.932-13.932h259.49c7.683 0 13.933 6.25 13.933 13.932s-6.25 13.932-13.933 13.932h-259.49c-7.682 0-13.932-6.25-13.932-13.932zm288.634 93.82c-12.817 11.344-28.183 19.624-44.634 24.02-45.403 12.131-94.002-2-139.888-17.514l-2.452-.83c-8.533-2.887-17.358-5.871-26.184-8.691-3.942-1.265-8.164.915-9.424 4.859-1.261 3.944.915 8.163 4.859 9.424 8.706 2.783 17.47 5.747 25.943 8.613l2.454.83c45.953 15.537 99.116 31.005 148.562 17.797 14.606-3.903 28.457-10.496 40.759-19.337l.004 273.544c0 22.949-18.669 41.619-41.617 41.622h-206.679c-22.948-.003-41.617-18.673-41.617-41.622l.004-297.556c12.08.985 24.987 3.178 39.209 6.654 4.023.983 8.08-1.48 9.063-5.502.983-4.023-1.48-8.08-5.502-9.063-15.152-3.704-28.945-6.011-41.936-7.045.925-4.107 2.604-8.021 4.984-11.569l22.304-33.239h233.661l22.303 33.239c3.809 5.678 5.823 12.293 5.823 19.13v12.236zm14.995 70.8h43.281c6.474 0 11.739 5.266 11.739 11.739v166.356c0 6.473-5.266 11.739-11.739 11.739h-43.281zm92.67 188.476c0 23.894-19.44 43.334-43.334 43.334h-50.219c.57-3.216.884-6.519.884-9.896v-17.085h43.281c14.741 0 26.734-11.993 26.734-26.734v-166.356c0-14.741-11.993-26.734-26.734-26.734h-43.281v-26.971h49.346c23.888 0 43.323 19.435 43.323 43.324z"/><path d="m92.553 308.901 41.632 41.632c3.252 3.252 7.523 4.877 11.795 4.877 4.271 0 8.543-1.626 11.796-4.877l41.631-41.632c6.504-6.504 6.504-17.086 0-23.591l-41.632-41.632c-6.504-6.504-17.086-6.502-23.59 0l-41.632 41.633c-6.501 6.504-6.501 17.085 0 23.59zm10.604-12.987 41.632-41.632c.328-.329.759-.493 1.191-.493.433 0 .864.164 1.192.493l41.631 41.632c.658.657.658 1.726 0 2.383l-41.63 41.632c-.658.656-1.728.658-2.384 0l-41.632-41.631c-.657-.657-.657-1.728 0-2.384z"/><path d="m246.44 309.898c3.252 3.251 7.523 4.876 11.794 4.876 4.272 0 8.543-1.625 11.796-4.876l41.632-41.632c6.503-6.504 6.503-17.086 0-23.59l-41.632-41.632c-6.504-6.504-17.087-6.503-23.591 0l-41.632 41.632c-6.503 6.504-6.503 17.086 0 23.59zm-31.029-54.618 41.632-41.632c.328-.329.76-.493 1.191-.493.432 0 .864.164 1.192.493l41.632 41.632c.657.657.657 1.725 0 2.382l-41.631 41.632c-.658.656-1.728.658-2.384 0l-41.632-41.632c-.657-.657-.657-1.725 0-2.382z"/></g></g></svg>