<svg id="Capa_1" enable-background="new 0 0 512 512" height="512" viewBox="0 0 512 512" width="512" xmlns="http://www.w3.org/2000/svg"><g><g><g><path d="m338.47 7.5h-176.33c-16.053 0-29.066 13.013-29.066 29.066v64.481h234.462v-64.481c0-16.053-13.013-29.066-29.066-29.066z" fill="#e0dde0"/><path d="m398.235 7.5h-63.265c16.052 0 29.066 13.013 29.066 29.066v64.481h63.265v-64.481c0-16.053-13.014-29.066-29.066-29.066z" fill="#d1ccd3"/></g><g><g><g><g><g><g><path d="m108.605 64.408 57.093 416.307h168.636l57.093-416.307z" fill="#f7f4f7"/><path d="m387.927 64.408-57.093 416.307h63.842l57.093-416.307z" fill="#edeaed"/></g></g></g><path d="m123.406 172.5c-3.791 0-6.703 3.359-6.164 7.112l28.99 202.092c.44 3.066 3.067 5.343 6.164 5.343h194.784l29.423-214.547z" fill="#b58c8c"/><path d="m414.143 381.704 28.99-202.092c.538-3.753-2.373-7.112-6.165-7.112h-63.865l-29.423 214.547h64.299c3.098 0 5.724-2.277 6.164-5.343z" fill="#a87f7f"/><circle cx="280.187" cy="287.175" fill="#badd93" r="62.414"/></g><path d="m163.848 226.23c-73.562 0-133.197 59.634-133.197 133.197s59.634 133.197 133.197 133.197 133.197-59.634 133.197-133.197-59.635-133.197-133.197-133.197zm0 194.957c-34.109 0-61.76-27.651-61.76-61.76s27.651-61.76 61.76-61.76 61.76 27.651 61.76 61.76-27.651 61.76-61.76 61.76z" fill="#efc984"/><path d="m297.044 359.427c0-73.562-59.634-133.197-133.197-133.197-10.905 0-21.505 1.311-31.649 3.783.005.002.011.004.017.006 58.291 14.2 101.564 66.745 101.564 129.407s-43.274 115.208-101.564 129.407c-.007.002-.014.004-.021.005 10.146 2.473 20.746 3.784 31.653 3.784 73.563.002 133.197-59.632 133.197-133.195z" fill="#e8ae4d"/><path d="m424.973 486.017v-21.767l-2.667-5.15h-387.598c-4.572 0-8.279 3.707-8.279 8.279 0 20.502 16.62 37.122 37.122 37.122h342.939c10.208-.001 18.483-8.276 18.483-18.484z" fill="#c1bcc4"/><path d="m477.292 459.1h-54.986v26.917c0 10.208-8.275 18.483-18.483 18.483h44.626c20.502 0 37.122-16.62 37.122-37.122 0-4.572-3.706-8.278-8.279-8.278z" fill="#b2aab5"/></g></g><g><path d="m102.344 60.237c-12.878 0-23.318 10.44-23.318 23.318s10.44 23.318 23.318 23.318h295.923c12.878 0 23.318-10.44 23.318-23.318v-23.318z" fill="#edeaed"/><path d="m458.031 60.237h-39.947v23.318c0 12.878-10.44 23.318-23.318 23.318h63.265c12.878 0 23.318-10.44 23.318-23.318s-10.44-23.318-23.318-23.318z" fill="#e0dde0"/></g></g><g><g><path d="m156.849 428.335c41.012 4.136 76.26-28.25 76.26-68.908 0-38.19-31.07-69.26-69.261-69.26-37.851 0-69.26 30.774-69.26 69.26 0 35.788 27.284 65.323 62.144 68.897.039.004.078.008.117.011zm7.227-14.653-2.624-19.135h43.709c-9.914 11.645-24.644 19.066-41.085 19.135zm54.032-54.255c0 7.108-1.388 13.894-3.884 20.12h-60.726l-10.095-70.369c6.314-2.578 13.213-4.011 20.443-4.011 29.922 0 54.262 24.34 54.262 54.26zm-108.52 0c0-16.872 7.742-31.967 19.857-41.927l9.363 65.267c.642 4.485 3.467 8.223 7.289 10.218l2.539 18.516c-22.535-6.594-39.048-27.436-39.048-52.074z"/><path d="m477.292 451.6h-71.052l8.039-58.615c3.821-1.995 6.645-5.733 7.289-10.216l18.967-132.224c.588-4.1-2.259-7.901-6.358-8.489-4.097-.587-7.9 2.259-8.489 6.359l-18.811 131.132h-103.794c.96-6.624 1.462-13.345 1.462-20.12 0-2.233-.058-4.453-.162-6.661 27.203-10.026 45.718-36.163 45.718-65.591 0-38.55-31.363-69.914-69.914-69.914-17.937 0-35.123 6.938-48.058 19.188-20.234-11.279-43.518-17.718-68.282-17.718-11.195 0-22.204 1.303-32.866 3.848l-6.106-42.579h310.625l-4.793 33.414c-.588 4.1 2.259 7.901 6.358 8.489 4.09.592 7.901-2.258 8.489-6.359l5.002-34.868c.717-4.999-1.366-9.959-5.385-12.956l7.316-53.347h5.544c16.993 0 30.817-13.825 30.817-30.818s-13.824-30.818-30.817-30.818h-23.23v-16.171c0-20.163-16.404-36.566-36.567-36.566h-236.094c-20.162 0-36.565 16.403-36.565 36.566v16.171h-23.23c-16.993 0-30.818 13.825-30.818 30.818s13.825 30.818 30.818 30.818h5.544l7.316 53.347c-4.026 3.001-6.103 7.965-5.385 12.957l6.632 46.235c-12.259 4.386-23.922 10.486-34.699 18.242-3.362 2.419-4.126 7.106-1.707 10.468 2.421 3.363 7.108 4.127 10.469 1.707 21.452-15.438 46.812-23.598 73.335-23.598 69.31 0 125.697 56.387 125.697 125.696 0 34.981-14.64 68.41-40.257 92.173h-170.883c-25.615-23.762-40.256-57.191-40.256-92.173 0-29.132 10.192-57.526 28.699-79.951 2.637-3.195 2.185-7.922-1.011-10.559-3.193-2.635-7.922-2.184-10.558 1.011-20.72 25.106-32.131 56.891-32.131 89.499 0 34.023 12.369 66.733 34.419 92.173h-22.861c-8.7 0-15.778 7.078-15.778 15.778 0 24.604 20.016 44.622 44.621 44.622h384.898c24.604 0 44.621-20.018 44.621-44.622 0-8.7-7.078-15.778-15.778-15.778zm-336.718-415.034c0-11.892 9.674-21.566 21.565-21.566h236.095c11.892 0 21.566 9.674 21.566 21.566v16.171h-279.226zm-54.049 46.989c0-8.722 7.096-15.818 15.818-15.818h355.688c8.722 0 15.817 7.096 15.817 15.818s-7.096 15.818-15.817 15.818h-355.687c-8.723 0-15.819-7.096-15.819-15.818zm350.821 30.818-6.943 50.627h-300.431l-6.943-50.627zm-192.03 130.404c9.765-8.031 22.08-12.516 34.871-12.516 30.279 0 54.914 24.634 54.914 54.914 0 21.796-12.929 41.291-32.315 50.047-6.052-38.011-27.375-70.998-57.47-92.445zm54.752 149.77h98.855l-7.825 57.053h-120.973c14.301-16.5 24.521-36.061 29.943-57.053zm148.381 102.453h-384.898c-16.333 0-29.621-13.289-29.621-29.622 0-.429.35-.778.778-.778h442.584c.429 0 .778.349.778.778 0 16.333-13.288 29.622-29.621 29.622z"/></g></g></g></svg>