<svg id="Layer_1" enable-background="new 0 0 512 512" height="512" viewBox="0 0 512 512" width="512" xmlns="http://www.w3.org/2000/svg"><g><ellipse cx="148.5" cy="369" fill="#ae5121" rx="46" ry="36"/><path d="m487 255.5v46c0 24.85-20.15 45-45 45h-45v-30h45c8.27 0 15-6.73 15-15v-46c0-8.27-6.73-15-15-15h-45v-30h45c24.85 0 45 20.15 45 45z" fill="#fca309"/><path d="m354.974 397h-125.948c-23.21 0-42.026-18.816-42.026-42.026v-184.974h210v184.974c0 23.21-18.816 42.026-42.026 42.026z" fill="#f13e27"/><path d="m354.974 397h-125.948c-23.21 0-42.026-18.816-42.026-42.026v-184.974h210v184.974c0 23.21-18.816 42.026-42.026 42.026z" fill="#fece3f"/><path d="m367 170v184.975c0 23.21-18.815 42.025-42.026 42.025h30c23.21 0 42.026-18.815 42.026-42.025v-184.975z" fill="#fdb720"/><path d="m187 210.5h210v42h-210z" fill="#efefef"/><path d="m367 210.5h30v42h-30z" fill="#dcdcdc"/><path d="m489.5 427h-467c-8.284 0-15-6.716-15-15 0-8.284 6.716-15 15-15h467c8.284 0 15 6.716 15 15 0 8.284-6.716 15-15 15z" fill="#2387eb"/><path d="m489.5 397h-30c8.284 0 15 6.716 15 15s-6.716 15-15 15h30c8.284 0 15-6.716 15-15s-6.716-15-15-15z" fill="#207bd6"/><path d="m430.42 479h-348.84c-10.716 0-20.695-5.452-26.485-14.47l-24.095-37.53h450l-24.095 37.53c-5.789 9.018-15.769 14.47-26.485 14.47z" fill="#207bd6"/><path d="m451 427-24.095 37.53c-5.789 9.018-15.769 14.47-26.485 14.47h30c10.716 0 20.695-5.452 26.485-14.47l24.095-37.53z" fill="#1e72c7"/><ellipse cx="199.5" cy="356" fill="#ca6633" rx="36" ry="46" transform="matrix(.707 -.707 .707 .707 -193.298 245.338)"/><path d="m224.956 330.544c-14.839-14.839-35.129-19.569-49.665-12.845 6.948 2.619 13.742 6.922 19.665 12.845 17.964 17.964 21.13 43.924 7.071 57.983-2.445 2.446-5.257 4.358-8.318 5.773 14.125 5.323 28.894 3.65 38.318-5.773 14.059-14.059 10.893-40.019-7.071-57.983z" fill="#ae5121"/><path d="m305 139h-68c-11.046 0-20-8.954-20-20 0-11.046 8.954-20 20-20h68c11.046 0 20 8.954 20 20 0 11.046-8.954 20-20 20z" fill="#efefef"/><path d="m305 99h-30c11.046 0 20 8.954 20 20 0 11.046-8.954 20-20 20h30c11.046 0 20-8.954 20-20 0-11.046-8.954-20-20-20z" fill="#dcdcdc"/><path d="m257.5 73h-84c-11.046 0-20-8.954-20-20 0-11.046 8.954-20 20-20h84c11.046 0 20 8.954 20 20 0 11.046-8.954 20-20 20z" fill="#efefef"/><path d="m257.5 33h-30c11.046 0 20 8.954 20 20 0 11.046-8.954 20-20 20h30c11.046 0 20-8.954 20-20 0-11.046-8.954-20-20-20z" fill="#dcdcdc"/><g><path d="m489.5 389.5h-99.069c8.697-8.929 14.069-21.111 14.069-34.53v-.97h37.5c28.949 0 52.5-23.552 52.5-52.5v-46c0-28.948-23.551-52.5-52.5-52.5h-37.5v-33c0-4.143-3.358-7.5-7.5-7.5h-210c-4.142 0-7.5 3.357-7.5 7.5v138.406c-6.729 1.577-12.874 4.802-17.833 9.761-2.338 2.338-4.28 4.947-5.859 7.748-2.414-.267-4.855-.415-7.308-.415-29.5 0-53.5 19.514-53.5 43.5 0 7.303 2.198 14.299 6.256 20.5h-37.387c-4.142 0-7.5 3.357-7.5 7.5s3.358 7.5 7.5 7.5h425.631c4.136 0 7.5 3.364 7.5 7.5s-3.364 7.5-7.5 7.5h-467c-4.136 0-7.5-3.364-7.5-7.5s3.364-7.5 7.5-7.5h8.5c4.142 0 7.5-3.357 7.5-7.5s-3.358-7.5-7.5-7.5h-8.5c-12.407 0-22.5 10.094-22.5 22.5s10.093 22.5 22.5 22.5h4.403l21.881 34.082c7.203 11.22 19.463 17.918 32.796 17.918h270.289c4.142 0 7.5-3.357 7.5-7.5s-3.358-7.5-7.5-7.5h-270.289c-8.201 0-15.743-4.12-20.173-11.021l-16.679-25.979h422.544l-16.679 25.979c-4.43 6.901-11.972 11.021-20.173 11.021h-45.808c-4.142 0-7.5 3.357-7.5 7.5s3.358 7.5 7.5 7.5h45.808c13.333 0 25.593-6.698 32.795-17.918l21.881-34.082h4.403c12.407 0 22.5-10.094 22.5-22.5s-10.092-22.5-22.499-22.5zm-295-171.5h195v27h-195zm210 30h37.5c4.136 0 7.5 3.364 7.5 7.5v46c0 4.136-3.364 7.5-7.5 7.5h-37.5zm75 7.5v46c0 20.678-16.822 37.5-37.5 37.5h-37.5v-15h37.5c12.407 0 22.5-10.094 22.5-22.5v-46c0-12.406-10.093-22.5-22.5-22.5h-37.5v-15h37.5c20.678 0 37.5 16.822 37.5 37.5zm-90-78v25.5h-195v-25.5zm-202.66 144.772c.054.001.106.008.16.008.347 0 .686-.032 1.02-.077.515-.026 1.027-.063 1.549-.063 9.927 0 21.121 4.741 30.086 13.702 15.009 15.018 18.182 36.274 7.071 47.386-2.528 2.528-5.698 4.373-9.305 5.457-.086.025-.17.056-.256.083-1.11.321-2.267.559-3.453.732h-8.694c-5.313-.705-10.601-2.591-15.552-5.492-.016-.01-.033-.019-.049-.029-3.575-2.1-6.974-4.722-10.073-7.821-11.774-11.78-16.26-27.398-12.286-38.947.119-.269.222-.547.31-.835 1.099-2.842 2.722-5.42 4.905-7.603 3.86-3.859 8.946-5.986 14.567-6.501zm-76.84 46.728c0-15.715 17.271-28.5 38.5-28.5.87 0 1.737.022 2.601.065-.834 6.891-.056 14.225 2.278 21.435h-26.879c-4.142 0-7.5 3.357-7.5 7.5s3.358 7.5 7.5 7.5h34.212c2.292 3.417 4.962 6.698 8.025 9.763.949.95 1.929 1.855 2.923 2.737h-49.783c-7.573-5.395-11.877-12.772-11.877-20.5zm131.004 20.5c12.651-17.494 8.446-45.066-10.743-64.265-10.433-10.427-23.342-16.433-35.762-17.714v-47.521h195v94.97c0 19.04-15.49 34.53-34.53 34.53z"/><path d="m209.399 377.214c1.464 1.464 3.384 2.196 5.303 2.196s3.839-.732 5.303-2.196c2.929-2.93 2.929-7.678 0-10.606l-31.112-31.114c-2.928-2.927-7.677-2.929-10.606 0-2.929 2.93-2.929 7.678 0 10.606z"/><path d="m209.5 119c0 15.163 12.336 27.5 27.5 27.5h68c15.164 0 27.5-12.337 27.5-27.5s-12.336-27.5-27.5-27.5h-68c-15.164 0-27.5 12.337-27.5 27.5zm108 0c0 6.893-5.607 12.5-12.5 12.5h-68c-6.893 0-12.5-5.607-12.5-12.5s5.607-12.5 12.5-12.5h68c6.893 0 12.5 5.607 12.5 12.5z"/><path d="m173.5 80.5h84c15.164 0 27.5-12.337 27.5-27.5s-12.336-27.5-27.5-27.5h-34.097c-4.142 0-7.5 3.357-7.5 7.5s3.358 7.5 7.5 7.5h34.097c6.893 0 12.5 5.607 12.5 12.5s-5.607 12.5-12.5 12.5h-84c-6.893 0-12.5-5.607-12.5-12.5s5.607-12.5 12.5-12.5h18.089c4.142 0 7.5-3.357 7.5-7.5s-3.358-7.5-7.5-7.5h-18.089c-15.164 0-27.5 12.337-27.5 27.5s12.336 27.5 27.5 27.5z"/></g></g></svg>