<svg id="Capa_1" enable-background="new 0 0 512 512" height="512" viewBox="0 0 512 512" width="512" xmlns="http://www.w3.org/2000/svg"><g><path d="m445.254 289.133-21.109 200.535c-.888 8.432-7.997 14.832-16.476 14.832h-303.338c-8.478 0-15.588-6.401-16.476-14.832l-21.109-200.534 5-99.401h368.507z" fill="#edf4ff"/><path d="m440.254 189.733h-23l5 99.399-21.109 200.535c-.888 8.431-7.997 14.832-16.476 14.832h23c8.478 0 15.588-6.401 16.476-14.832l21.109-200.535z" fill="#d6e0ff"/><path d="m256 189.733h-184.254l-5 99.401 21.109 200.533c.888 8.431 7.997 14.832 16.476 14.832h151.669z" fill="#d6e0ff"/><path d="m81.3 106.806c-4.557-.399-7.929-4.416-7.53-8.974l1.444-16.504c.399-4.557 4.416-7.929 8.974-7.53l363.08 31.765c4.557.399 7.929 4.416 7.53 8.974l-1.444 16.504c-.399 4.557-4.416 7.929-8.974 7.53z" fill="#f4dbb3"/><path d="m447.267 105.564-21.79-1.906c3.911.95 6.653 4.628 6.292 8.76l-1.444 16.504c-.399 4.557-4.416 7.928-8.974 7.53l23.029 2.12c4.557.399 8.575-2.973 8.974-7.53l1.444-16.504c.398-4.558-2.974-8.575-7.531-8.974z" fill="#eac89f"/><path d="m123.467 37h99.4v156.367h-99.4z" fill="#ffd97d"/><path d="m397.733 413.383v-16.567c0-4.575-3.709-8.283-8.283-8.283h-16.567c-4.575 0-8.283 3.709-8.283 8.283v16.567c0 4.575 3.709 8.283 8.283 8.283h16.567c4.575.001 8.283-3.708 8.283-8.283z" fill="#e55964"/><path d="m256 189.733-29.357 88.072c-2.255 6.765-8.586 11.328-15.717 11.328h-163.874c-11.308 0-19.292-11.078-15.716-21.806l23.977-71.931c1.128-3.382 4.293-5.664 7.858-5.664h192.829z" fill="#faf8fa"/><path d="m256 189.733 29.357 88.072c2.255 6.765 8.586 11.328 15.717 11.328h163.874c11.308 0 19.292-11.078 15.716-21.806l-23.977-71.931c-1.127-3.382-4.293-5.664-7.858-5.664h-192.829z" fill="#4cbcec"/><path d="m454.8 15.5v17.133c0 4.418-3.582 8-8 8h-365.033c-4.418 0-8-3.582-8-8v-17.133c0-4.418 3.582-8 8-8h365.033c4.418 0 8 3.582 8 8z" fill="#f4dbb3"/><path d="m446.8 7.5h-23c4.418 0 8 3.582 8 8v17.133c0 4.418-3.582 8-8 8h23c4.418 0 8-3.582 8-8v-17.133c0-4.418-3.582-8-8-8z" fill="#eac89f"/><path d="m256 189.733 29.357 88.072c2.255 6.765 8.586 11.328 15.717 11.328h163.874c11.308 0 19.292-11.078 15.716-21.806l-23.977-71.931c-1.127-3.382-4.293-5.664-7.858-5.664h-192.829z" fill="#faf8fa"/><g fill="#eceaec"><path d="m480.665 267.328-23.977-71.931c-1.127-3.382-4.293-5.664-7.858-5.664h-23c3.565 0 6.731 2.281 7.858 5.664l23.977 71.931c3.576 10.727-4.409 21.806-15.717 21.806h23c11.308-.001 19.293-11.079 15.717-21.806z"/><path d="m233 189.733-29.357 88.072c-2.255 6.765-8.586 11.328-15.717 11.328h23c7.131 0 13.462-4.563 15.717-11.328l29.357-88.072z"/></g></g><g><path d="m372.883 381.033c-8.703 0-15.783 7.081-15.783 15.784v16.566c0 8.703 7.081 15.783 15.783 15.783h16.567c8.703 0 15.783-7.081 15.783-15.783v-16.566c0-8.703-7.08-15.784-15.783-15.784zm17.35 15.784v16.566c0 .432-.352.783-.783.783h-16.567c-.432 0-.783-.352-.783-.783v-16.566c0-.432.352-.784.783-.784h16.567c.432 0 .783.352.783.784z"/><path d="m147.4 397.6h-33.133c-4.142 0-7.5 3.358-7.5 7.5s3.358 7.5 7.5 7.5h33.133c4.142 0 7.5-3.358 7.5-7.5s-3.358-7.5-7.5-7.5z"/><path d="m487.78 264.956-23.977-71.931c-2.152-6.455-8.169-10.792-14.974-10.792h-218.462v-54.857l155.591 13.612c.002 0 .003.001.005.001h.005l57.757 5.053c.469.042.938.062 1.403.062 3.7 0 7.249-1.287 10.118-3.694 3.23-2.71 5.211-6.516 5.578-10.715l1.443-16.504c.368-4.2-.922-8.291-3.632-11.521-2.71-3.229-6.515-5.21-10.715-5.578l-217.553-19.033v-30.926h216.433c8.547 0 15.5-6.953 15.5-15.5v-17.133c0-8.547-6.953-15.5-15.5-15.5h-365.033c-8.547 0-15.5 6.953-15.5 15.5v17.133c0 8.547 6.953 15.5 15.5 15.5h34.2v20.917l-31.126-2.723c-8.667-.759-16.341 5.677-17.1 14.348l-1.444 16.504c-.367 4.2.923 8.291 3.633 11.521 2.71 3.229 6.516 5.211 10.715 5.578l35.321 3.09v64.866h-52.796c-6.805 0-12.822 4.337-14.974 10.792l-23.976 71.93c-2.476 7.428-1.27 15.331 3.308 21.683s11.694 9.995 19.524 9.995h12.943l16.729 158.932v.004l3.672 34.884c1.293 12.283 11.583 21.546 23.935 21.546h11.502c4.142 0 7.5-3.358 7.5-7.5s-3.358-7.5-7.5-7.5h-11.502c-4.653 0-8.53-3.49-9.017-8.118l-2.798-26.582h155.984v34.7h-102.667c-4.142 0-7.5 3.358-7.5 7.5s3.358 7.5 7.5 7.5h261.835c12.352 0 22.642-9.263 23.935-21.547l3.672-34.884c0-.001 0-.003 0-.004l9.536-90.591c.434-4.12-2.555-7.81-6.674-8.244-4.116-.428-7.81 2.555-8.244 6.674l-8.831 83.896h-157.562v-211.349l14.742 44.226c3.281 9.843 12.456 16.456 22.832 16.456h135.849l-3.879 36.848c-.434 4.119 2.555 7.811 6.674 8.244.267.028.532.042.794.042 3.789 0 7.044-2.863 7.45-6.715l4.044-38.418h12.942c7.83 0 14.946-3.643 19.524-9.995s5.784-14.255 3.308-21.683zm-40.635-151.643c.139.165.199.357.18.571l-1.444 16.504c-.018.214-.112.393-.276.531-.165.138-.358.201-.572.18l-50.291-4.4 1.58-18.064 50.291 4.4c.215.019.394.112.532.278zm-65.766-5.985-1.58 18.064-149.432-13.074v-18.201zm-166.012-21.293v.016 96.183h-18.133v-134.1h18.133zm-51.267 96.198v-134.1h18.133v134.1zm283.2-166.733v17.133c0 .276-.224.5-.5.5h-50.767v-18.133h50.767c.276 0 .5.224.5.5zm-366.033 17.133v-17.133c0-.276.224-.5.5-.5h299.267v18.133h-299.267c-.276 0-.5-.224-.5-.5zm.686 66.701c-.214-.019-.394-.112-.532-.276-.139-.165-.199-.357-.18-.572l1.444-16.503c.038-.431.418-.762.849-.712l32.433 2.838v18.202zm49.014-51.201h18.133v134.1h-18.133zm-91.271 229.735c-1.725-2.393-2.179-5.371-1.246-8.169l23.977-71.931c.107-.32.405-.535.743-.535h60.296 99.4 22.728l-26.067 78.201c-1.236 3.708-4.692 6.199-8.601 6.199h-163.874c-2.95 0-5.631-1.372-7.356-3.765zm379.788 184.432-2.798 26.582c-.487 4.628-4.364 8.118-9.017 8.118h-144.169v-34.7zm-328.547-15-15.859-150.667h135.849c10.376 0 19.55-6.613 22.831-16.456l14.742-44.226v211.349zm381.367-169.432c-1.725 2.393-4.406 3.765-7.355 3.765h-19.671c-.003 0-.007 0-.01 0h-144.194c-3.909 0-7.365-2.491-8.601-6.199l-26.067-78.201h182.424c.338 0 .637.215.743.535l23.977 71.931c.932 2.799.478 5.776-1.246 8.169z"/></g></svg>