<svg id="Capa_1" enable-background="new 0 0 511.684 511.684" height="512" viewBox="0 0 511.684 511.684" width="512" xmlns="http://www.w3.org/2000/svg"><g><g><path d="m337.456 38.523h-46.441v-15.079c0-8.806 7.139-15.945 15.945-15.945h14.552c8.806 0 15.945 7.139 15.945 15.945v15.079z" fill="#cbc4cc"/></g><g><path d="m337.452 23.442v15.08h-19.39v-15.08c0-7.98-5.86-14.59-13.52-15.76.79-.12 1.6-.18 2.42-.18h14.55c8.81 0 15.94 7.14 15.94 15.94z" fill="#b5adb6"/></g><g><path d="m353.643 80.267h-195.602l-21.41 49.704v162.255 162.254l19.156 44.47c1.368 3.176 4.495 5.234 7.953 5.234h184.205c3.458 0 6.585-2.058 7.953-5.234l19.156-44.47v-162.255-162.255z" fill="#cbc4cc"/></g><g><path d="m375.052 129.972v324.51l-19.15 44.47c-1.37 3.17-4.5 5.23-7.96 5.23h-20c3.46 0 6.59-2.06 7.96-5.23l19.15-44.47v-324.51l-21.41-49.71h20z" fill="#b5adb6"/></g><g><path d="m360.762 80.267h-209.841c-11.527 0-20.872-9.345-20.872-20.872 0-11.527 9.345-20.872 20.872-20.872h209.841c11.527 0 20.872 9.345 20.872 20.872 0 11.527-9.345 20.872-20.872 20.872z" fill="#f3f0f3"/></g><g><path d="m381.632 59.392c0 5.77-2.33 10.98-6.11 14.76-3.78 3.77-9 6.11-14.76 6.11h-20c5.76 0 10.98-2.34 14.76-6.11 3.78-3.78 6.11-8.99 6.11-14.76 0-11.52-9.34-20.87-20.87-20.87h20c11.53 0 20.87 9.35 20.87 20.87z" fill="#e2dee2"/></g><g><path d="m136.63 129.97h238.423v324.509h-238.423z" fill="#e94444"/></g><g><path d="m355.053 129.97h20v324.509h-20z" fill="#d83131"/></g><g><path d="m170.129 454.414c37.433-13.15 57.575-55.88 62.025-96.239s-2.671-81.221.068-121.741c2.525-37.356 13.563-74.078 31.983-106.399h77.351c-18.419 32.321-29.458 69.043-31.983 106.399-3.115 46.092-.168 92.107-3.866 138.222-2.577 32.13-13.587 68.151-46.627 79.758z" fill="#f3f0f3"/></g><g><path d="m341.552 130.032c-18.42 32.32-29.45 69.05-31.98 106.4-3.11 46.09-.17 92.11-3.87 138.22-2.57 32.14-13.58 68.16-46.62 79.76h-26.521c33.04-11.6 51.181-47.62 53.761-79.76 3.69-46.11.75-92.13 3.86-138.22 2.53-37.35 13.57-74.08 31.98-106.4z" fill="#e2dee2"/></g><path d="m364.907 87.461c13.686-2.013 24.227-13.83 24.227-28.066 0-15.644-12.728-28.371-28.372-28.371h-15.806v-7.579c0-12.928-10.518-23.445-23.445-23.445h-14.552c-12.928 0-23.444 10.517-23.444 23.444v7.579h-83.878c-4.143 0-7.5 3.357-7.5 7.5s3.357 7.5 7.5 7.5h91.378 46.441 23.306c7.373 0 13.372 5.998 13.372 13.371s-5.999 13.372-13.372 13.372h-209.84c-7.373 0-13.372-5.999-13.372-13.372s5.999-13.371 13.372-13.371h13.616c4.143 0 7.5-3.357 7.5-7.5s-3.357-7.5-7.5-7.5h-13.616c-15.645 0-28.372 12.728-28.372 28.371 0 14.236 10.541 26.053 24.227 28.066l-17.033 39.54c-.394.911-.614 1.915-.614 2.971v324.509c0 1.056.22 2.059.614 2.97l19.155 44.468c2.556 5.933 8.381 9.766 14.841 9.766h184.205c6.46 0 12.285-3.833 14.841-9.767l19.154-44.466c.394-.911.614-1.915.614-2.971v-324.509c0-1.056-.22-2.06-.615-2.972zm-34.951-56.438h-31.441v-7.579c0-4.656 3.788-8.444 8.444-8.444h14.552c4.657 0 8.445 3.788 8.445 8.444zm-166.979 56.744h185.73l14.949 34.704h-215.629zm-18.847 49.704h107.595c-15.378 30.469-24.674 64.246-26.987 98.459-1.288 19.064-.438 38.304.385 56.91.941 21.289 1.914 43.302-.425 64.514-2.228 20.202-8.493 39.851-17.645 55.328-9.954 16.836-23.242 28.664-38.468 34.298h-24.455zm204.88 358.511c-.184.426-.602.701-1.065.701h-184.206c-.464 0-.882-.275-1.065-.7l-14.647-34.004h215.63zm18.544-49.003h-82.479c13.485-13.006 22.5-32.546 26.477-57.84.644-4.092-2.152-7.931-6.244-8.574-4.1-.64-7.931 2.152-8.574 6.244-5.034 32.018-18.145 52.23-38.978 60.104h-59.903c8.401-7.077 15.855-16.016 22.113-26.599 10.358-17.521 17.151-38.724 19.643-61.317 2.466-22.362 1.466-44.964.5-66.82-.805-18.195-1.636-37.009-.403-55.236 2.348-34.746 12.324-69.02 28.903-99.405h60.413c-15.355 30.451-24.622 64.21-26.933 98.393-1.502 22.223-1.61 44.682-1.716 66.4-.079 16.443-.161 33.446-.853 50.111-.172 4.138 3.044 7.633 7.183 7.804 4.091.177 7.632-3.043 7.804-7.183.703-16.938.786-34.081.866-50.66.104-21.488.212-43.708 1.683-65.461 2.349-34.774 12.361-69.063 28.966-99.47h21.532z"/></g></svg>