<svg id="Capa_1" enable-background="new 0 0 512 512" height="512" viewBox="0 0 512 512" width="512" xmlns="http://www.w3.org/2000/svg"><g><g><path d="m275.011 411.989v.37c0 32.358 22.348 60.749 53.996 67.492.889.19 1.798.38 2.717.549 0 0 24.096 3.447 28.691 24.096h-208.83c4.595-20.649 28.691-24.096 28.691-24.096.829-.15 1.648-.32 2.448-.49 31.768-6.693 54.266-35.085 54.266-67.552v-.37c0-6.204-2.328-12.128-6.294-16.903-.02-.03-.04-.05-.06-.07-39.88-43.716-61.219-135.824-72.617-219.27-7.512-55.065-10.699-106.373-12.038-137.502-.41-9.241-.639-16.703-.779-21.958-.12-4.815 3.746-8.781 8.571-8.781h204.455c4.825 0 8.691 3.966 8.571 8.781-.28 10.789-.979 30.869-2.647 56.533-1.878 28.971-5.005 65.055-10.17 102.927-11.399 83.446-32.737 175.554-72.617 219.27-.02.02-.04.04-.06.07-3.966 4.776-6.294 10.7-6.294 16.904z" fill="#c8effe"/></g><g><path d="m275.011 411.989v.37c0 32.358 22.348 60.749 53.996 67.492.889.19 1.798.38 2.717.549 0 0 24.096 3.447 28.691 24.096h-18.531c.599 0-3.836-6.663-4.755-7.423-3.287-2.697-6.823-3.826-10.909-4.775-4.675-1.089-9.51-1.259-14.216-2.228-16.753-3.427-30-15.325-39.65-29.101-9.85-14.056-15.874-31.369-15.874-48.611v-.37c0-6.204 2.328-12.128 6.294-16.903.02-.03.04-.05.06-.07 39.88-43.716 61.219-135.824 72.617-219.27 5.165-37.872 8.292-73.956 10.17-102.927 1.668-25.664 2.368-45.744 2.647-56.533.12-4.815-3.746-8.781-8.571-8.781h18.531c4.825 0 8.691 3.966 8.571 8.781-.28 10.789-.979 30.869-2.647 56.533-1.878 28.971-5.005 65.055-10.17 102.927-11.399 83.446-32.737 175.554-72.617 219.27-.02.02-.04.04-.06.07-3.966 4.776-6.294 10.7-6.294 16.904z" fill="#99e6fc"/></g><g><path d="m353.972 175.746c-5.265 38.551-12.647 78.961-22.997 115.584h-149.94c-5.015-17.702-9.321-36.294-13.037-55.125-3.966-20.13-7.253-40.539-9.98-60.459z" fill="#fee45a"/></g><g><path d="m353.972 175.746c-.33 2.408-.669 4.825-1.009 7.253-2 14.294-4.344 28.509-6.992 42.738-1.71 9.189-3.539 18.357-5.533 27.489-2.642 12.1-5.647 24.081-8.884 36.007-.19.699-.38 1.399-.579 2.098h-18.541c10.36-36.623 17.742-77.033 23.017-115.584h18.521z" fill="#fedf30"/></g><g><path d="m330.975 291.33c-12.058 42.637-28.152 80.16-49.61 103.686-6.224 7.522-14.955 11.488-23.826 11.898h-3.077c-8.871-.41-17.602-4.376-23.826-11.898-21.448-23.516-37.542-61.039-49.6-103.686z" fill="#bbec6c"/></g><g><path d="m330.975 291.33c-.15.529-.3 1.069-.46 1.599-1.748 6.142-3.564 12.053-5.555 18.164-6.15 18.871-13.447 37.14-23.067 54.604-3.171 5.756-6.64 11.466-10.429 16.851-3.868 5.498-8.298 11.243-13.266 15.799-5.445 4.994-13.165 8.568-20.66 8.568h-.529c.889-4.326 2.897-8.382 5.764-11.828.02-.03.04-.05.06-.07 21.458-23.516 37.542-61.039 49.6-103.686h18.542z" fill="#a2e62e"/></g><g><path d="m364.151 72.819c-1.878 28.971-5.005 65.055-10.17 102.927h-195.963c-7.512-55.065-10.699-106.373-12.038-137.502 25.275 4.695 50.27 14.395 74.425 23.626 40.809 15.594 85.554 30.25 127.372 17.622 5.675-1.708 11.15-3.956 16.374-6.673z" fill="#fe9738"/></g><g><path d="m364.151 72.819c-1.878 28.971-5.005 65.055-10.17 102.927h-18.531c4.735-34.695 7.752-67.902 9.67-95.494.889-.24 1.778-.489 2.657-.759 5.675-1.709 11.15-3.957 16.374-6.674z" fill="#fe860a"/></g><path d="m333.003 473.011c-7.194-1.381-14.72-4.094-20.982-7.918-5.908-3.608-11.196-8.224-15.567-13.592-6.01-7.383-10.289-16.14-12.403-25.423-2.328-10.224-2.188-20.145 4.996-28.444 31.262-36.116 54.716-104.229 69.718-202.586 11.845-77.66 14.808-150.748 15.531-178.565.114-4.367-1.501-8.497-4.55-11.626-3.053-3.132-7.143-4.857-11.518-4.857h-204.456c-4.375 0-8.465 1.725-11.517 4.858-3.049 3.129-4.665 7.258-4.55 11.625.666 25.608 3.23 89.576 12.873 160.158.005.041.004.081.01.122 4.644 33.93 10.579 67.737 19.01 100.946 6.163 24.272 13.64 48.348 23.833 71.255 5.021 11.283 10.585 22.371 17.371 32.708 3.369 5.132 7.074 9.981 11.039 14.663 6.676 7.883 8.495 14.224 7.06 24.539-2.119 15.227-9.97 29.328-21.834 39.158-8.307 6.883-17.466 11.23-28.163 12.996-3.156.521-6.263 1.441-9.249 2.575-12.328 4.681-22.456 14.066-25.39 27.271-.493 2.221.048 4.546 1.471 6.321 1.424 1.775 3.576 2.807 5.851 2.807h117.209c4.143 0 7.501-3.358 7.501-7.5 0-4.143-3.358-7.501-7.501-7.501h-105.187c3.156-3.529 7.381-5.969 11.798-7.571 4.633-1.681 9.489-2.372 14.232-3.727 4.992-1.426 9.881-3.236 14.463-5.695 4.046-2.171 7.891-4.717 11.477-7.585 15.618-12.494 26.005-31.089 28.371-51.027.095-.803 1.053-8.479.533-8.634 3.11.927 6.341 1.494 9.633 1.646 4.45.189 9.137-.376 13.402-1.646.186 35.785 25.324 67.05 59.922 74.429 3.445.735 6.864 1.314 10.187 2.632 3.27 1.297 5.665 2.606 8.331 4.834.403.337 2.031 2.343 2.433 2.343h-45.196c-4.143 0-7.501 3.358-7.501 7.501s3.358 7.5 7.501 7.5h57.218c2.275 0 4.427-1.032 5.851-2.807 1.423-1.775 1.964-4.1 1.471-6.321-5.457-24.556-31.856-29.405-34.732-29.862zm-178.74-418.43c.006.006.013.011.019.016-.129-2.402-.25-4.75-.363-7.025 9.024 2.104 18.718 4.951 29.822 8.746 3.918 1.343 8.183-.752 9.522-4.672 1.34-3.919-.752-8.183-4.672-9.522-13.266-4.534-24.668-7.784-35.371-10.076-.243-6.302-.409-11.672-.52-15.956-.008-.296.094-.554.3-.766.145-.147.396-.324.772-.324h204.456c.377 0 .628.177.772.324.206.212.308.47.3.767-.286 11.003-.927 29.165-2.34 51.903-3.708 1.714-7.51 3.162-11.35 4.318-39.62 11.964-82.254-2.06-122.525-17.448l-1.692-.647c-3.868-1.479-8.206.455-9.685 4.325-1.481 3.868.456 8.205 4.325 9.685l1.696.648c40.823 15.6 88.076 31.128 132.212 17.798 1.97-.593 3.931-1.251 5.877-1.972-.272 3.748-.567 7.465-.864 11.178.01-.016.022-.03.032-.046-1.759 22.05-4.198 46.719-7.574 72.41h-182.825c-5.697-43.36-8.722-83.802-10.324-113.664zm31.546 225.54c-8.124-30.525-13.969-61.681-18.575-92.886-.197-1.332-.391-2.662-.582-3.989h178.693c-.022.156-.045.312-.068.469-4.735 32.563-10.702 64.984-19.197 96.823-.081.303-.749 3.291-.889 3.291-.012 0-138.357 0-138.383 0-.157 0-.909-3.368-.999-3.708zm71.546 119.281c-4.595.471-9.303-.422-13.742-3.162-4.418-2.727-7.967-6.698-11.23-10.677-15.733-19.186-29.611-48.482-41.249-86.732h129.731c-12.155 39.948-26.752 70.137-43.355 89.233-5.259 6.048-12.553 10.559-20.155 11.338z"/></g></svg>