<svg id="Capa_1" enable-background="new 0 0 502.746 502.746" height="512" viewBox="0 0 502.746 502.746" width="512" xmlns="http://www.w3.org/2000/svg"><g><g><path d="m381.314 203.651 17.939-169.265c1.252-11.814-8.009-22.108-19.889-22.108h-349.478c-11.88 0-21.141 10.294-19.889 22.108l21.567 203.494 72.79-29.787c34.227-14.007 63.809-.351 94.792 13.304 23.644 10.421 50.74 9.547 73.664-2.374" fill="#ccf5fc"/><path d="m297.276 210.712c-8.401 1.485-16.653 4.247-24.465 8.31-22.924 11.922-50.02 12.795-73.664 2.374-30.983-13.655-60.565-27.31-94.792-13.304l-72.79 29.787 24.874 234.694c1.078 10.173 9.659 17.892 19.889 17.892h258.602 15.986" fill="#ffc144"/><g><circle cx="348.647" cy="346.107" fill="#eff3f3" r="143.989"/></g><circle cx="348.647" cy="346.107" fill="#ffc144" r="99.014"/><g><circle cx="348.647" cy="346.107" fill="#f9f9f9" r="28.671"/></g></g><g><path d="m332.589 500.467c41.138 0 82.925-9.962 115.161-36.637 34.642-28.666 54.995-72.826 54.995-117.722 0-69.885-46.799-129.037-110.701-147.786l17.264-162.882c1.847-17.43-12.301-33.161-29.833-33.161h-349.479c-17.527 0-31.681 15.726-29.833 33.161l46.441 438.188c1.622 15.3 14.447 26.838 29.833 26.838h256.152zm-310.028-474.876c1.921-2.136 4.562-3.312 7.435-3.312h349.479c5.868 0 10.563 5.218 9.944 11.054 0 0-17.021 160.599-17.021 160.599.179-1.712-26.554-1.435-28.603-1.382-24.83.646-53.313 6.043-75.488 17.6-20.34 10.579-44.038 11.342-65.018 2.097-33.886-14.934-65.808-28.471-102.613-13.408l-60.462 24.742-20.163-190.248c-.303-2.857.589-5.607 2.51-7.742zm326.196 454.504c-29.291 0-57.11-9.277-80.45-26.829-22.585-16.984-39.537-41.139-47.733-68.014-3.745-12.281-22.882-6.466-19.13 5.834 9.422 30.895 28.899 58.653 54.843 78.164 5.513 4.146 11.246 7.883 17.163 11.216h-197.014c-5.129 0-9.404-3.846-9.944-8.945l-24.082-227.228 65.842-26.944c47.227-19.331 83.786 23.644 130.349 21.195-17.744 18.223-30.937 40.746-37.915 65.15-3.53 12.345 15.694 17.861 19.229 5.498 7.84-27.419 24.705-52.122 47.488-69.558 23.521-18.001 51.652-27.516 81.354-27.516 73.882 0 133.989 60.107 133.989 133.989s-60.107 133.988-133.989 133.988z"/><path d="m426.641 269.797c-33.629-38.064-97.233-42.715-138.678-14.938-29.62 19.851-48.22 55.683-48.22 91.249 0 44.109 25.776 83.099 66.586 100.413 51.146 21.7 111.409-.338 138.104-48.627 4.945-8.944 8.615-18.588 10.816-28.57 7.957-36.089-4.408-71.87-28.337-99.219-.089-.103-.18-.206-.271-.308zm-8.299 131.752-36.113-36.113c1.678-2.895 2.995-6.024 3.881-9.329h51.096c-1.917 17.062-8.673 32.678-18.864 45.442zm-158.034-45.442h51.096c.886 3.305 2.202 6.434 3.88 9.329l-36.113 36.113c-10.19-12.764-16.947-28.38-18.863-45.442zm18.864-65.443 36.113 36.113c-1.679 2.895-2.995 6.024-3.881 9.329h-51.096c1.916-17.061 8.673-32.678 18.864-45.442zm69.585 74.114c-10.295 0-18.671-8.376-18.671-18.671s8.376-18.671 18.671-18.671 18.671 8.376 18.671 18.671-8.376 18.671-18.671 18.671zm19.329-52.143c-2.895-1.678-6.024-2.995-9.329-3.88v-51.096c17.062 1.917 32.679 8.673 45.443 18.864zm-29.329-3.88c-3.305.886-6.434 2.202-9.329 3.881l-36.113-36.113c12.764-10.191 28.381-16.947 45.442-18.863zm-9.33 70.824c2.896 1.679 6.024 2.995 9.33 3.881v51.095c-17.062-1.916-32.679-8.673-45.443-18.863zm29.33 3.881c3.305-.886 6.434-2.202 9.33-3.881l36.113 36.113c-12.764 10.191-28.381 16.947-45.443 18.863zm27.352-47.353c-.886-3.306-2.202-6.435-3.881-9.33l36.113-36.113c10.191 12.764 16.948 28.381 18.864 45.443z"/><path d="m215.1 344.145c-3.453-8.417-15.883-7.885-18.723.688-2.836 8.563 6.724 16.252 14.488 11.789 4.286-2.464 6.135-7.912 4.235-12.477z"/></g></g></svg>