<svg id="Capa_1" enable-background="new 0 0 511.999 511.999" height="512" viewBox="0 0 511.999 511.999" width="512" xmlns="http://www.w3.org/2000/svg"><g><g><g><path d="m255.999 7.496c-54.004 0-97.783 43.779-97.783 97.783v25.609h195.565v-25.609c.001-54.004-43.778-97.783-97.782-97.783z" fill="#fe93d3"/></g><g><path d="m353.781 105.276v25.615h-29.634c-7.139-4.999-12.317-11.918-14.177-21.046-.8-3.919-.76-7.948-1.08-11.928-2.839-34.843-22.886-42.012-51.57-54.17-14.377-6.089-27.235-16.937-34.953-30.304 10.488-3.849 21.816-5.949 33.634-5.949 53.998.001 97.78 43.782 97.78 97.782z" fill="#f3f0f3"/></g><g><path d="m353.781 105.276v25.615h-13.247v-15.487c0-54-43.782-97.781-97.781-97.781-5.709 0-11.298.49-16.737 1.43-1.32-1.81-2.54-3.679-3.649-5.609 10.488-3.849 21.816-5.949 33.634-5.949 53.998 0 97.78 43.781 97.78 97.781z" fill="#e2dee2"/></g></g><g><path d="m423.904 180.313c.244-4.756-3.548-8.752-8.311-8.752h-319.187c-4.763 0-8.555 3.996-8.311 8.752 3.808 74.26 55.803 135.781 125.325 153.925 14.392 3.756 24.338 16.897 24.338 31.771v50.077c0 31.049-21.448 58.29-51.814 64.766-.857.183-1.729.359-2.615.527 0 0-23.123 3.303-27.527 23.123h100.197 100.197c-4.404-19.82-27.527-23.123-27.527-23.123-.886-.169-1.757-.344-2.615-.527-30.366-6.476-51.814-33.717-51.814-64.766v-50.077c0-14.874 9.946-28.015 24.338-31.771 69.523-18.145 121.518-79.666 125.326-153.925z" fill="#c8effe"/></g><g><path d="m274.246 366.006v50.08c0 31.054 21.446 58.289 51.81 64.768.86.18 1.73.36 2.609.53 0 0 23.126 3.299 27.535 23.116h-19.576c-3.389-10.088-26.775-13.507-26.775-13.507-.89-.17-1.76-.35-2.62-.53-30.364-6.479-52.56-43.322-52.56-74.376v-65.407c0-14.877 9.938-28.015 24.335-31.774 69.517-18.147 121.517-64.328 125.326-138.593.24-4.759-3.549-8.748-8.308-8.748h19.566c4.769 0 8.558 3.989 8.318 8.748-3.809 74.266-55.809 135.784-125.326 153.93-14.396 3.748-24.334 16.896-24.334 31.763z" fill="#99e6fc"/></g><g><g><g><g><path d="m247.426 171.56c0-44.925 36.419-81.344 81.344-81.344s81.344 36.419 81.344 81.344z" fill="#d77f4a"/></g></g><g><g><path d="m410.114 171.563h-22.166c-2.439-42.732-37.853-76.625-81.204-76.625-2.01 0-3.999.07-5.979.22 8.728-3.189 18.167-4.939 28.005-4.939 44.921 0 81.344 36.413 81.344 81.344z" fill="#c86d36"/></g></g></g><g><g><g><path d="m101.884 171.56c0-44.925 36.419-81.344 81.344-81.344s81.344 36.419 81.344 81.344z" fill="#bbec6c"/></g></g><g><g><path d="m264.572 171.563h-22.166c-2.439-42.732-37.853-76.625-81.204-76.625-2.01 0-3.999.07-5.979.22 8.728-3.189 18.167-4.939 28.005-4.939 44.921 0 81.344 36.413 81.344 81.344z" fill="#a2e62e"/></g></g><path d="m427.058 168.986c-2.583-2.718-6.076-4.425-9.777-4.827-2.886-34.803-25.918-63.96-57.369-75.78-8.109-50.044-51.614-88.379-103.912-88.379-21.11 0-41.346 6.202-58.789 17.987-9.337 6.308-17.652 14.111-24.544 23.026-6.947 8.986-12.433 19.09-16.159 29.82-1.979 5.699-3.439 11.568-4.403 17.519-31.475 11.812-54.521 40.994-57.405 75.811-3.694.406-7.18 2.111-9.759 4.824-2.974 3.13-4.553 7.398-4.333 11.71 1.937 37.764 15.671 73.168 39.719 102.386 23.731 28.833 55.268 49.031 91.201 58.409 11.03 2.879 18.734 12.961 18.734 24.518v50.077c0 5.391-.73 10.748-2.17 15.92-1.11 3.989 1.224 8.122 5.212 9.232 3.993 1.109 8.121-1.225 9.232-5.212 1.804-6.482 2.719-13.19 2.719-19.94v-50.077c0-18.376-12.312-34.424-29.941-39.025-32.857-8.575-61.699-27.051-83.41-53.43-21.991-26.719-34.551-59.095-36.322-93.625-.012-.236.064-.444.228-.616.162-.171.363-.257.596-.257h319.187c.233 0 .434.086.596.257.164.172.24.38.228.615-1.771 34.532-14.331 66.907-36.322 93.627-21.711 26.379-50.553 44.854-83.41 53.43-17.629 4.601-29.941 20.648-29.941 39.025v50.077c0 34.64 24.286 64.962 57.749 72.098 7.119 1.514 14.246 3.339 19.483 8.822h-175.953c5.318-5.572 12.299-7.29 19.485-8.822 13.412-2.861 25.702-9.471 35.541-19.116 2.957-2.898 3.004-7.645.105-10.601s-7.645-3.003-10.6-.105c-8.404 8.238-18.997 13.438-30.5 15.63-2.816.448-28.295 5.149-33.569 28.885-.493 2.22.048 4.543 1.47 6.317 1.423 1.773 3.573 2.806 5.848 2.806h200.394c2.273 0 4.425-1.032 5.848-2.806 1.422-1.774 1.963-4.097 1.47-6.317-3.02-13.597-13.902-22.931-26.736-27.158-6.757-2.225-13.678-2.127-20.261-5.22-7.937-3.729-15.155-9.548-20.799-16.237-8.958-10.615-13.981-24.282-13.981-38.175 0-.096 0-50.077 0-50.077 0-11.557 7.704-21.639 18.734-24.518 35.933-9.378 67.47-29.575 91.201-58.409 24.048-29.218 37.782-64.622 39.719-102.388.219-4.313-1.36-8.581-4.334-11.711zm-207.614-146.253c4.301 6.075 9.644 11.707 15.722 16.509 3.249 2.568 7.964 2.014 10.529-1.235 2.567-3.248 2.014-7.963-1.235-10.529-3.75-2.963-7.149-6.294-10.085-9.861.313-.077.625-.156.939-.23 6.722-1.581 13.737-2.395 20.686-2.395 42.459 0 78.162 29.462 87.749 69.016-4.873-.832-9.872-1.289-14.979-1.289-4.972 0-9.847.419-14.599 1.209-6.146-24.06-22.716-33.45-40.712-41.433-3.781-1.679-8.212.027-9.892 3.812-1.679 3.785.028 8.213 3.813 9.892 18.259 8.101 28.327 15.302 32.329 31.41-17.811 6.187-33.065 17.891-43.705 33.059-16.081-22.928-42.705-37.948-72.776-37.948-5.095 0-10.09.437-14.953 1.265 6.657-27.424 25.853-49.997 51.169-61.252zm-109.685 141.331c3.769-37.213 35.28-66.352 73.469-66.352 38.19 0 69.702 29.139 73.471 66.352zm161.991 0c-.849-10.11-3.396-19.743-7.358-28.613 12.666-22.501 36.769-37.739 64.378-37.739 37.442 0 68.446 28.014 73.198 64.179l.242 2.172h-130.46z"/></g></g></g></svg>