<svg id="Capa_1" enable-background="new 0 0 512 512" height="512" viewBox="0 0 512 512" width="512" xmlns="http://www.w3.org/2000/svg"><g><g><path d="m337.664 38.547h-46.47v-15.088c0-8.811 7.143-15.954 15.954-15.954h14.561c8.811 0 15.954 7.143 15.954 15.954v15.088z" fill="#cbc4cc"/></g><g><path d="m337.66 23.456v15.089h-19.402v-15.089c0-7.985-5.864-14.599-13.528-15.77.791-.12 1.601-.18 2.422-.18h14.559c8.815 0 15.949 7.145 15.949 15.95z" fill="#b5adb6"/></g><g><path d="m353.862 80.316h-195.724l-21.424 49.735v162.355 162.355l19.168 44.498c1.369 3.178 4.498 5.237 7.958 5.237h184.32c3.46 0 6.589-2.059 7.958-5.237l19.168-44.498v-162.355-162.355z" fill="#cbc4cc"/></g><g><path d="m375.284 130.052v324.711l-19.162 44.497c-1.371 3.172-4.503 5.233-7.965 5.233h-20.012c3.462 0 6.594-2.061 7.965-5.233l19.162-44.497v-324.711l-21.423-49.741h20.012z" fill="#b5adb6"/></g><g><path d="m360.985 80.316h-209.97c-11.534 0-20.885-9.35-20.885-20.885 0-11.534 9.35-20.885 20.885-20.885h209.97c11.534 0 20.885 9.35 20.885 20.885 0 11.535-9.351 20.885-20.885 20.885z" fill="#f3f0f3"/></g><g><path d="m381.868 59.429c0 5.774-2.332 10.987-6.114 14.769-3.782 3.772-9.006 6.114-14.769 6.114h-20.012c5.764 0 10.987-2.341 14.769-6.114 3.782-3.782 6.114-8.996 6.114-14.769 0-11.527-9.346-20.883-20.883-20.883h20.012c11.537 0 20.883 9.355 20.883 20.883z" fill="#e2dee2"/></g><g><path d="m136.715 130.051h238.571v324.71h-238.571z" fill="#bbec6c"/></g><g><path d="m355.273 130.051h20.012v324.71h-20.012z" fill="#a2e62e"/></g><g><path d="m136.715 247.484h238.571v89.636h-238.571z" fill="#fee45a"/></g><g><path d="m355.271 247.484h20.014v89.636h-20.014z" fill="#fedf30"/></g><g><ellipse cx="256" cy="280.299" fill="#00c27a" rx="78.076" ry="110.088"/></g><g><path d="m334.078 280.295c0 60.808-34.962 110.088-78.078 110.088-6.184 0-12.207-1.011-17.981-2.942 41.646-2.341 74.886-50.691 74.886-109.988 0-52.082-25.636-95.699-60.087-107.146 1.051-.07 2.111-.1 3.182-.1 43.117 0 78.078 49.29 78.078 110.088z" fill="#08b865"/></g><path d="m382.178 127.082-17.044-39.567c13.694-2.014 24.24-13.839 24.24-28.083 0-15.654-12.735-28.39-28.389-28.39h-15.816v-7.583c0-12.935-10.524-23.459-23.459-23.459h-14.561c-12.935 0-23.459 10.524-23.459 23.459v7.583h-68.363c-4.145 0-7.505 3.36-7.505 7.505s3.36 7.505 7.505 7.505h145.658c7.378 0 13.38 6.002 13.38 13.38s-6.002 13.38-13.38 13.38h-209.97c-7.378 0-13.38-6.002-13.38-13.38s6.002-13.38 13.38-13.38h29.982c4.145 0 7.505-3.36 7.505-7.505s-3.36-7.505-7.505-7.505h-29.982c-15.654 0-28.389 12.735-28.389 28.39 0 14.244 10.547 26.069 24.24 28.083l-17.044 39.567c-.001.002-.001.004-.002.006-.391.909-.61 1.91-.61 2.963v324.71c0 1.052.219 2.053.61 2.962.001.002.002.005.003.007l19.168 44.498c2.558 5.936 8.386 9.772 14.85 9.772h184.319c6.464 0 12.293-3.836 14.85-9.772l19.168-44.498c.001-.002.002-.005.003-.007.391-.909.61-1.91.61-2.962v-324.71c0-1.052-.219-2.053-.61-2.963-.002-.002-.002-.004-.003-.006zm-52.018-96.04h-31.46v-7.583c0-4.659 3.79-8.45 8.45-8.45h14.561c4.659 0 8.45 3.79 8.45 8.45v7.583zm-167.083 56.779h185.846l14.958 34.726h-215.762zm-18.858 167.168h28.191c-1.301 8.226-1.992 16.695-1.992 25.31 0 17.303 2.697 34.054 7.805 49.317h-34.004zm205.006 241.301c-.183.426-.602.701-1.066.701h-184.318c-.464 0-.882-.275-1.066-.701l-14.656-34.024h215.762zm18.556-49.034h-223.562v-102.631h40.033c3.014 6.346 6.494 12.328 10.417 17.86 16.194 22.832 37.974 35.407 61.33 35.407 14.697 0 29.173-5.152 41.865-14.899 3.287-2.525 3.905-7.236 1.381-10.523s-7.235-3.905-10.523-1.381c-10.19 7.826-21.199 11.794-32.723 11.794-38.914 0-70.572-46.019-70.572-102.583s31.658-102.583 70.572-102.583 70.572 46.019 70.572 102.583c0 24.26-5.992 47.826-16.873 66.357-2.099 3.574-.902 8.173 2.672 10.271s8.172.903 10.271-2.672c1.815-3.091 3.492-6.315 5.06-9.63h40.077v102.63zm0-117.641h-34.059c5.127-15.357 7.86-32.207 7.86-49.317 0-8.615-.691-17.084-1.992-25.31h28.191zm0-89.636h-31.331c-4.088-15.509-10.538-29.766-19.119-41.866-16.194-22.832-37.974-35.407-61.33-35.407s-45.136 12.575-61.33 35.407c-8.581 12.099-15.031 26.357-19.119 41.866h-31.331v-102.423h223.561v102.423z"/></g></svg>