<?xml version="1.0" encoding="iso-8859-1"?>
<!-- Generator: Adobe Illustrator 19.0.0, SVG Export Plug-In . SVG Version: 6.00 Build 0)  -->
<svg version="1.1" id="Capa_1" xmlns="http://www.w3.org/2000/svg" xmlns:xlink="http://www.w3.org/1999/xlink" x="0px" y="0px"
	 viewBox="0 0 512.001 512.001" style="enable-background:new 0 0 512.001 512.001;" xml:space="preserve">
<g>
	<path style="fill:#EFD1B9;" d="M386.756,210.759H125.244v-21.714c0-2.761,2.239-5,5-5h251.512c2.761,0,5,2.239,5,5L386.756,210.759
		L386.756,210.759z"/>
	<path style="fill:#EFD1B9;" d="M381.756,248.357H130.244c-2.761,0-5-2.239-5-5v-33.493h261.512v33.493
		C386.756,246.118,384.518,248.357,381.756,248.357z"/>
</g>
<path style="fill:#D0ECF9;" d="M280.231,72.643c54.787,11.211,95.999,53.3,95.999,111.401H135.77
	c0-57.929,40.969-99.904,95.514-111.301L280.231,72.643z"/>
<path style="fill:#96DBFA;" d="M375.995,184.838l-41.695-0.057c-2.052-32.701-8.531-59.451-31.918-78.206
	c-20.757-16.646-40.026-25.632-66.633-25.611l-29.399,0.023c7.869-3.287,16.188-5.859,24.851-7.658l48.943-0.025
	C334.917,84.589,376.075,126.739,375.995,184.838z"/>
<g>
	<path style="fill:#E5B89A;" d="M386.756,210.759h-53.272v-26.714h48.272c2.761,0,5,2.239,5,5V210.759z"/>
	<path style="fill:#E5B89A;" d="M381.756,248.357h-48.272v-37.598h53.272v32.598C386.756,246.118,384.518,248.357,381.756,248.357z"
		/>
</g>
<path style="fill:#9E4716;" d="M264.284,248.357h-16.567H136.224l20.356,236.397c0.961,11.162,10.302,19.732,21.505,19.732h69.632
	h16.567h69.632c11.203,0,20.544-8.571,21.505-19.732l20.356-236.397H264.284L264.284,248.357z"/>
<path style="fill:#7F3B0D;" d="M375.775,248.358l-20.35,236.394c-0.962,11.162-10.31,19.739-21.512,19.739h-37.574
	c11.212,0,20.55-8.577,21.512-19.739l20.35-236.394L375.775,248.358L375.775,248.358z"/>
<path style="fill:#FFFFFF;" d="M208.723,183.109L208.723,183.109c-14.383,0-26.043-11.66-26.043-26.043l0,0
	c0-14.383,11.66-26.043,26.043-26.043l0,0c5.964,0,11.457,2.006,15.846,5.38c2.588,1.989,6.315,1.013,7.647-1.967
	c4.063-9.091,13.183-15.427,23.784-15.427c10.602,0,19.722,6.336,23.784,15.427c1.332,2.98,5.058,3.957,7.647,1.967
	c4.389-3.373,9.882-5.38,15.846-5.38l0,0c14.383,0,26.043,11.66,26.043,26.043l0,0c0,14.383-11.66,26.043-26.043,26.043H208.723z"/>
<path style="fill:#EFD1B9;" d="M329.322,157.069c0,7.194-2.916,13.697-7.625,18.416c-2.505,2.505-5.521,4.499-8.867,5.811
	c1.262-3.056,1.964-6.423,1.964-9.94c0-7.194-2.916-13.697-7.625-18.416c-4.719-4.709-11.232-7.625-18.416-7.625
	c-5.972,0-11.462,2.004-15.851,5.381c-2.585,1.984-6.312,1.012-7.645-1.964c-4.068-9.098-13.186-15.43-23.787-15.43
	c-3.407,0-6.663,0.651-9.649,1.854c0.14-0.22,0.281-0.461,0.391-0.721c4.068-9.088,13.186-15.43,23.787-15.43
	c10.601,0,19.719,6.342,23.787,15.43c1.333,2.986,5.06,3.958,7.645,1.964c4.389-3.367,9.879-5.371,15.851-5.371
	c7.184,0,13.697,2.916,18.416,7.625C326.407,143.362,329.322,149.875,329.322,157.069z"/>
<path d="M383.528,176.671c-1.544-26.827-11.538-51.219-29.15-70.919c-18.328-20.502-43.447-34.496-72.64-40.471
	c-0.501-0.103-1.01-0.171-1.523-0.153l-16.7,0.034V15.03h23.546c4.151,0,7.515-3.364,7.515-7.515S291.212,0,287.061,0H261.01
	c-6.906,0-12.524,5.618-12.524,12.525v52.668l-17.218,0.035c-0.511,0.001-1.021,0.054-1.521,0.159
	c-29.072,6.074-54.068,20.1-72.286,40.559c-17.509,19.664-27.447,43.988-28.987,70.724c-6.063,0.869-10.744,6.083-10.744,12.383
	v20.809v0.895v32.588c0,6.593,5.123,11.999,11.595,12.478l18.748,217.731c-0.022,0.235-0.036,0.473-0.036,0.714
	c0,0.677,0.098,1.33,0.266,1.955l0.79,9.175c1.306,15.166,13.769,26.603,28.991,26.603h10.115c4.151,0,7.515-3.364,7.515-7.515
	s-3.364-7.515-7.515-7.515h-10.115c-7.36,0-13.385-5.529-14.017-12.862l-0.2-2.325h184.266l-0.2,2.325
	c-0.631,7.333-6.656,12.862-14.017,12.862h-92.947c-4.151,0-7.515,3.364-7.515,7.515s3.364,7.515,7.515,7.515h92.947
	c15.222,0,27.685-11.437,28.991-26.602l0.79-9.17c0.169-0.626,0.267-1.28,0.267-1.959c0-0.243-0.014-0.482-0.036-0.719l2.605-30.245
	c0.356-4.135-2.708-7.776-6.843-8.132c-4.143-0.353-7.776,2.706-8.132,6.842l-2.131,24.739H162.573l-18.158-210.883h223.172
	l-11.425,132.671c-0.356,4.135,2.707,7.776,6.843,8.132c4.12,0.341,7.775-2.707,8.132-6.843l11.54-134.008
	c6.472-0.479,11.594-5.885,11.594-12.477v-32.588v-0.895v-20.809C394.271,182.754,389.591,177.541,383.528,176.671z M263.515,80.193
	l15.952-0.033c25.686,5.403,47.701,17.706,63.706,35.609c15.083,16.873,23.748,37.753,25.292,60.761h-37.877
	c3.927-5.494,6.247-12.211,6.247-19.463c0-18.504-15.054-33.558-33.557-33.558c-6.448,0-12.6,1.792-17.961,5.208
	c-4.65-8.338-12.629-14.237-21.802-16.352V80.193z M256,126.523c7.301,0,13.943,4.309,16.923,10.978
	c1.585,3.547,4.646,6.125,8.399,7.074c3.735,0.945,7.63,0.138,10.689-2.214c3.252-2.501,7.149-3.823,11.266-3.823
	c10.216,0,18.527,8.312,18.527,18.529c0,10.216-8.311,18.528-18.527,18.528h-94.555c-10.216,0-18.528-8.312-18.528-18.529
	c0-10.216,8.312-18.528,18.528-18.528c4.118,0,8.013,1.322,11.267,3.824c3.06,2.351,6.956,3.155,10.689,2.213
	c3.751-0.949,6.812-3.527,8.397-7.074C242.056,130.833,248.7,126.523,256,126.523z M168.686,115.942
	c15.907-17.864,37.815-30.194,63.393-35.685l16.407-0.034v32.142c-9.174,2.115-17.152,8.013-21.803,16.352
	c-5.361-3.417-11.513-5.208-17.96-5.208c-18.504,0-33.558,15.054-33.558,33.558c0,7.252,2.32,13.969,6.247,19.463h-37.876
	C145.075,153.601,153.691,132.781,168.686,115.942z M379.241,240.842h-3.465H136.225h-3.466v-22.569h246.482V240.842z
	 M379.241,202.349H132.759v-10.79h3.012h240.46h3.011v10.79H379.241z"/>
<g>
</g>
<g>
</g>
<g>
</g>
<g>
</g>
<g>
</g>
<g>
</g>
<g>
</g>
<g>
</g>
<g>
</g>
<g>
</g>
<g>
</g>
<g>
</g>
<g>
</g>
<g>
</g>
<g>
</g>
</svg>
